M48
; DRILL file {KiCad 9.0.0} date 2025-03-10T16:56:19+0800
; FORMAT={-:-/ absolute / metric / decimal}
; #@! TF.CreationDate,2025-03-10T16:56:19+08:00
; #@! TF.GenerationSoftware,Kicad,Pcbnew,9.0.0
; #@! TF.FileFunction,NonPlated,1,2,NPTH
FMAT,2
METRIC
; #@! TA.AperFunction,NonPlated,NPTH,ComponentDrill
T1C1.700
; #@! TA.AperFunction,NonPlated,NPTH,ComponentDrill
T2C3.000
; #@! TA.AperFunction,NonPlated,NPTH,ComponentDrill
T3C4.000
%
G90
G05
T1
X94.16Y-129.011
X99.24Y-137.809
X112.924Y-130.385
X115.42Y-50.0
X115.42Y-69.1
X115.42Y-88.1
X115.42Y-107.1
X122.276Y-126.415
X125.58Y-50.0
X125.58Y-69.1
X125.58Y-88.1
X125.58Y-107.1
X134.42Y-47.5
X134.42Y-66.6
X134.42Y-85.6
X134.42Y-104.7
X134.42Y-123.8
X144.58Y-47.5
X144.58Y-66.6
X144.58Y-85.6
X144.58Y-104.7
X144.58Y-123.8
X153.42Y-45.01
X153.42Y-64.1
X153.42Y-83.2
X153.42Y-102.2
X153.42Y-121.2
X163.58Y-45.01
X163.58Y-64.1
X163.58Y-83.2
X163.58Y-102.2
X163.58Y-121.2
X172.42Y-47.5
X172.42Y-66.5
X172.42Y-85.6
X172.42Y-104.7
X172.42Y-123.7
X182.58Y-47.5
X182.58Y-66.5
X182.58Y-85.6
X182.58Y-104.7
X182.58Y-123.7
X191.42Y-56.5
X191.42Y-75.4
X191.42Y-94.6
X191.42Y-113.6
X201.58Y-56.5
X201.58Y-75.4
X201.58Y-94.6
X201.58Y-113.6
X210.42Y-56.5
X210.42Y-75.4
X210.42Y-94.6
X210.47Y-113.6
X220.58Y-56.5
X220.58Y-75.4
X220.58Y-94.6
X220.63Y-113.6
T2
X96.995Y-128.84
X99.829Y-128.67
X100.805Y-135.44
X102.369Y-133.07
X113.1Y-127.551
X113.277Y-124.716
X116.69Y-47.46
X116.69Y-66.56
X116.69Y-85.56
X116.69Y-104.56
X117.953Y-122.731
X117.96Y-44.92
X117.96Y-64.02
X117.96Y-83.02
X117.96Y-102.02
X120.115Y-124.573
X123.04Y-44.92
X123.04Y-64.02
X123.04Y-83.02
X123.04Y-102.02
X124.31Y-47.46
X124.31Y-66.56
X124.31Y-85.56
X124.31Y-104.56
X135.69Y-44.96
X135.69Y-64.06
X135.69Y-83.06
X135.69Y-102.16
X135.69Y-121.26
X136.96Y-42.42
X136.96Y-61.52
X136.96Y-80.52
X136.96Y-99.62
X136.96Y-118.72
X142.04Y-42.42
X142.04Y-61.52
X142.04Y-80.52
X142.04Y-99.62
X142.04Y-118.72
X143.31Y-44.96
X143.31Y-64.06
X143.31Y-83.06
X143.31Y-102.16
X143.31Y-121.26
X154.69Y-42.47
X154.69Y-61.56
X154.69Y-80.66
X154.69Y-99.66
X154.69Y-118.66
X155.96Y-39.93
X155.96Y-59.02
X155.96Y-78.12
X155.96Y-97.12
X155.96Y-116.12
X161.04Y-39.93
X161.04Y-59.02
X161.04Y-78.12
X161.04Y-97.12
X161.04Y-116.12
X162.31Y-42.47
X162.31Y-61.56
X162.31Y-80.66
X162.31Y-99.66
X162.31Y-118.66
X173.69Y-44.96
X173.69Y-63.96
X173.69Y-83.06
X173.69Y-102.16
X173.69Y-121.16
X174.96Y-42.42
X174.96Y-61.42
X174.96Y-80.52
X174.96Y-99.62
X174.96Y-118.62
X180.04Y-42.42
X180.04Y-61.42
X180.04Y-80.52
X180.04Y-99.62
X180.04Y-118.62
X181.31Y-44.96
X181.31Y-63.96
X181.31Y-83.06
X181.31Y-102.16
X181.31Y-121.16
X192.69Y-53.96
X192.69Y-72.86
X192.69Y-92.06
X192.69Y-111.06
X193.96Y-51.42
X193.96Y-70.32
X193.96Y-89.52
X193.96Y-108.52
X199.04Y-51.42
X199.04Y-70.32
X199.04Y-89.52
X199.04Y-108.52
X200.31Y-53.96
X200.31Y-72.86
X200.31Y-92.06
X200.31Y-111.06
X211.69Y-53.96
X211.69Y-72.86
X211.69Y-92.06
X211.74Y-111.06
X212.96Y-51.42
X212.96Y-70.32
X212.96Y-89.52
X213.01Y-108.52
X218.04Y-51.42
X218.04Y-70.32
X218.04Y-89.52
X218.09Y-108.52
X219.31Y-53.96
X219.31Y-72.86
X219.31Y-92.06
X219.36Y-111.06
T3
X96.7Y-133.41
X117.6Y-128.4
X120.5Y-50.0
X120.5Y-69.1
X120.5Y-88.1
X120.5Y-107.1
X139.5Y-47.5
X139.5Y-66.6
X139.5Y-85.6
X139.5Y-104.7
X139.5Y-123.8
X158.5Y-45.01
X158.5Y-64.1
X158.5Y-83.2
X158.5Y-102.2
X158.5Y-121.2
X177.5Y-47.5
X177.5Y-66.5
X177.5Y-85.6
X177.5Y-104.7
X177.5Y-123.7
X196.5Y-56.5
X196.5Y-75.4
X196.5Y-94.6
X196.5Y-113.6
X215.5Y-56.5
X215.5Y-75.4
X215.5Y-94.6
X215.55Y-113.6
M30
