G04 #@! TF.GenerationSoftware,KiCad,Pcbnew,9.0.0*
G04 #@! TF.CreationDate,2025-03-10T16:50:29+08:00*
G04 #@! TF.ProjectId,SofleKeyboard,536f666c-654b-4657-9962-6f6172642e6b,rev?*
G04 #@! TF.SameCoordinates,Original*
G04 #@! TF.FileFunction,Soldermask,Bot*
G04 #@! TF.FilePolarity,Negative*
%FSLAX46Y46*%
G04 Gerber Fmt 4.6, Leading zero omitted, Abs format (unit mm)*
G04 Created by KiCad (PCBNEW 9.0.0) date 2025-03-10 16:50:29*
%MOMM*%
%LPD*%
G01*
G04 APERTURE LIST*
G04 Aperture macros list*
%AMRoundRect*
0 Rectangle with rounded corners*
0 $1 Rounding radius*
0 $2 $3 $4 $5 $6 $7 $8 $9 X,Y pos of 4 corners*
0 Add a 4 corners polygon primitive as box body*
4,1,4,$2,$3,$4,$5,$6,$7,$8,$9,$2,$3,0*
0 Add four circle primitives for the rounded corners*
1,1,$1+$1,$2,$3*
1,1,$1+$1,$4,$5*
1,1,$1+$1,$6,$7*
1,1,$1+$1,$8,$9*
0 Add four rect primitives between the rounded corners*
20,1,$1+$1,$2,$3,$4,$5,0*
20,1,$1+$1,$4,$5,$6,$7,0*
20,1,$1+$1,$6,$7,$8,$9,0*
20,1,$1+$1,$8,$9,$2,$3,0*%
%AMFreePoly0*
4,1,41,2.776539,1.434775,2.811894,1.420130,2.884485,1.368623,2.920130,1.311894,2.934775,1.276539,2.950000,1.200000,2.950000,-1.200000,2.934775,-1.276539,2.920130,-1.311894,2.868623,-1.384485,2.811894,-1.420130,2.776539,-1.434775,2.700000,-1.450000,0.300000,-1.450000,0.223461,-1.434775,0.188106,-1.420130,0.115515,-1.368623,0.079870,-1.311894,0.065225,-1.276539,0.050000,-1.200000,
0.050000,-0.950000,-0.350000,-0.950000,-0.436777,-0.930194,-0.506366,-0.874698,-0.544986,-0.794504,-0.550000,-0.750000,-0.550000,0.750000,-0.530194,0.836777,-0.474698,0.906366,-0.394504,0.944986,-0.350000,0.950000,0.050000,0.950000,0.050000,1.200000,0.065225,1.276539,0.079870,1.311894,0.131377,1.384485,0.188106,1.420130,0.223461,1.434775,0.300000,1.450000,2.700000,1.450000,
2.776539,1.434775,2.776539,1.434775,$1*%
%AMFreePoly1*
4,1,44,-0.323461,1.434775,-0.288106,1.420130,-0.215515,1.368623,-0.179870,1.311894,-0.165225,1.276539,-0.150000,1.200000,-0.150000,0.950000,0.350000,0.950000,0.436777,0.930194,0.506366,0.874698,0.544986,0.794504,0.550000,0.750000,0.550000,-0.750000,0.530194,-0.836777,0.474698,-0.906366,0.394504,-0.944986,0.350000,-0.950000,-0.150000,-0.950000,-0.150000,-1.200000,-0.165225,-1.276539,
-0.179870,-1.311894,-0.231377,-1.384485,-0.288106,-1.420130,-0.323461,-1.434775,-0.400000,-1.450000,-2.300000,-1.450000,-2.366203,-1.438725,-2.397438,-1.427768,-2.456174,-1.395217,-2.956174,-0.995217,-3.006429,-0.935517,-3.024888,-0.901996,-3.049388,-0.816588,-3.049694,-0.811066,-3.050000,-0.800000,-3.050000,1.200000,-3.034775,1.276539,-3.020130,1.311894,-2.968623,1.384485,-2.911894,1.420130,
-2.876539,1.434775,-2.800000,1.450000,-0.400000,1.450000,-0.323461,1.434775,-0.323461,1.434775,$1*%
G04 Aperture macros list end*
%ADD10C,5.100000*%
%ADD11RoundRect,0.200000X-0.876300X0.876300X-0.876300X-0.876300X0.876300X-0.876300X0.876300X0.876300X0*%
%ADD12C,2.152600*%
%ADD13RoundRect,0.200000X-0.900000X-0.750000X0.900000X-0.750000X0.900000X0.750000X-0.900000X0.750000X0*%
%ADD14RoundRect,0.200000X-1.099519X0.404423X-0.199519X-1.154423X1.099519X-0.404423X0.199519X1.154423X0*%
%ADD15C,2.100000*%
%ADD16C,3.400000*%
%ADD17C,4.400000*%
%ADD18FreePoly0,0.000000*%
%ADD19FreePoly1,0.000000*%
%ADD20FreePoly0,300.000000*%
%ADD21FreePoly1,300.000000*%
%ADD22FreePoly0,23.000000*%
%ADD23FreePoly1,23.000000*%
%ADD24RoundRect,0.200000X-0.762000X-0.762000X0.762000X-0.762000X0.762000X0.762000X-0.762000X0.762000X0*%
%ADD25RoundRect,0.200000X-0.762000X0.762000X-0.762000X-0.762000X0.762000X-0.762000X0.762000X0.762000X0*%
%ADD26C,1.797000*%
%ADD27C,2.400000*%
%ADD28RoundRect,0.200000X-1.600000X-1.000000X1.600000X-1.000000X1.600000X1.000000X-1.600000X1.000000X0*%
%ADD29O,2.300000X1.500000*%
%ADD30O,2.500000X1.500000*%
%ADD31RoundRect,0.330000X-0.745000X0.495000X-0.745000X-0.495000X0.745000X-0.495000X0.745000X0.495000X0*%
%ADD32RoundRect,0.200000X0.571500X-0.317500X0.571500X0.317500X-0.571500X0.317500X-0.571500X-0.317500X0*%
%ADD33RoundRect,0.200000X-0.750000X0.500000X-0.750000X-0.500000X0.750000X-0.500000X0.750000X0.500000X0*%
%ADD34C,0.800000*%
%ADD35C,1.000000*%
G04 APERTURE END LIST*
D10*
X129300000Y-59600000D03*
X205800000Y-66210000D03*
X205800000Y-104510000D03*
X103800000Y-120810000D03*
D11*
X92151400Y-42740000D03*
D12*
X92608600Y-45280000D03*
X92151400Y-47820000D03*
X92608600Y-50360000D03*
X92151400Y-52900000D03*
X92608600Y-55440000D03*
X92151400Y-57980000D03*
X92608600Y-60520000D03*
X92151400Y-63060000D03*
X92608600Y-65600000D03*
X92151400Y-68140000D03*
X92608600Y-70680000D03*
X107391400Y-70680000D03*
X107848600Y-68140000D03*
X107391400Y-65600000D03*
X107848600Y-63060000D03*
X107391400Y-60520000D03*
X107848600Y-57980000D03*
X107391400Y-55440000D03*
X107848600Y-52900000D03*
X107391400Y-50360000D03*
X107848600Y-47820000D03*
X107391400Y-45280000D03*
X107848600Y-42740000D03*
D13*
X112700000Y-58000000D03*
X116100000Y-58000000D03*
X132600000Y-55700000D03*
X136000000Y-55700000D03*
X150700000Y-53300000D03*
X154100000Y-53300000D03*
X169800000Y-55600000D03*
X173200000Y-55600000D03*
X188700000Y-64800000D03*
X192100000Y-64800000D03*
X220200000Y-64600000D03*
X223600000Y-64600000D03*
X112700000Y-61100000D03*
X116100000Y-61100000D03*
X133600000Y-58700000D03*
X137000000Y-58700000D03*
X150800000Y-56500000D03*
X154200000Y-56500000D03*
X169800000Y-58700000D03*
X173200000Y-58700000D03*
X188700000Y-67700000D03*
X192100000Y-67700000D03*
X220200000Y-67700000D03*
X223600000Y-67700000D03*
X112700000Y-96000000D03*
X116100000Y-96000000D03*
X132600000Y-93800000D03*
X136000000Y-93800000D03*
X150800000Y-91400000D03*
X154200000Y-91400000D03*
X169800000Y-93600000D03*
X173200000Y-93600000D03*
X188500000Y-102800000D03*
X191900000Y-102800000D03*
X219900000Y-102800000D03*
X223300000Y-102800000D03*
X112700000Y-99100000D03*
X116100000Y-99100000D03*
X133600000Y-96800000D03*
X137000000Y-96800000D03*
X150800000Y-94500000D03*
X154200000Y-94500000D03*
X169800000Y-96800000D03*
X173200000Y-96800000D03*
X188500000Y-106000000D03*
X191900000Y-106000000D03*
X220000000Y-106000000D03*
X223400000Y-106000000D03*
X105000000Y-99010000D03*
X108400000Y-99010000D03*
D14*
X108950000Y-117827757D03*
X110650000Y-120772243D03*
D13*
X122200000Y-118000000D03*
X125600000Y-118000000D03*
X141200000Y-115800000D03*
X144600000Y-115800000D03*
X160700000Y-112810000D03*
X164100000Y-112810000D03*
D15*
X115420000Y-50000000D03*
D16*
X116690000Y-47459999D03*
X117960000Y-44920000D03*
D17*
X120500000Y-50000000D03*
D16*
X123040000Y-44920000D03*
X124310000Y-47460000D03*
D15*
X125580000Y-50000000D03*
D18*
X112000000Y-47500000D03*
D19*
X127700000Y-44900000D03*
D15*
X115420000Y-69100000D03*
D16*
X116690000Y-66559999D03*
X117960000Y-64020000D03*
D17*
X120500000Y-69100000D03*
D16*
X123040000Y-64020000D03*
X124310000Y-66560000D03*
D15*
X125580000Y-69100000D03*
D18*
X112000000Y-66600000D03*
D19*
X127700000Y-64000000D03*
D15*
X115420000Y-88100000D03*
D16*
X116690000Y-85559999D03*
X117960000Y-83020000D03*
D17*
X120500000Y-88100000D03*
D16*
X123040000Y-83020000D03*
X124310000Y-85560000D03*
D15*
X125580000Y-88100000D03*
D18*
X112000000Y-85600000D03*
D19*
X127700000Y-83000000D03*
D15*
X115420000Y-107100000D03*
D16*
X116690000Y-104559999D03*
X117960000Y-102020000D03*
D17*
X120500000Y-107100000D03*
D16*
X123040000Y-102020000D03*
X124310000Y-104560000D03*
D15*
X125580000Y-107100000D03*
D18*
X112000000Y-104600000D03*
D19*
X127700000Y-102000000D03*
D15*
X94160000Y-129010591D03*
D16*
X96994705Y-128840443D03*
X99829409Y-128670295D03*
D17*
X96700000Y-133410000D03*
D16*
X102369409Y-133069705D03*
X100804705Y-135439557D03*
D15*
X99240000Y-137809409D03*
D20*
X94615064Y-124798784D03*
D21*
X104716730Y-137095383D03*
D15*
X112923835Y-130384914D03*
D16*
X113100419Y-127550602D03*
X113277004Y-124716292D03*
D17*
X117600000Y-128400000D03*
D16*
X117953168Y-122731378D03*
X120114666Y-124573232D03*
D15*
X122276165Y-126415086D03*
D22*
X108798881Y-129419952D03*
D23*
X122234906Y-120892161D03*
D15*
X134420000Y-123800000D03*
D16*
X135690000Y-121259999D03*
X136960000Y-118720000D03*
D17*
X139500000Y-123800000D03*
D16*
X142040000Y-118720000D03*
X143310000Y-121260000D03*
D15*
X144580000Y-123800000D03*
D18*
X131000000Y-121300000D03*
D19*
X146700000Y-118700000D03*
D15*
X153420000Y-121200000D03*
D16*
X154690000Y-118659999D03*
X155960000Y-116120000D03*
D17*
X158500000Y-121200000D03*
D16*
X161040000Y-116120000D03*
X162310000Y-118660000D03*
D15*
X163580000Y-121200000D03*
D18*
X150000000Y-118700000D03*
D19*
X165700000Y-116100000D03*
D24*
X123500000Y-78710000D03*
D25*
X121000000Y-78710000D03*
X118400000Y-78710000D03*
D26*
X96300000Y-74410000D03*
X98840000Y-74410000D03*
X101380000Y-74410000D03*
X103920000Y-74410000D03*
D13*
X178900000Y-115310000D03*
X182300000Y-115310000D03*
D17*
X105130000Y-93336000D03*
D15*
X134420000Y-85600000D03*
D16*
X135690000Y-83059999D03*
X136960000Y-80520000D03*
D17*
X139500000Y-85600000D03*
D16*
X142040000Y-80520000D03*
X143310000Y-83060000D03*
D15*
X144580000Y-85600000D03*
D18*
X131000000Y-83100000D03*
D19*
X146700000Y-80500000D03*
D15*
X134420000Y-104700000D03*
D16*
X135690000Y-102159999D03*
X136960000Y-99620000D03*
D17*
X139500000Y-104700000D03*
D16*
X142040000Y-99620000D03*
X143310000Y-102160000D03*
D15*
X144580000Y-104700000D03*
D18*
X131000000Y-102200000D03*
D19*
X146700000Y-99600000D03*
D15*
X134420000Y-66600000D03*
D16*
X135690000Y-64059999D03*
X136960000Y-61520000D03*
D17*
X139500000Y-66600000D03*
D16*
X142040000Y-61520000D03*
X143310000Y-64060000D03*
D15*
X144580000Y-66600000D03*
D18*
X131000000Y-64100000D03*
D19*
X146700000Y-61500000D03*
D15*
X134420000Y-47500000D03*
D16*
X135690000Y-44959999D03*
X136960000Y-42420000D03*
D17*
X139500000Y-47500000D03*
D16*
X142040000Y-42420000D03*
X143310000Y-44960000D03*
D15*
X144580000Y-47500000D03*
D18*
X131000000Y-45000000D03*
D19*
X146700000Y-42400000D03*
D15*
X153420000Y-83200000D03*
D16*
X154690000Y-80659999D03*
X155960000Y-78120000D03*
D17*
X158500000Y-83200000D03*
D16*
X161040000Y-78120000D03*
X162310000Y-80660000D03*
D15*
X163580000Y-83200000D03*
D18*
X150000000Y-80700000D03*
D19*
X165700000Y-78100000D03*
D15*
X153420000Y-45010000D03*
D16*
X154690000Y-42469999D03*
X155960000Y-39930000D03*
D17*
X158500000Y-45010000D03*
D16*
X161040000Y-39930000D03*
X162310000Y-42470000D03*
D15*
X163580000Y-45010000D03*
D18*
X150000000Y-42510000D03*
D19*
X165700000Y-39910000D03*
D15*
X153420000Y-64100000D03*
D16*
X154690000Y-61559999D03*
X155960000Y-59020000D03*
D17*
X158500000Y-64100000D03*
D16*
X161040000Y-59020000D03*
X162310000Y-61560000D03*
D15*
X163580000Y-64100000D03*
D18*
X150000000Y-61600000D03*
D19*
X165700000Y-59000000D03*
D15*
X153420000Y-102200000D03*
D16*
X154690000Y-99659999D03*
X155960000Y-97120000D03*
D17*
X158500000Y-102200000D03*
D16*
X161040000Y-97120000D03*
X162310000Y-99660000D03*
D15*
X163580000Y-102200000D03*
D18*
X150000000Y-99700000D03*
D19*
X165700000Y-97100000D03*
D15*
X172420000Y-104700000D03*
D16*
X173690000Y-102159999D03*
X174960000Y-99620000D03*
D17*
X177500000Y-104700000D03*
D16*
X180040000Y-99620000D03*
X181310000Y-102160000D03*
D15*
X182580000Y-104700000D03*
D18*
X169000000Y-102200000D03*
D19*
X184700000Y-99600000D03*
D15*
X172420000Y-66500000D03*
D16*
X173690000Y-63959999D03*
X174960000Y-61420000D03*
D17*
X177500000Y-66500000D03*
D16*
X180040000Y-61420000D03*
X181310000Y-63960000D03*
D15*
X182580000Y-66500000D03*
D18*
X169000000Y-64000000D03*
D19*
X184700000Y-61400000D03*
D15*
X172420000Y-123700000D03*
D16*
X173690000Y-121159999D03*
X174960000Y-118620000D03*
D17*
X177500000Y-123700000D03*
D16*
X180040000Y-118620000D03*
X181310000Y-121160000D03*
D15*
X182580000Y-123700000D03*
D18*
X169000000Y-121200000D03*
D19*
X184700000Y-118600000D03*
D15*
X172420000Y-85600000D03*
D16*
X173690000Y-83059999D03*
X174960000Y-80520000D03*
D17*
X177500000Y-85600000D03*
D16*
X180040000Y-80520000D03*
X181310000Y-83060000D03*
D15*
X182580000Y-85600000D03*
D18*
X169000000Y-83100000D03*
D19*
X184700000Y-80500000D03*
D15*
X172420000Y-47500000D03*
D16*
X173690000Y-44959999D03*
X174960000Y-42420000D03*
D17*
X177500000Y-47500000D03*
D16*
X180040000Y-42420000D03*
X181310000Y-44960000D03*
D15*
X182580000Y-47500000D03*
D18*
X169000000Y-45000000D03*
D19*
X184700000Y-42400000D03*
D15*
X191420000Y-56500000D03*
D16*
X192690000Y-53959999D03*
X193960000Y-51420000D03*
D17*
X196500000Y-56500000D03*
D16*
X199040000Y-51420000D03*
X200310000Y-53960000D03*
D15*
X201580000Y-56500000D03*
D18*
X188000000Y-54000000D03*
D19*
X203700000Y-51400000D03*
D15*
X191420000Y-113600000D03*
D16*
X192690000Y-111059999D03*
X193960000Y-108520000D03*
D17*
X196500000Y-113600000D03*
D16*
X199040000Y-108520000D03*
X200310000Y-111060000D03*
D15*
X201580000Y-113600000D03*
D18*
X188000000Y-111100000D03*
D19*
X203700000Y-108500000D03*
D15*
X210420000Y-94600000D03*
D16*
X211690000Y-92059999D03*
X212960000Y-89520000D03*
D17*
X215500000Y-94600000D03*
D16*
X218040000Y-89520000D03*
X219310000Y-92060000D03*
D15*
X220580000Y-94600000D03*
D18*
X207000000Y-92100000D03*
D19*
X222700000Y-89500000D03*
D15*
X210470000Y-113600000D03*
D16*
X211740000Y-111059999D03*
X213010000Y-108520000D03*
D17*
X215550000Y-113600000D03*
D16*
X218090000Y-108520000D03*
X219360000Y-111060000D03*
D15*
X220630000Y-113600000D03*
D18*
X207050000Y-111100000D03*
D19*
X222750000Y-108500000D03*
D15*
X210420000Y-56500000D03*
D16*
X211690000Y-53959999D03*
X212960000Y-51420000D03*
D17*
X215500000Y-56500000D03*
D16*
X218040000Y-51420000D03*
X219310000Y-53960000D03*
D15*
X220580000Y-56500000D03*
D18*
X207000000Y-54000000D03*
D19*
X222700000Y-51400000D03*
D15*
X210420000Y-75400000D03*
D16*
X211690000Y-72859999D03*
X212960000Y-70320000D03*
D17*
X215500000Y-75400000D03*
D16*
X218040000Y-70320000D03*
X219310000Y-72860000D03*
D15*
X220580000Y-75400000D03*
D18*
X207000000Y-72900000D03*
D19*
X222700000Y-70300000D03*
D15*
X191420000Y-94600000D03*
D16*
X192690000Y-92059999D03*
X193960000Y-89520000D03*
D17*
X196500000Y-94600000D03*
D16*
X199040000Y-89520000D03*
X200310000Y-92060000D03*
D15*
X201580000Y-94600000D03*
D18*
X188000000Y-92100000D03*
D19*
X203700000Y-89500000D03*
D15*
X191420000Y-75400000D03*
D16*
X192690000Y-72859999D03*
X193960000Y-70320000D03*
D17*
X196500000Y-75400000D03*
D16*
X199040000Y-70320000D03*
X200310000Y-72860000D03*
D15*
X201580000Y-75400000D03*
D18*
X188000000Y-72900000D03*
D19*
X203700000Y-70300000D03*
D10*
X129300000Y-97510000D03*
D27*
X91700000Y-104000000D03*
X91700000Y-109000000D03*
X91700000Y-106500000D03*
D28*
X99200000Y-100900000D03*
X99200000Y-112100000D03*
D27*
X106200000Y-109000000D03*
X106200000Y-104000000D03*
X92280000Y-81052000D03*
X92280000Y-74552000D03*
D29*
X94940000Y-84892000D03*
D30*
X90940000Y-84892000D03*
D29*
X94940000Y-96132000D03*
D30*
X90940000Y-96132000D03*
D31*
X102200000Y-50610000D03*
X102200000Y-53410000D03*
X99000000Y-50610000D03*
X99000000Y-53410000D03*
D32*
X101300000Y-70200380D03*
X101300000Y-69199620D03*
X98800000Y-70200380D03*
X98800000Y-69199620D03*
X96300000Y-70200380D03*
X96300000Y-69199620D03*
X103900000Y-70200380D03*
X103900000Y-69199620D03*
D33*
X99400000Y-58760000D03*
X99400000Y-60060000D03*
D34*
X129000000Y-44910000D03*
X147600000Y-42500000D03*
X166900000Y-39910000D03*
X186000000Y-42410000D03*
X205000000Y-51410000D03*
X224000000Y-51410000D03*
X128700000Y-64000000D03*
X147500000Y-61600000D03*
X166900000Y-59010000D03*
X185600000Y-61500000D03*
X204900000Y-70310000D03*
X224000000Y-70310000D03*
X128700000Y-83000002D03*
X147800000Y-80600000D03*
X166900000Y-78110000D03*
X185900000Y-80600000D03*
X204900000Y-89510000D03*
X224000000Y-89510000D03*
X128600000Y-102000000D03*
X147600000Y-99700000D03*
X166900000Y-97010000D03*
X185600000Y-99700000D03*
X205000000Y-108510000D03*
X224000000Y-108510000D03*
X105200000Y-138510000D03*
X123500000Y-120410000D03*
X147900000Y-118710000D03*
D35*
X102640000Y-77082000D03*
D34*
X103278891Y-76750891D03*
X108050000Y-81060000D03*
X99988501Y-69316621D03*
D35*
X96290000Y-92962000D03*
X96290000Y-88062000D03*
D34*
X103930000Y-58352000D03*
D35*
X188750000Y-96610000D03*
X142330000Y-50652000D03*
X109180000Y-76552000D03*
X166500000Y-108460000D03*
D34*
X96300000Y-68200000D03*
D35*
X104880000Y-106552000D03*
X222730000Y-116552000D03*
X176030000Y-75902000D03*
X109530000Y-101602000D03*
X129280000Y-81252000D03*
X183255000Y-92052000D03*
X99780000Y-122152000D03*
X149030000Y-113752000D03*
X186530000Y-131452000D03*
X172080000Y-50602000D03*
X195930000Y-121552000D03*
X100830000Y-90052000D03*
X222730000Y-121552000D03*
X208430000Y-87002000D03*
X105680000Y-143352000D03*
X157530000Y-52002000D03*
X148080000Y-87302000D03*
X101080000Y-42752000D03*
X167430000Y-85452000D03*
X161530000Y-131452000D03*
X146030000Y-96727000D03*
X201890000Y-104782000D03*
X133180000Y-127877000D03*
X189250000Y-76260000D03*
X115950000Y-120210000D03*
X168630000Y-40652000D03*
X151580000Y-36952000D03*
X203805000Y-119527000D03*
X202130000Y-66052000D03*
X209850000Y-59810000D03*
X189450000Y-86610000D03*
X104730000Y-125152000D03*
X101180000Y-145852000D03*
X121830000Y-59802000D03*
X166300000Y-114210000D03*
D34*
X103780000Y-55752000D03*
D35*
X156530000Y-131452000D03*
X160230000Y-69777000D03*
X94930000Y-76252000D03*
X133700000Y-71060000D03*
X169480000Y-50502000D03*
X199980000Y-78202000D03*
X128850000Y-118410000D03*
X173180000Y-127877000D03*
X207280000Y-59602000D03*
D34*
X107600000Y-75710000D03*
D35*
X176280000Y-113152000D03*
X113880000Y-138802000D03*
X143180000Y-127877000D03*
X122830000Y-97602000D03*
X119780000Y-56502000D03*
X114080000Y-79552000D03*
X210180000Y-63152000D03*
X198130000Y-64752000D03*
X118205000Y-111002000D03*
X159680000Y-53702000D03*
X93380000Y-143352000D03*
D34*
X95130000Y-55352000D03*
D35*
X124250000Y-112360000D03*
X132280000Y-51552000D03*
X168330000Y-79252000D03*
X205730000Y-76402000D03*
X141730000Y-93602000D03*
X141530000Y-131452000D03*
X171530000Y-131452000D03*
X147530000Y-55502000D03*
D34*
X101630000Y-65452000D03*
D35*
X176080000Y-93852000D03*
X106530000Y-100902000D03*
X129580000Y-76152000D03*
D34*
X101430000Y-55752000D03*
D35*
X98280000Y-93752000D03*
X151650000Y-71010000D03*
X207230000Y-98502000D03*
X129280000Y-89852000D03*
X195280000Y-101002000D03*
X205730000Y-87852000D03*
X114980000Y-53060000D03*
X107130000Y-138552000D03*
X205980000Y-49852000D03*
X104280000Y-87902000D03*
X96030000Y-78452000D03*
X119500000Y-119160000D03*
X129580000Y-51202000D03*
X118030000Y-137002000D03*
X119303662Y-95296143D03*
X206930000Y-114502000D03*
X91680000Y-117752000D03*
X223380000Y-48702000D03*
X186380000Y-85852000D03*
X129180000Y-114352000D03*
X208200000Y-82160000D03*
X150830000Y-48852000D03*
X183180000Y-127877000D03*
X197430000Y-128452000D03*
X109305000Y-96002000D03*
X197630000Y-102852000D03*
X190380000Y-62752000D03*
X91230000Y-100002000D03*
X151080000Y-89152000D03*
X221930000Y-62152000D03*
X113400000Y-119160000D03*
X189480000Y-80402000D03*
X125630000Y-54552000D03*
X176830000Y-53952000D03*
X141430000Y-55552000D03*
X148700000Y-108760000D03*
X169230000Y-91452000D03*
X186130000Y-110102000D03*
X87880000Y-133702000D03*
X100161362Y-76861174D03*
D34*
X95800000Y-65510000D03*
D35*
X168580000Y-110052000D03*
X112330000Y-53010000D03*
X142130000Y-89252000D03*
X132530000Y-91602000D03*
X124930000Y-57902000D03*
X122030000Y-135052000D03*
D34*
X96229300Y-53980700D03*
D35*
X185130000Y-39652000D03*
X132930000Y-39152000D03*
D34*
X122130000Y-76852000D03*
D35*
X198180000Y-80602000D03*
X102230000Y-95002000D03*
X129480000Y-71152000D03*
D34*
X103830000Y-62252000D03*
D35*
X209650000Y-102022000D03*
X176530000Y-131452000D03*
X148180000Y-40552000D03*
X101030000Y-45902000D03*
X178980000Y-55952000D03*
X148300000Y-115910000D03*
X125980000Y-133102000D03*
X85080000Y-128702000D03*
X186680000Y-48652000D03*
X181530000Y-131452000D03*
X223280000Y-82002000D03*
X158730000Y-107327000D03*
X171230000Y-70902000D03*
X88580000Y-123552000D03*
X148230000Y-75702000D03*
X169030000Y-53402000D03*
X185730000Y-96352000D03*
X114180000Y-76102000D03*
X95330000Y-102452000D03*
X120850000Y-115460000D03*
X166530000Y-131452000D03*
X148180000Y-50102000D03*
X186030000Y-58002000D03*
X146530000Y-131452000D03*
X109480000Y-107802000D03*
X136530000Y-131452000D03*
X105950000Y-114860000D03*
D34*
X104300000Y-51210000D03*
D35*
X147805000Y-58677000D03*
X172880000Y-91502000D03*
X110605000Y-44602000D03*
X106350000Y-127210000D03*
X205850000Y-82210000D03*
X131530000Y-131452000D03*
X212480000Y-124202000D03*
X136680000Y-109902000D03*
X214980000Y-104052000D03*
X210030000Y-98702000D03*
X97880000Y-142227000D03*
X211680000Y-65752000D03*
X113500000Y-114960000D03*
X207530000Y-125452000D03*
X210755000Y-68052000D03*
X129530000Y-43002000D03*
X186550000Y-113910000D03*
X103930000Y-78652000D03*
X202230000Y-127052000D03*
X165980000Y-36752000D03*
X151930000Y-75402000D03*
X107930000Y-82702000D03*
X108930000Y-89052000D03*
X160480000Y-91702000D03*
D34*
X99180000Y-55702000D03*
D35*
X171530000Y-77002000D03*
X109450000Y-112210000D03*
D34*
X98930000Y-65452000D03*
D35*
X157830000Y-90002000D03*
X150980000Y-84952000D03*
X96480000Y-148552000D03*
X167880000Y-70902000D03*
X111800000Y-112260000D03*
X116230000Y-71127000D03*
X111205000Y-135252000D03*
X105930000Y-117702000D03*
X131005000Y-106727000D03*
D34*
X104105000Y-53777000D03*
D35*
X151530000Y-131452000D03*
X186650000Y-76110000D03*
X189200000Y-117810000D03*
X188780000Y-58302000D03*
X142980000Y-112752000D03*
X192330000Y-129802000D03*
X151550000Y-108810000D03*
D34*
X95000000Y-63060000D03*
D35*
X222700000Y-97560000D03*
X97800000Y-120010000D03*
X147800000Y-71010000D03*
X133380000Y-76052000D03*
X100130000Y-83452000D03*
X217230000Y-123052000D03*
X90580000Y-138502000D03*
X169100000Y-116560000D03*
D34*
X207100000Y-108510000D03*
X169000000Y-118610000D03*
X207000000Y-89410000D03*
X207000000Y-51410000D03*
X207000000Y-70310000D03*
X207000000Y-77810000D03*
X188000000Y-51410000D03*
X188000000Y-70310000D03*
X188000000Y-78110000D03*
X188000000Y-89510000D03*
X188000000Y-108510000D03*
X150000000Y-116110000D03*
X131000000Y-118710000D03*
X169400000Y-99700000D03*
X169500000Y-73710000D03*
X169500000Y-61500000D03*
X169400000Y-42500000D03*
X169500000Y-80600000D03*
X150000000Y-58910000D03*
X107800000Y-126910000D03*
X150000000Y-39910000D03*
X150000000Y-74460000D03*
X150000000Y-78110000D03*
X150100000Y-97110000D03*
X131200000Y-62110000D03*
X131100000Y-42410000D03*
X131200000Y-75010000D03*
X131100000Y-100010000D03*
X96800000Y-123710000D03*
X131000000Y-80510000D03*
X102700000Y-60110000D03*
X102700000Y-68300000D03*
X119050000Y-72210000D03*
X101400000Y-61510000D03*
X102600000Y-69200000D03*
X167000000Y-116110000D03*
X97200000Y-54010000D03*
X186000000Y-118610000D03*
X112400000Y-101999990D03*
X112399986Y-44900000D03*
X112499999Y-76410001D03*
X112300000Y-83000000D03*
X112300000Y-64100000D03*
X98200000Y-62510000D03*
D35*
X99210000Y-90102000D03*
D34*
X97323501Y-61136499D03*
D35*
X98120000Y-90122000D03*
X98130000Y-91392000D03*
M02*
