G04 #@! TF.GenerationSoftware,KiCad,Pcbnew,9.0.0*
G04 #@! TF.CreationDate,2025-03-10T16:50:29+08:00*
G04 #@! TF.ProjectId,SofleKeyboard,536f666c-654b-4657-9962-6f6172642e6b,rev?*
G04 #@! TF.SameCoordinates,Original*
G04 #@! TF.FileFunction,Profile,NP*
%FSLAX46Y46*%
G04 Gerber Fmt 4.6, Leading zero omitted, Abs format (unit mm)*
G04 Created by KiCad (PCBNEW 9.0.0) date 2025-03-10 16:50:29*
%MOMM*%
%LPD*%
G01*
G04 APERTURE LIST*
G04 #@! TA.AperFunction,Profile*
%ADD10C,0.150000*%
G04 #@! TD*
G04 APERTURE END LIST*
D10*
X130730000Y-40552000D02*
X111230000Y-40552000D01*
X149730000Y-38052000D02*
X130730000Y-38052000D01*
X149730000Y-35552000D02*
X149730000Y-38052000D01*
X89730000Y-100552000D02*
X89730000Y-121052000D01*
X224730000Y-47052000D02*
X186730000Y-47052000D01*
X167730000Y-35552000D02*
X149730000Y-35552000D01*
X186730000Y-47052000D02*
X186730000Y-38052000D01*
X95530000Y-95132000D02*
X89730000Y-95132000D01*
X89730000Y-95132000D02*
X89730000Y-100552000D01*
X112730000Y-141052000D02*
X130230000Y-133052000D01*
X130230000Y-133052000D02*
X186730000Y-133052000D01*
X224730000Y-123052000D02*
X224730000Y-47052000D01*
X186730000Y-133052000D02*
X224730000Y-123052000D01*
X111230000Y-40552000D02*
X89730000Y-40552000D01*
X130730000Y-38052000D02*
X130730000Y-40552000D01*
X167730000Y-38052000D02*
X167730000Y-35552000D01*
X89730000Y-85891000D02*
X95530000Y-85891000D01*
X81230000Y-126052000D02*
X95730000Y-151052000D01*
X89730000Y-121052000D02*
X87230000Y-122552000D01*
X95730000Y-151052000D02*
X112730000Y-141052000D01*
X95530000Y-85891000D02*
X95530000Y-95132000D01*
X89730000Y-40552000D02*
X89730000Y-85891000D01*
X186730000Y-38052000D02*
X167730000Y-38052000D01*
X87230000Y-122552000D02*
X81230000Y-126052000D01*
M02*
