M48
; DRILL file {KiCad 9.0.0} date 2025-03-10T16:56:19+0800
; FORMAT={-:-/ absolute / metric / decimal}
; #@! TF.CreationDate,2025-03-10T16:56:19+08:00
; #@! TF.GenerationSoftware,Kicad,Pcbnew,9.0.0
; #@! TF.FileFunction,Plated,1,2,PTH
FMAT,2
METRIC
; #@! TA.AperFunction,Plated,PTH,ViaDrill
T1C0.300
; #@! TA.AperFunction,Plated,PTH,ViaDrill
T2C0.400
; #@! TA.AperFunction,Plated,PTH,ComponentDrill
T3C0.400
; #@! TA.AperFunction,Plated,PTH,ComponentDrill
T4C0.600
; #@! TA.AperFunction,Plated,PTH,ComponentDrill
T5C0.813
; #@! TA.AperFunction,Plated,PTH,ComponentDrill
T6C1.000
; #@! TA.AperFunction,Plated,PTH,ComponentDrill
T7C1.092
; #@! TA.AperFunction,Plated,PTH,ComponentDrill
T8C1.300
; #@! TA.AperFunction,Plated,PTH,ComponentDrill
T9C1.500
; #@! TA.AperFunction,Plated,PTH,ComponentDrill
T10C2.200
; #@! TA.AperFunction,Plated,PTH,ComponentDrill
T11C4.100
%
G90
G05
T1
X95.0Y-63.06
X95.13Y-55.352
X95.8Y-65.51
X96.229Y-53.981
X96.3Y-68.2
X96.8Y-123.71
X97.2Y-54.01
X97.324Y-61.136
X98.2Y-62.51
X98.93Y-65.452
X99.18Y-55.702
X99.989Y-69.317
X101.4Y-61.51
X101.43Y-55.752
X101.63Y-65.452
X102.6Y-69.2
X102.7Y-60.11
X102.7Y-68.3
X103.279Y-76.751
X103.78Y-55.752
X103.83Y-62.252
X103.93Y-58.352
X104.105Y-53.777
X104.3Y-51.21
X105.2Y-138.51
X107.6Y-75.71
X107.8Y-126.91
X108.05Y-81.06
X112.3Y-64.1
X112.3Y-83.0
X112.4Y-44.9
X112.4Y-102.0
X112.5Y-76.41
X119.05Y-72.21
X122.13Y-76.852
X123.5Y-120.41
X128.6Y-102.0
X128.7Y-64.0
X128.7Y-83.0
X129.0Y-44.91
X131.0Y-80.51
X131.0Y-118.71
X131.1Y-42.41
X131.1Y-100.01
X131.2Y-62.11
X131.2Y-75.01
X147.5Y-61.6
X147.6Y-42.5
X147.6Y-99.7
X147.8Y-80.6
X147.9Y-118.71
X150.0Y-39.91
X150.0Y-58.91
X150.0Y-74.46
X150.0Y-78.11
X150.0Y-116.11
X150.1Y-97.11
X166.9Y-39.91
X166.9Y-59.01
X166.9Y-78.11
X166.9Y-97.01
X167.0Y-116.11
X169.0Y-118.61
X169.4Y-42.5
X169.4Y-99.7
X169.5Y-61.5
X169.5Y-73.71
X169.5Y-80.6
X185.6Y-61.5
X185.6Y-99.7
X185.9Y-80.6
X186.0Y-42.41
X186.0Y-118.61
X188.0Y-51.41
X188.0Y-70.31
X188.0Y-78.11
X188.0Y-89.51
X188.0Y-108.51
X204.9Y-70.31
X204.9Y-89.51
X205.0Y-51.41
X205.0Y-108.51
X207.0Y-51.41
X207.0Y-70.31
X207.0Y-77.81
X207.0Y-89.41
X207.1Y-108.51
X224.0Y-51.41
X224.0Y-70.31
X224.0Y-89.51
X224.0Y-108.51
T2
X85.08Y-128.702
X87.88Y-133.702
X88.58Y-123.552
X90.58Y-138.502
X91.23Y-100.002
X91.68Y-117.752
X93.38Y-143.352
X94.93Y-76.252
X95.33Y-102.452
X96.03Y-78.452
X96.29Y-88.062
X96.29Y-92.962
X96.48Y-148.552
X97.8Y-120.01
X97.88Y-142.227
X98.12Y-90.122
X98.13Y-91.392
X98.28Y-93.752
X99.21Y-90.102
X99.78Y-122.152
X100.13Y-83.452
X100.161Y-76.861
X100.83Y-90.052
X101.03Y-45.902
X101.08Y-42.752
X101.18Y-145.852
X102.23Y-95.002
X102.64Y-77.082
X103.93Y-78.652
X104.28Y-87.902
X104.73Y-125.152
X104.88Y-106.552
X105.68Y-143.352
X105.93Y-117.702
X105.95Y-114.86
X106.35Y-127.21
X106.53Y-100.902
X107.13Y-138.552
X107.93Y-82.702
X108.93Y-89.052
X109.18Y-76.552
X109.305Y-96.002
X109.45Y-112.21
X109.48Y-107.802
X109.53Y-101.602
X110.605Y-44.602
X111.205Y-135.252
X111.8Y-112.26
X112.33Y-53.01
X113.4Y-119.16
X113.5Y-114.96
X113.88Y-138.802
X114.08Y-79.552
X114.18Y-76.102
X114.98Y-53.06
X115.95Y-120.21
X116.23Y-71.127
X118.03Y-137.002
X118.205Y-111.002
X119.304Y-95.296
X119.5Y-119.16
X119.78Y-56.502
X120.85Y-115.46
X121.83Y-59.802
X122.03Y-135.052
X122.83Y-97.602
X124.25Y-112.36
X124.93Y-57.902
X125.63Y-54.552
X125.98Y-133.102
X128.85Y-118.41
X129.18Y-114.352
X129.28Y-81.252
X129.28Y-89.852
X129.48Y-71.152
X129.53Y-43.002
X129.58Y-51.202
X129.58Y-76.152
X131.005Y-106.727
X131.53Y-131.452
X132.28Y-51.552
X132.53Y-91.602
X132.93Y-39.152
X133.18Y-127.877
X133.38Y-76.052
X133.7Y-71.06
X136.53Y-131.452
X136.68Y-109.902
X141.43Y-55.552
X141.53Y-131.452
X141.73Y-93.602
X142.13Y-89.252
X142.33Y-50.652
X142.98Y-112.752
X143.18Y-127.877
X146.03Y-96.727
X146.53Y-131.452
X147.53Y-55.502
X147.8Y-71.01
X147.805Y-58.677
X148.08Y-87.302
X148.18Y-40.552
X148.18Y-50.102
X148.23Y-75.702
X148.3Y-115.91
X148.7Y-108.76
X149.03Y-113.752
X150.83Y-48.852
X150.98Y-84.952
X151.08Y-89.152
X151.53Y-131.452
X151.55Y-108.81
X151.58Y-36.952
X151.65Y-71.01
X151.93Y-75.402
X156.53Y-131.452
X157.53Y-52.002
X157.83Y-90.002
X158.73Y-107.327
X159.68Y-53.702
X160.23Y-69.777
X160.48Y-91.702
X161.53Y-131.452
X165.98Y-36.752
X166.3Y-114.21
X166.5Y-108.46
X166.53Y-131.452
X167.43Y-85.452
X167.88Y-70.902
X168.33Y-79.252
X168.58Y-110.052
X168.63Y-40.652
X169.03Y-53.402
X169.1Y-116.56
X169.23Y-91.452
X169.48Y-50.502
X171.23Y-70.902
X171.53Y-77.002
X171.53Y-131.452
X172.08Y-50.602
X172.88Y-91.502
X173.18Y-127.877
X176.03Y-75.902
X176.08Y-93.852
X176.28Y-113.152
X176.53Y-131.452
X176.83Y-53.952
X178.98Y-55.952
X181.53Y-131.452
X183.18Y-127.877
X183.255Y-92.052
X185.13Y-39.652
X185.73Y-96.352
X186.03Y-58.002
X186.13Y-110.102
X186.38Y-85.852
X186.53Y-131.452
X186.55Y-113.91
X186.65Y-76.11
X186.68Y-48.652
X188.75Y-96.61
X188.78Y-58.302
X189.2Y-117.81
X189.25Y-76.26
X189.45Y-86.61
X189.48Y-80.402
X190.38Y-62.752
X192.33Y-129.802
X195.28Y-101.002
X195.93Y-121.552
X197.43Y-128.452
X197.63Y-102.852
X198.13Y-64.752
X198.18Y-80.602
X199.98Y-78.202
X201.89Y-104.782
X202.13Y-66.052
X202.23Y-127.052
X203.805Y-119.527
X205.73Y-76.402
X205.73Y-87.852
X205.85Y-82.21
X205.98Y-49.852
X206.93Y-114.502
X207.23Y-98.502
X207.28Y-59.602
X207.53Y-125.452
X208.2Y-82.16
X208.43Y-87.002
X209.65Y-102.022
X209.85Y-59.81
X210.03Y-98.702
X210.18Y-63.152
X210.755Y-68.052
X211.68Y-65.752
X212.48Y-124.202
X214.98Y-104.052
X217.23Y-123.052
X221.93Y-62.152
X222.7Y-97.56
X222.73Y-116.552
X222.73Y-121.552
X223.28Y-82.002
X223.38Y-48.702
T3
X99.0Y-50.61
X99.0Y-53.41
X102.2Y-50.61
X102.2Y-53.41
X105.0Y-99.01
X108.4Y-99.01
X108.95Y-117.828
X110.65Y-120.772
X112.7Y-58.0
X112.7Y-61.1
X112.7Y-96.0
X112.7Y-99.1
X116.1Y-58.0
X116.1Y-61.1
X116.1Y-96.0
X116.1Y-99.1
X122.2Y-118.0
X125.6Y-118.0
X132.6Y-55.7
X132.6Y-93.8
X133.6Y-58.7
X133.6Y-96.8
X136.0Y-55.7
X136.0Y-93.8
X137.0Y-58.7
X137.0Y-96.8
X141.2Y-115.8
X144.6Y-115.8
X150.7Y-53.3
X150.8Y-56.5
X150.8Y-91.4
X150.8Y-94.5
X154.1Y-53.3
X154.2Y-56.5
X154.2Y-91.4
X154.2Y-94.5
X160.7Y-112.81
X164.1Y-112.81
X169.8Y-55.6
X169.8Y-58.7
X169.8Y-93.6
X169.8Y-96.8
X173.2Y-55.6
X173.2Y-58.7
X173.2Y-93.6
X173.2Y-96.8
X178.9Y-115.31
X182.3Y-115.31
X188.5Y-102.8
X188.5Y-106.0
X188.7Y-64.8
X188.7Y-67.7
X191.9Y-102.8
X191.9Y-106.0
X192.1Y-64.8
X192.1Y-67.7
X219.9Y-102.8
X220.0Y-106.0
X220.2Y-64.6
X220.2Y-67.7
X223.3Y-102.8
X223.4Y-106.0
X223.6Y-64.6
X223.6Y-67.7
T5
X96.3Y-74.41
X98.84Y-74.41
X101.38Y-74.41
X103.92Y-74.41
T6
X91.7Y-104.0
X91.7Y-106.5
X91.7Y-109.0
X106.2Y-104.0
X106.2Y-109.0
X118.4Y-78.71
X121.0Y-78.71
X123.5Y-78.71
T7
X92.151Y-42.74
X92.151Y-47.82
X92.151Y-52.9
X92.151Y-57.98
X92.151Y-63.06
X92.151Y-68.14
X92.609Y-45.28
X92.609Y-50.36
X92.609Y-55.44
X92.609Y-60.52
X92.609Y-65.6
X92.609Y-70.68
X107.391Y-45.28
X107.391Y-50.36
X107.391Y-55.44
X107.391Y-60.52
X107.391Y-65.6
X107.391Y-70.68
X107.849Y-42.74
X107.849Y-47.82
X107.849Y-52.9
X107.849Y-57.98
X107.849Y-63.06
X107.849Y-68.14
T8
X92.28Y-74.552
X92.28Y-81.052
T10
X105.13Y-93.336
T11
X103.8Y-120.81
X129.3Y-59.6
X129.3Y-97.51
X205.8Y-66.21
X205.8Y-104.51
T4
X91.44Y-84.892G85X90.44Y-84.892
G05
X91.44Y-96.132G85X90.44Y-96.132
G05
X95.34Y-84.892G85X94.54Y-84.892
G05
X95.34Y-96.132G85X94.54Y-96.132
G05
T9
X98.55Y-100.9G85X99.85Y-100.9
G05
X98.55Y-112.1G85X99.85Y-112.1
G05
M30
