G04 #@! TF.GenerationSoftware,KiCad,Pcbnew,9.0.0*
G04 #@! TF.CreationDate,2025-03-22T23:19:33+08:00*
G04 #@! TF.ProjectId,SofleKeyboard,536f666c-654b-4657-9962-6f6172642e6b,rev?*
G04 #@! TF.SameCoordinates,Original*
G04 #@! TF.FileFunction,Legend,Top*
G04 #@! TF.FilePolarity,Positive*
%FSLAX46Y46*%
G04 Gerber Fmt 4.6, Leading zero omitted, Abs format (unit mm)*
G04 Created by KiCad (PCBNEW 9.0.0) date 2025-03-22 23:19:33*
%MOMM*%
%LPD*%
G01*
G04 APERTURE LIST*
G04 Aperture macros list*
%AMRoundRect*
0 Rectangle with rounded corners*
0 $1 Rounding radius*
0 $2 $3 $4 $5 $6 $7 $8 $9 X,Y pos of 4 corners*
0 Add a 4 corners polygon primitive as box body*
4,1,4,$2,$3,$4,$5,$6,$7,$8,$9,$2,$3,0*
0 Add four circle primitives for the rounded corners*
1,1,$1+$1,$2,$3*
1,1,$1+$1,$4,$5*
1,1,$1+$1,$6,$7*
1,1,$1+$1,$8,$9*
0 Add four rect primitives between the rounded corners*
20,1,$1+$1,$2,$3,$4,$5,0*
20,1,$1+$1,$4,$5,$6,$7,0*
20,1,$1+$1,$6,$7,$8,$9,0*
20,1,$1+$1,$8,$9,$2,$3,0*%
%AMFreePoly0*
4,1,45,2.776539,1.434775,2.811894,1.420130,2.884485,1.368623,2.920130,1.311894,2.934775,1.276539,2.950000,1.200000,2.950000,-0.800000,2.934775,-0.876539,2.920130,-0.911894,2.868623,-0.984485,2.862166,-0.990013,2.854546,-0.996261,2.838675,-1.008013,2.238675,-1.408013,2.185689,-1.433022,2.157954,-1.441419,2.100000,-1.450000,0.300000,-1.450000,0.223461,-1.434775,0.188106,-1.420130,
0.115515,-1.368623,0.079870,-1.311894,0.065225,-1.276539,0.050000,-1.200000,0.050000,-0.950000,-0.350000,-0.950000,-0.436777,-0.930194,-0.506366,-0.874698,-0.544986,-0.794504,-0.550000,-0.750000,-0.550000,0.750000,-0.530194,0.836777,-0.474698,0.906366,-0.394504,0.944986,-0.350000,0.950000,0.050000,0.950000,0.050000,1.200000,0.065225,1.276539,0.079870,1.311894,0.131377,1.384485,
0.188106,1.420130,0.223461,1.434775,0.300000,1.450000,2.700000,1.450000,2.776539,1.434775,2.776539,1.434775,$1*%
%AMFreePoly1*
4,1,41,-0.323461,1.434775,-0.288106,1.420130,-0.215515,1.368623,-0.179870,1.311894,-0.165225,1.276539,-0.150000,1.200000,-0.150000,0.950000,0.350000,0.950000,0.436777,0.930194,0.506366,0.874698,0.544986,0.794504,0.550000,0.750000,0.550000,-0.750000,0.530194,-0.836777,0.474698,-0.906366,0.394504,-0.944986,0.350000,-0.950000,-0.150000,-0.950000,-0.150000,-1.200000,-0.165225,-1.276539,
-0.179870,-1.311894,-0.231377,-1.384485,-0.288106,-1.420130,-0.323461,-1.434775,-0.400000,-1.450000,-2.800000,-1.450000,-2.876539,-1.434775,-2.911894,-1.420130,-2.984485,-1.368623,-3.020130,-1.311894,-3.034775,-1.276539,-3.050000,-1.200000,-3.050000,1.200000,-3.034775,1.276539,-3.020130,1.311894,-2.968623,1.384485,-2.911894,1.420130,-2.876539,1.434775,-2.800000,1.450000,-0.400000,1.450000,
-0.323461,1.434775,-0.323461,1.434775,$1*%
%AMFreePoly2*
4,1,23,0.586777,0.930194,0.656366,0.874698,0.666410,0.860940,1.166410,0.110940,1.198065,0.027751,1.190491,-0.060935,1.166410,-0.110940,0.666410,-0.860940,0.601795,-0.922156,0.517019,-0.949275,0.500000,-0.950000,-0.500000,-0.950000,-0.586777,-0.930194,-0.656366,-0.874698,-0.694986,-0.794504,-0.700000,-0.750000,-0.700000,0.750000,-0.680194,0.836777,-0.624698,0.906366,-0.544504,0.944986,
-0.500000,0.950000,0.500000,0.950000,0.586777,0.930194,0.586777,0.930194,$1*%
%AMFreePoly3*
4,1,24,0.586777,0.930194,0.656366,0.874698,0.694986,0.794504,0.700000,0.750000,0.700000,-0.750000,0.680194,-0.836777,0.624698,-0.906366,0.544504,-0.944986,0.500000,-0.950000,-0.650000,-0.950000,-0.736777,-0.930194,-0.806366,-0.874698,-0.844986,-0.794504,-0.844986,-0.705496,-0.816410,-0.639060,-0.390370,0.000000,-0.816410,0.639060,-0.848065,0.722249,-0.840491,0.810935,-0.795188,0.887551,
-0.721129,0.936924,-0.650000,0.950000,0.500000,0.950000,0.586777,0.930194,0.586777,0.930194,$1*%
G04 Aperture macros list end*
%ADD10C,0.150000*%
%ADD11C,0.100000*%
%ADD12C,0.381000*%
%ADD13C,0.120000*%
%ADD14C,0.127000*%
%ADD15C,0.200000*%
%ADD16R,1.752600X1.752600*%
%ADD17C,1.752600*%
%ADD18C,1.397000*%
%ADD19C,5.100000*%
%ADD20RoundRect,0.200000X-0.876300X0.876300X-0.876300X-0.876300X0.876300X-0.876300X0.876300X0.876300X0*%
%ADD21C,2.152600*%
%ADD22RoundRect,0.200000X0.571500X-0.317500X0.571500X0.317500X-0.571500X0.317500X-0.571500X-0.317500X0*%
%ADD23RoundRect,0.200000X-0.900000X-0.750000X0.900000X-0.750000X0.900000X0.750000X-0.900000X0.750000X0*%
%ADD24RoundRect,0.200000X-1.099519X0.404423X-0.199519X-1.154423X1.099519X-0.404423X0.199519X1.154423X0*%
%ADD25C,2.100000*%
%ADD26C,3.400000*%
%ADD27C,4.400000*%
%ADD28FreePoly0,0.000000*%
%ADD29FreePoly1,0.000000*%
%ADD30FreePoly0,300.000000*%
%ADD31FreePoly1,300.000000*%
%ADD32FreePoly0,23.000000*%
%ADD33FreePoly1,23.000000*%
%ADD34C,1.797000*%
%ADD35C,2.400000*%
%ADD36RoundRect,0.200000X-1.600000X-1.000000X1.600000X-1.000000X1.600000X1.000000X-1.600000X1.000000X0*%
%ADD37FreePoly2,180.000000*%
%ADD38FreePoly3,180.000000*%
%ADD39FreePoly2,0.000000*%
%ADD40FreePoly3,0.000000*%
%ADD41RoundRect,0.200000X0.850000X-0.850000X0.850000X0.850000X-0.850000X0.850000X-0.850000X-0.850000X0*%
%ADD42O,2.100000X2.100000*%
%ADD43RoundRect,0.102000X-1.250000X0.600000X-1.250000X-0.600000X1.250000X-0.600000X1.250000X0.600000X0*%
%ADD44RoundRect,0.200000X-0.650000X0.300000X-0.650000X-0.300000X0.650000X-0.300000X0.650000X0.300000X0*%
%ADD45RoundRect,0.200000X-0.650000X0.150000X-0.650000X-0.150000X0.650000X-0.150000X0.650000X0.150000X0*%
%ADD46O,2.300000X1.500000*%
%ADD47O,2.500000X1.500000*%
%ADD48RoundRect,0.330000X-0.745000X0.495000X-0.745000X-0.495000X0.745000X-0.495000X0.745000X0.495000X0*%
%ADD49C,0.800000*%
%ADD50C,1.000000*%
G04 APERTURE END LIST*
D10*
X190619412Y-128063330D02*
X190769726Y-128072353D01*
X190769726Y-128072353D02*
X190999708Y-128010729D01*
X190999708Y-128010729D02*
X191079376Y-127940083D01*
X191079376Y-127940083D02*
X191113048Y-127881762D01*
X191113048Y-127881762D02*
X191134395Y-127777444D01*
X191134395Y-127777444D02*
X191109746Y-127685451D01*
X191109746Y-127685451D02*
X191039100Y-127605783D01*
X191039100Y-127605783D02*
X190980779Y-127572111D01*
X190980779Y-127572111D02*
X190876461Y-127550764D01*
X190876461Y-127550764D02*
X190680150Y-127554067D01*
X190680150Y-127554067D02*
X190575833Y-127532720D01*
X190575833Y-127532720D02*
X190517512Y-127499048D01*
X190517512Y-127499048D02*
X190446866Y-127419380D01*
X190446866Y-127419380D02*
X190422216Y-127327387D01*
X190422216Y-127327387D02*
X190443563Y-127223069D01*
X190443563Y-127223069D02*
X190477235Y-127164748D01*
X190477235Y-127164748D02*
X190556903Y-127094102D01*
X190556903Y-127094102D02*
X190786886Y-127032478D01*
X190786886Y-127032478D02*
X190937200Y-127041501D01*
X191735652Y-127813534D02*
X191631334Y-127792187D01*
X191631334Y-127792187D02*
X191573013Y-127758515D01*
X191573013Y-127758515D02*
X191502367Y-127678847D01*
X191502367Y-127678847D02*
X191428419Y-127402868D01*
X191428419Y-127402868D02*
X191449766Y-127298550D01*
X191449766Y-127298550D02*
X191483437Y-127240229D01*
X191483437Y-127240229D02*
X191563106Y-127169583D01*
X191563106Y-127169583D02*
X191701095Y-127132609D01*
X191701095Y-127132609D02*
X191805413Y-127153956D01*
X191805413Y-127153956D02*
X191863734Y-127187628D01*
X191863734Y-127187628D02*
X191934380Y-127267296D01*
X191934380Y-127267296D02*
X192008328Y-127543275D01*
X192008328Y-127543275D02*
X191986981Y-127647592D01*
X191986981Y-127647592D02*
X191953309Y-127705914D01*
X191953309Y-127705914D02*
X191873641Y-127776559D01*
X191873641Y-127776559D02*
X191735652Y-127813534D01*
X192161060Y-127009362D02*
X192529032Y-126910764D01*
X192471595Y-127616338D02*
X192249750Y-126788402D01*
X192249750Y-126788402D02*
X192271097Y-126684084D01*
X192271097Y-126684084D02*
X192350766Y-126613438D01*
X192350766Y-126613438D02*
X192442759Y-126588789D01*
X193161543Y-127431467D02*
X193057225Y-127410120D01*
X193057225Y-127410120D02*
X192986579Y-127330452D01*
X192986579Y-127330452D02*
X192764734Y-126502516D01*
X193885162Y-127188275D02*
X193805494Y-127258921D01*
X193805494Y-127258921D02*
X193621508Y-127308220D01*
X193621508Y-127308220D02*
X193517190Y-127286873D01*
X193517190Y-127286873D02*
X193446544Y-127207205D01*
X193446544Y-127207205D02*
X193347947Y-126839233D01*
X193347947Y-126839233D02*
X193369294Y-126734915D01*
X193369294Y-126734915D02*
X193448962Y-126664269D01*
X193448962Y-126664269D02*
X193632948Y-126614971D01*
X193632948Y-126614971D02*
X193737265Y-126636318D01*
X193737265Y-126636318D02*
X193807911Y-126715986D01*
X193807911Y-126715986D02*
X193832561Y-126807979D01*
X193832561Y-126807979D02*
X193397245Y-127023219D01*
X195093395Y-126913829D02*
X194834576Y-125947903D01*
X195645353Y-126765932D02*
X195083488Y-126324897D01*
X195386534Y-125800006D02*
X194982473Y-126499861D01*
X196414968Y-126510416D02*
X196335300Y-126581062D01*
X196335300Y-126581062D02*
X196151314Y-126630360D01*
X196151314Y-126630360D02*
X196046996Y-126609013D01*
X196046996Y-126609013D02*
X195976350Y-126529345D01*
X195976350Y-126529345D02*
X195877753Y-126161373D01*
X195877753Y-126161373D02*
X195899100Y-126057056D01*
X195899100Y-126057056D02*
X195978768Y-125986410D01*
X195978768Y-125986410D02*
X196162754Y-125937111D01*
X196162754Y-125937111D02*
X196267071Y-125958458D01*
X196267071Y-125958458D02*
X196337717Y-126038126D01*
X196337717Y-126038126D02*
X196362367Y-126130119D01*
X196362367Y-126130119D02*
X195927052Y-126345359D01*
X196622719Y-125813864D02*
X197025247Y-126396191D01*
X197082683Y-125690617D02*
X197025247Y-126396191D01*
X197025247Y-126396191D02*
X196994878Y-126650823D01*
X196994878Y-126650823D02*
X196961206Y-126709144D01*
X196961206Y-126709144D02*
X196881538Y-126779790D01*
X197623201Y-126235969D02*
X197364382Y-125270044D01*
X197462980Y-125638015D02*
X197542648Y-125567369D01*
X197542648Y-125567369D02*
X197726634Y-125518071D01*
X197726634Y-125518071D02*
X197830952Y-125539418D01*
X197830952Y-125539418D02*
X197889273Y-125573089D01*
X197889273Y-125573089D02*
X197959919Y-125652758D01*
X197959919Y-125652758D02*
X198033867Y-125928736D01*
X198033867Y-125928736D02*
X198012520Y-126033054D01*
X198012520Y-126033054D02*
X197978848Y-126091375D01*
X197978848Y-126091375D02*
X197899180Y-126162021D01*
X197899180Y-126162021D02*
X197715194Y-126211320D01*
X197715194Y-126211320D02*
X197610877Y-126189973D01*
X198635124Y-125964826D02*
X198530806Y-125943479D01*
X198530806Y-125943479D02*
X198472485Y-125909807D01*
X198472485Y-125909807D02*
X198401839Y-125830139D01*
X198401839Y-125830139D02*
X198327891Y-125554160D01*
X198327891Y-125554160D02*
X198349238Y-125449842D01*
X198349238Y-125449842D02*
X198382909Y-125391521D01*
X198382909Y-125391521D02*
X198462578Y-125320875D01*
X198462578Y-125320875D02*
X198600567Y-125283901D01*
X198600567Y-125283901D02*
X198704885Y-125305248D01*
X198704885Y-125305248D02*
X198763206Y-125338920D01*
X198763206Y-125338920D02*
X198833852Y-125418588D01*
X198833852Y-125418588D02*
X198907800Y-125694567D01*
X198907800Y-125694567D02*
X198886453Y-125798884D01*
X198886453Y-125798884D02*
X198852781Y-125857206D01*
X198852781Y-125857206D02*
X198773113Y-125927851D01*
X198773113Y-125927851D02*
X198635124Y-125964826D01*
X199785035Y-125656708D02*
X199649464Y-125150747D01*
X199649464Y-125150747D02*
X199578818Y-125071078D01*
X199578818Y-125071078D02*
X199474500Y-125049731D01*
X199474500Y-125049731D02*
X199290514Y-125099030D01*
X199290514Y-125099030D02*
X199210846Y-125169676D01*
X199772711Y-125610711D02*
X199693043Y-125681357D01*
X199693043Y-125681357D02*
X199463060Y-125742981D01*
X199463060Y-125742981D02*
X199358743Y-125721634D01*
X199358743Y-125721634D02*
X199288097Y-125641965D01*
X199288097Y-125641965D02*
X199263447Y-125549973D01*
X199263447Y-125549973D02*
X199284794Y-125445655D01*
X199284794Y-125445655D02*
X199364462Y-125375009D01*
X199364462Y-125375009D02*
X199594445Y-125313385D01*
X199594445Y-125313385D02*
X199674113Y-125242739D01*
X200245000Y-125533460D02*
X200072454Y-124889510D01*
X200121753Y-125073496D02*
X200143100Y-124969178D01*
X200143100Y-124969178D02*
X200176772Y-124910857D01*
X200176772Y-124910857D02*
X200256440Y-124840211D01*
X200256440Y-124840211D02*
X200348433Y-124815562D01*
X201256923Y-125262317D02*
X200998104Y-124296391D01*
X201244598Y-125216320D02*
X201164930Y-125286966D01*
X201164930Y-125286966D02*
X200980944Y-125336265D01*
X200980944Y-125336265D02*
X200876626Y-125314918D01*
X200876626Y-125314918D02*
X200818305Y-125281246D01*
X200818305Y-125281246D02*
X200747659Y-125201578D01*
X200747659Y-125201578D02*
X200673711Y-124925599D01*
X200673711Y-124925599D02*
X200695058Y-124821281D01*
X200695058Y-124821281D02*
X200728730Y-124762960D01*
X200728730Y-124762960D02*
X200808398Y-124692314D01*
X200808398Y-124692314D02*
X200992384Y-124643016D01*
X200992384Y-124643016D02*
X201096702Y-124664363D01*
X202188292Y-124322573D02*
X202590821Y-124904900D01*
X202590821Y-124904900D02*
X202648257Y-124199326D01*
X203430197Y-123989805D02*
X203602743Y-124633756D01*
X203101617Y-123683457D02*
X203056506Y-124435028D01*
X203056506Y-124435028D02*
X203654460Y-124274807D01*
X204084055Y-124406191D02*
X204142376Y-124439863D01*
X204142376Y-124439863D02*
X204108704Y-124498184D01*
X204108704Y-124498184D02*
X204050383Y-124464512D01*
X204050383Y-124464512D02*
X204084055Y-124406191D01*
X204084055Y-124406191D02*
X204108704Y-124498184D01*
X204493836Y-123359712D02*
X204585828Y-123335063D01*
X204585828Y-123335063D02*
X204690146Y-123356410D01*
X204690146Y-123356410D02*
X204748467Y-123390082D01*
X204748467Y-123390082D02*
X204819113Y-123469750D01*
X204819113Y-123469750D02*
X204914409Y-123641411D01*
X204914409Y-123641411D02*
X204976032Y-123871393D01*
X204976032Y-123871393D02*
X204979335Y-124067704D01*
X204979335Y-124067704D02*
X204957987Y-124172022D01*
X204957987Y-124172022D02*
X204924316Y-124230343D01*
X204924316Y-124230343D02*
X204844648Y-124300989D01*
X204844648Y-124300989D02*
X204752655Y-124325638D01*
X204752655Y-124325638D02*
X204648337Y-124304291D01*
X204648337Y-124304291D02*
X204590016Y-124270619D01*
X204590016Y-124270619D02*
X204519370Y-124190951D01*
X204519370Y-124190951D02*
X204424075Y-124019290D01*
X204424075Y-124019290D02*
X204362451Y-123789308D01*
X204362451Y-123789308D02*
X204359149Y-123592997D01*
X204359149Y-123592997D02*
X204380496Y-123488679D01*
X204380496Y-123488679D02*
X204414167Y-123430358D01*
X204414167Y-123430358D02*
X204493836Y-123359712D01*
X206224542Y-123931247D02*
X205965723Y-122965321D01*
X206064321Y-123333293D02*
X206143989Y-123262647D01*
X206143989Y-123262647D02*
X206327975Y-123213348D01*
X206327975Y-123213348D02*
X206432292Y-123234695D01*
X206432292Y-123234695D02*
X206490613Y-123268367D01*
X206490613Y-123268367D02*
X206561259Y-123348035D01*
X206561259Y-123348035D02*
X206635208Y-123624014D01*
X206635208Y-123624014D02*
X206613861Y-123728332D01*
X206613861Y-123728332D02*
X206580189Y-123786653D01*
X206580189Y-123786653D02*
X206500521Y-123857299D01*
X206500521Y-123857299D02*
X206316535Y-123906598D01*
X206316535Y-123906598D02*
X206212217Y-123885251D01*
X206833936Y-123077776D02*
X207236464Y-123660103D01*
X207293901Y-122954529D02*
X207236464Y-123660103D01*
X207236464Y-123660103D02*
X207206095Y-123914735D01*
X207206095Y-123914735D02*
X207172423Y-123973056D01*
X207172423Y-123973056D02*
X207092755Y-124043702D01*
X208570362Y-123302686D02*
X208311543Y-122336761D01*
X208563757Y-122910065D02*
X208938334Y-123204089D01*
X208765788Y-122560138D02*
X208496414Y-123026708D01*
X209707949Y-122948572D02*
X209628281Y-123019218D01*
X209628281Y-123019218D02*
X209444295Y-123068517D01*
X209444295Y-123068517D02*
X209339978Y-123047170D01*
X209339978Y-123047170D02*
X209269332Y-122967502D01*
X209269332Y-122967502D02*
X209170734Y-122599530D01*
X209170734Y-122599530D02*
X209192081Y-122495212D01*
X209192081Y-122495212D02*
X209271749Y-122424566D01*
X209271749Y-122424566D02*
X209455735Y-122375267D01*
X209455735Y-122375267D02*
X209560053Y-122396614D01*
X209560053Y-122396614D02*
X209630699Y-122476283D01*
X209630699Y-122476283D02*
X209655348Y-122568276D01*
X209655348Y-122568276D02*
X209220033Y-122783516D01*
X210535886Y-122726727D02*
X210456218Y-122797373D01*
X210456218Y-122797373D02*
X210272232Y-122846672D01*
X210272232Y-122846672D02*
X210167914Y-122825325D01*
X210167914Y-122825325D02*
X210097268Y-122745657D01*
X210097268Y-122745657D02*
X209998671Y-122377685D01*
X209998671Y-122377685D02*
X210020018Y-122273367D01*
X210020018Y-122273367D02*
X210099686Y-122202721D01*
X210099686Y-122202721D02*
X210283672Y-122153422D01*
X210283672Y-122153422D02*
X210387989Y-122174769D01*
X210387989Y-122174769D02*
X210458635Y-122254438D01*
X210458635Y-122254438D02*
X210483285Y-122346431D01*
X210483285Y-122346431D02*
X210047969Y-122561671D01*
X211008176Y-122649476D02*
X210749356Y-121683551D01*
X210847954Y-122051522D02*
X210927622Y-121980876D01*
X210927622Y-121980876D02*
X211111608Y-121931578D01*
X211111608Y-121931578D02*
X211215926Y-121952925D01*
X211215926Y-121952925D02*
X211274247Y-121986596D01*
X211274247Y-121986596D02*
X211344893Y-122066265D01*
X211344893Y-122066265D02*
X211418841Y-122342243D01*
X211418841Y-122342243D02*
X211397494Y-122446561D01*
X211397494Y-122446561D02*
X211363823Y-122504882D01*
X211363823Y-122504882D02*
X211284154Y-122575528D01*
X211284154Y-122575528D02*
X211100168Y-122624827D01*
X211100168Y-122624827D02*
X210995851Y-122603480D01*
X211882108Y-122415307D02*
X211709562Y-121771356D01*
X211734212Y-121863349D02*
X211767884Y-121805028D01*
X211767884Y-121805028D02*
X211847552Y-121734382D01*
X211847552Y-121734382D02*
X211985541Y-121697408D01*
X211985541Y-121697408D02*
X212089859Y-121718755D01*
X212089859Y-121718755D02*
X212160505Y-121798423D01*
X212160505Y-121798423D02*
X212296077Y-122304384D01*
X212160505Y-121798423D02*
X212181852Y-121694105D01*
X212181852Y-121694105D02*
X212261520Y-121623460D01*
X212261520Y-121623460D02*
X212399509Y-121586485D01*
X212399509Y-121586485D02*
X212503827Y-121607832D01*
X212503827Y-121607832D02*
X212574473Y-121687501D01*
X212574473Y-121687501D02*
X212710045Y-122193462D01*
X213583977Y-121959292D02*
X213448406Y-121453331D01*
X213448406Y-121453331D02*
X213377760Y-121373663D01*
X213377760Y-121373663D02*
X213273442Y-121352316D01*
X213273442Y-121352316D02*
X213089456Y-121401615D01*
X213089456Y-121401615D02*
X213009788Y-121472261D01*
X213571653Y-121913296D02*
X213491985Y-121983942D01*
X213491985Y-121983942D02*
X213262002Y-122045565D01*
X213262002Y-122045565D02*
X213157685Y-122024218D01*
X213157685Y-122024218D02*
X213087039Y-121944550D01*
X213087039Y-121944550D02*
X213062389Y-121852557D01*
X213062389Y-121852557D02*
X213083736Y-121748239D01*
X213083736Y-121748239D02*
X213163404Y-121677594D01*
X213163404Y-121677594D02*
X213393387Y-121615970D01*
X213393387Y-121615970D02*
X213473055Y-121545324D01*
X213871396Y-121192095D02*
X214043942Y-121836045D01*
X213896046Y-121284088D02*
X213929717Y-121225766D01*
X213929717Y-121225766D02*
X214009386Y-121155120D01*
X214009386Y-121155120D02*
X214147375Y-121118146D01*
X214147375Y-121118146D02*
X214251693Y-121139493D01*
X214251693Y-121139493D02*
X214322339Y-121219162D01*
X214322339Y-121219162D02*
X214457910Y-121725123D01*
X214893226Y-121509883D02*
X214951547Y-121543554D01*
X214951547Y-121543554D02*
X214917875Y-121601875D01*
X214917875Y-121601875D02*
X214859554Y-121568204D01*
X214859554Y-121568204D02*
X214893226Y-121509883D01*
X214893226Y-121509883D02*
X214917875Y-121601875D01*
X215285847Y-121503278D02*
X215619262Y-120723755D01*
X215113300Y-120859327D02*
X215791808Y-121367706D01*
X215895241Y-120649807D02*
X216297769Y-121232134D01*
X216355205Y-120526560D02*
X216297769Y-121232134D01*
X216297769Y-121232134D02*
X216267400Y-121486766D01*
X216267400Y-121486766D02*
X216233728Y-121545087D01*
X216233728Y-121545087D02*
X216154060Y-121615733D01*
X216631184Y-120452612D02*
X217137145Y-120317040D01*
X217137145Y-120317040D02*
X216803730Y-121096562D01*
X216803730Y-121096562D02*
X217309692Y-120960990D01*
X149277619Y-129506819D02*
X149277619Y-128506819D01*
X149706190Y-129506819D02*
X149706190Y-128983009D01*
X149706190Y-128983009D02*
X149658571Y-128887771D01*
X149658571Y-128887771D02*
X149563333Y-128840152D01*
X149563333Y-128840152D02*
X149420476Y-128840152D01*
X149420476Y-128840152D02*
X149325238Y-128887771D01*
X149325238Y-128887771D02*
X149277619Y-128935390D01*
X150039524Y-128840152D02*
X150420476Y-128840152D01*
X150182381Y-128506819D02*
X150182381Y-129363961D01*
X150182381Y-129363961D02*
X150230000Y-129459200D01*
X150230000Y-129459200D02*
X150325238Y-129506819D01*
X150325238Y-129506819D02*
X150420476Y-129506819D01*
X150610953Y-128840152D02*
X150991905Y-128840152D01*
X150753810Y-128506819D02*
X150753810Y-129363961D01*
X150753810Y-129363961D02*
X150801429Y-129459200D01*
X150801429Y-129459200D02*
X150896667Y-129506819D01*
X150896667Y-129506819D02*
X150991905Y-129506819D01*
X151325239Y-128840152D02*
X151325239Y-129840152D01*
X151325239Y-128887771D02*
X151420477Y-128840152D01*
X151420477Y-128840152D02*
X151610953Y-128840152D01*
X151610953Y-128840152D02*
X151706191Y-128887771D01*
X151706191Y-128887771D02*
X151753810Y-128935390D01*
X151753810Y-128935390D02*
X151801429Y-129030628D01*
X151801429Y-129030628D02*
X151801429Y-129316342D01*
X151801429Y-129316342D02*
X151753810Y-129411580D01*
X151753810Y-129411580D02*
X151706191Y-129459200D01*
X151706191Y-129459200D02*
X151610953Y-129506819D01*
X151610953Y-129506819D02*
X151420477Y-129506819D01*
X151420477Y-129506819D02*
X151325239Y-129459200D01*
X152182382Y-129459200D02*
X152277620Y-129506819D01*
X152277620Y-129506819D02*
X152468096Y-129506819D01*
X152468096Y-129506819D02*
X152563334Y-129459200D01*
X152563334Y-129459200D02*
X152610953Y-129363961D01*
X152610953Y-129363961D02*
X152610953Y-129316342D01*
X152610953Y-129316342D02*
X152563334Y-129221104D01*
X152563334Y-129221104D02*
X152468096Y-129173485D01*
X152468096Y-129173485D02*
X152325239Y-129173485D01*
X152325239Y-129173485D02*
X152230001Y-129125866D01*
X152230001Y-129125866D02*
X152182382Y-129030628D01*
X152182382Y-129030628D02*
X152182382Y-128983009D01*
X152182382Y-128983009D02*
X152230001Y-128887771D01*
X152230001Y-128887771D02*
X152325239Y-128840152D01*
X152325239Y-128840152D02*
X152468096Y-128840152D01*
X152468096Y-128840152D02*
X152563334Y-128887771D01*
X153039525Y-129411580D02*
X153087144Y-129459200D01*
X153087144Y-129459200D02*
X153039525Y-129506819D01*
X153039525Y-129506819D02*
X152991906Y-129459200D01*
X152991906Y-129459200D02*
X153039525Y-129411580D01*
X153039525Y-129411580D02*
X153039525Y-129506819D01*
X153039525Y-128887771D02*
X153087144Y-128935390D01*
X153087144Y-128935390D02*
X153039525Y-128983009D01*
X153039525Y-128983009D02*
X152991906Y-128935390D01*
X152991906Y-128935390D02*
X153039525Y-128887771D01*
X153039525Y-128887771D02*
X153039525Y-128983009D01*
X154230000Y-128459200D02*
X153372858Y-129744914D01*
X155277619Y-128459200D02*
X154420477Y-129744914D01*
X155515715Y-128840152D02*
X155706191Y-129506819D01*
X155706191Y-129506819D02*
X155896667Y-129030628D01*
X155896667Y-129030628D02*
X156087143Y-129506819D01*
X156087143Y-129506819D02*
X156277619Y-128840152D01*
X156563334Y-128840152D02*
X156753810Y-129506819D01*
X156753810Y-129506819D02*
X156944286Y-129030628D01*
X156944286Y-129030628D02*
X157134762Y-129506819D01*
X157134762Y-129506819D02*
X157325238Y-128840152D01*
X157610953Y-128840152D02*
X157801429Y-129506819D01*
X157801429Y-129506819D02*
X157991905Y-129030628D01*
X157991905Y-129030628D02*
X158182381Y-129506819D01*
X158182381Y-129506819D02*
X158372857Y-128840152D01*
X158753810Y-129411580D02*
X158801429Y-129459200D01*
X158801429Y-129459200D02*
X158753810Y-129506819D01*
X158753810Y-129506819D02*
X158706191Y-129459200D01*
X158706191Y-129459200D02*
X158753810Y-129411580D01*
X158753810Y-129411580D02*
X158753810Y-129506819D01*
X159230000Y-129506819D02*
X159230000Y-128506819D01*
X159325238Y-129125866D02*
X159610952Y-129506819D01*
X159610952Y-128840152D02*
X159230000Y-129221104D01*
X160420476Y-129459200D02*
X160325238Y-129506819D01*
X160325238Y-129506819D02*
X160134762Y-129506819D01*
X160134762Y-129506819D02*
X160039524Y-129459200D01*
X160039524Y-129459200D02*
X159991905Y-129363961D01*
X159991905Y-129363961D02*
X159991905Y-128983009D01*
X159991905Y-128983009D02*
X160039524Y-128887771D01*
X160039524Y-128887771D02*
X160134762Y-128840152D01*
X160134762Y-128840152D02*
X160325238Y-128840152D01*
X160325238Y-128840152D02*
X160420476Y-128887771D01*
X160420476Y-128887771D02*
X160468095Y-128983009D01*
X160468095Y-128983009D02*
X160468095Y-129078247D01*
X160468095Y-129078247D02*
X159991905Y-129173485D01*
X161277619Y-129459200D02*
X161182381Y-129506819D01*
X161182381Y-129506819D02*
X160991905Y-129506819D01*
X160991905Y-129506819D02*
X160896667Y-129459200D01*
X160896667Y-129459200D02*
X160849048Y-129363961D01*
X160849048Y-129363961D02*
X160849048Y-128983009D01*
X160849048Y-128983009D02*
X160896667Y-128887771D01*
X160896667Y-128887771D02*
X160991905Y-128840152D01*
X160991905Y-128840152D02*
X161182381Y-128840152D01*
X161182381Y-128840152D02*
X161277619Y-128887771D01*
X161277619Y-128887771D02*
X161325238Y-128983009D01*
X161325238Y-128983009D02*
X161325238Y-129078247D01*
X161325238Y-129078247D02*
X160849048Y-129173485D01*
X161753810Y-129506819D02*
X161753810Y-128506819D01*
X161753810Y-128887771D02*
X161849048Y-128840152D01*
X161849048Y-128840152D02*
X162039524Y-128840152D01*
X162039524Y-128840152D02*
X162134762Y-128887771D01*
X162134762Y-128887771D02*
X162182381Y-128935390D01*
X162182381Y-128935390D02*
X162230000Y-129030628D01*
X162230000Y-129030628D02*
X162230000Y-129316342D01*
X162230000Y-129316342D02*
X162182381Y-129411580D01*
X162182381Y-129411580D02*
X162134762Y-129459200D01*
X162134762Y-129459200D02*
X162039524Y-129506819D01*
X162039524Y-129506819D02*
X161849048Y-129506819D01*
X161849048Y-129506819D02*
X161753810Y-129459200D01*
X162658572Y-129506819D02*
X162658572Y-128840152D01*
X162658572Y-128935390D02*
X162706191Y-128887771D01*
X162706191Y-128887771D02*
X162801429Y-128840152D01*
X162801429Y-128840152D02*
X162944286Y-128840152D01*
X162944286Y-128840152D02*
X163039524Y-128887771D01*
X163039524Y-128887771D02*
X163087143Y-128983009D01*
X163087143Y-128983009D02*
X163087143Y-129506819D01*
X163087143Y-128983009D02*
X163134762Y-128887771D01*
X163134762Y-128887771D02*
X163230000Y-128840152D01*
X163230000Y-128840152D02*
X163372857Y-128840152D01*
X163372857Y-128840152D02*
X163468096Y-128887771D01*
X163468096Y-128887771D02*
X163515715Y-128983009D01*
X163515715Y-128983009D02*
X163515715Y-129506819D01*
X164420476Y-129506819D02*
X164420476Y-128983009D01*
X164420476Y-128983009D02*
X164372857Y-128887771D01*
X164372857Y-128887771D02*
X164277619Y-128840152D01*
X164277619Y-128840152D02*
X164087143Y-128840152D01*
X164087143Y-128840152D02*
X163991905Y-128887771D01*
X164420476Y-129459200D02*
X164325238Y-129506819D01*
X164325238Y-129506819D02*
X164087143Y-129506819D01*
X164087143Y-129506819D02*
X163991905Y-129459200D01*
X163991905Y-129459200D02*
X163944286Y-129363961D01*
X163944286Y-129363961D02*
X163944286Y-129268723D01*
X163944286Y-129268723D02*
X163991905Y-129173485D01*
X163991905Y-129173485D02*
X164087143Y-129125866D01*
X164087143Y-129125866D02*
X164325238Y-129125866D01*
X164325238Y-129125866D02*
X164420476Y-129078247D01*
X164896667Y-128840152D02*
X164896667Y-129506819D01*
X164896667Y-128935390D02*
X164944286Y-128887771D01*
X164944286Y-128887771D02*
X165039524Y-128840152D01*
X165039524Y-128840152D02*
X165182381Y-128840152D01*
X165182381Y-128840152D02*
X165277619Y-128887771D01*
X165277619Y-128887771D02*
X165325238Y-128983009D01*
X165325238Y-128983009D02*
X165325238Y-129506819D01*
X165801429Y-129411580D02*
X165849048Y-129459200D01*
X165849048Y-129459200D02*
X165801429Y-129506819D01*
X165801429Y-129506819D02*
X165753810Y-129459200D01*
X165753810Y-129459200D02*
X165801429Y-129411580D01*
X165801429Y-129411580D02*
X165801429Y-129506819D01*
X166182381Y-129506819D02*
X166706190Y-128840152D01*
X166182381Y-128840152D02*
X166706190Y-129506819D01*
X166991905Y-128840152D02*
X167230000Y-129506819D01*
X167468095Y-128840152D02*
X167230000Y-129506819D01*
X167230000Y-129506819D02*
X167134762Y-129744914D01*
X167134762Y-129744914D02*
X167087143Y-129792533D01*
X167087143Y-129792533D02*
X166991905Y-129840152D01*
X167753810Y-128840152D02*
X168277619Y-128840152D01*
X168277619Y-128840152D02*
X167753810Y-129506819D01*
X167753810Y-129506819D02*
X168277619Y-129506819D01*
X105137190Y-63003247D02*
X105251476Y-63041342D01*
X105251476Y-63041342D02*
X105289571Y-63079438D01*
X105289571Y-63079438D02*
X105327667Y-63155628D01*
X105327667Y-63155628D02*
X105327667Y-63269914D01*
X105327667Y-63269914D02*
X105289571Y-63346104D01*
X105289571Y-63346104D02*
X105251476Y-63384200D01*
X105251476Y-63384200D02*
X105175286Y-63422295D01*
X105175286Y-63422295D02*
X104870524Y-63422295D01*
X104870524Y-63422295D02*
X104870524Y-62622295D01*
X104870524Y-62622295D02*
X105137190Y-62622295D01*
X105137190Y-62622295D02*
X105213381Y-62660390D01*
X105213381Y-62660390D02*
X105251476Y-62698485D01*
X105251476Y-62698485D02*
X105289571Y-62774676D01*
X105289571Y-62774676D02*
X105289571Y-62850866D01*
X105289571Y-62850866D02*
X105251476Y-62927057D01*
X105251476Y-62927057D02*
X105213381Y-62965152D01*
X105213381Y-62965152D02*
X105137190Y-63003247D01*
X105137190Y-63003247D02*
X104870524Y-63003247D01*
X106089571Y-63422295D02*
X105632428Y-63422295D01*
X105861000Y-63422295D02*
X105861000Y-62622295D01*
X105861000Y-62622295D02*
X105784809Y-62736580D01*
X105784809Y-62736580D02*
X105708619Y-62812771D01*
X105708619Y-62812771D02*
X105632428Y-62850866D01*
X105194333Y-57923247D02*
X104927667Y-57923247D01*
X104927667Y-58342295D02*
X104927667Y-57542295D01*
X104927667Y-57542295D02*
X105308619Y-57542295D01*
X105956238Y-57542295D02*
X105803857Y-57542295D01*
X105803857Y-57542295D02*
X105727666Y-57580390D01*
X105727666Y-57580390D02*
X105689571Y-57618485D01*
X105689571Y-57618485D02*
X105613381Y-57732771D01*
X105613381Y-57732771D02*
X105575285Y-57885152D01*
X105575285Y-57885152D02*
X105575285Y-58189914D01*
X105575285Y-58189914D02*
X105613381Y-58266104D01*
X105613381Y-58266104D02*
X105651476Y-58304200D01*
X105651476Y-58304200D02*
X105727666Y-58342295D01*
X105727666Y-58342295D02*
X105880047Y-58342295D01*
X105880047Y-58342295D02*
X105956238Y-58304200D01*
X105956238Y-58304200D02*
X105994333Y-58266104D01*
X105994333Y-58266104D02*
X106032428Y-58189914D01*
X106032428Y-58189914D02*
X106032428Y-57999438D01*
X106032428Y-57999438D02*
X105994333Y-57923247D01*
X105994333Y-57923247D02*
X105956238Y-57885152D01*
X105956238Y-57885152D02*
X105880047Y-57847057D01*
X105880047Y-57847057D02*
X105727666Y-57847057D01*
X105727666Y-57847057D02*
X105651476Y-57885152D01*
X105651476Y-57885152D02*
X105613381Y-57923247D01*
X105613381Y-57923247D02*
X105575285Y-57999438D01*
X104908619Y-43102295D02*
X104641952Y-42721342D01*
X104451476Y-43102295D02*
X104451476Y-42302295D01*
X104451476Y-42302295D02*
X104756238Y-42302295D01*
X104756238Y-42302295D02*
X104832428Y-42340390D01*
X104832428Y-42340390D02*
X104870523Y-42378485D01*
X104870523Y-42378485D02*
X104908619Y-42454676D01*
X104908619Y-42454676D02*
X104908619Y-42568961D01*
X104908619Y-42568961D02*
X104870523Y-42645152D01*
X104870523Y-42645152D02*
X104832428Y-42683247D01*
X104832428Y-42683247D02*
X104756238Y-42721342D01*
X104756238Y-42721342D02*
X104451476Y-42721342D01*
X105213380Y-42873723D02*
X105594333Y-42873723D01*
X105137190Y-43102295D02*
X105403857Y-42302295D01*
X105403857Y-42302295D02*
X105670523Y-43102295D01*
X105860999Y-42302295D02*
X106051475Y-43102295D01*
X106051475Y-43102295D02*
X106203856Y-42530866D01*
X106203856Y-42530866D02*
X106356237Y-43102295D01*
X106356237Y-43102295D02*
X106546714Y-42302295D01*
X104851476Y-44880390D02*
X104775286Y-44842295D01*
X104775286Y-44842295D02*
X104661000Y-44842295D01*
X104661000Y-44842295D02*
X104546714Y-44880390D01*
X104546714Y-44880390D02*
X104470524Y-44956580D01*
X104470524Y-44956580D02*
X104432429Y-45032771D01*
X104432429Y-45032771D02*
X104394333Y-45185152D01*
X104394333Y-45185152D02*
X104394333Y-45299438D01*
X104394333Y-45299438D02*
X104432429Y-45451819D01*
X104432429Y-45451819D02*
X104470524Y-45528009D01*
X104470524Y-45528009D02*
X104546714Y-45604200D01*
X104546714Y-45604200D02*
X104661000Y-45642295D01*
X104661000Y-45642295D02*
X104737191Y-45642295D01*
X104737191Y-45642295D02*
X104851476Y-45604200D01*
X104851476Y-45604200D02*
X104889572Y-45566104D01*
X104889572Y-45566104D02*
X104889572Y-45299438D01*
X104889572Y-45299438D02*
X104737191Y-45299438D01*
X105232429Y-45642295D02*
X105232429Y-44842295D01*
X105232429Y-44842295D02*
X105689572Y-45642295D01*
X105689572Y-45642295D02*
X105689572Y-44842295D01*
X106070524Y-45642295D02*
X106070524Y-44842295D01*
X106070524Y-44842295D02*
X106261000Y-44842295D01*
X106261000Y-44842295D02*
X106375286Y-44880390D01*
X106375286Y-44880390D02*
X106451476Y-44956580D01*
X106451476Y-44956580D02*
X106489571Y-45032771D01*
X106489571Y-45032771D02*
X106527667Y-45185152D01*
X106527667Y-45185152D02*
X106527667Y-45299438D01*
X106527667Y-45299438D02*
X106489571Y-45451819D01*
X106489571Y-45451819D02*
X106451476Y-45528009D01*
X106451476Y-45528009D02*
X106375286Y-45604200D01*
X106375286Y-45604200D02*
X106261000Y-45642295D01*
X106261000Y-45642295D02*
X106070524Y-45642295D01*
X105194333Y-55383247D02*
X104927667Y-55383247D01*
X104927667Y-55802295D02*
X104927667Y-55002295D01*
X104927667Y-55002295D02*
X105308619Y-55002295D01*
X105994333Y-55002295D02*
X105613381Y-55002295D01*
X105613381Y-55002295D02*
X105575285Y-55383247D01*
X105575285Y-55383247D02*
X105613381Y-55345152D01*
X105613381Y-55345152D02*
X105689571Y-55307057D01*
X105689571Y-55307057D02*
X105880047Y-55307057D01*
X105880047Y-55307057D02*
X105956238Y-55345152D01*
X105956238Y-55345152D02*
X105994333Y-55383247D01*
X105994333Y-55383247D02*
X106032428Y-55459438D01*
X106032428Y-55459438D02*
X106032428Y-55649914D01*
X106032428Y-55649914D02*
X105994333Y-55726104D01*
X105994333Y-55726104D02*
X105956238Y-55764200D01*
X105956238Y-55764200D02*
X105880047Y-55802295D01*
X105880047Y-55802295D02*
X105689571Y-55802295D01*
X105689571Y-55802295D02*
X105613381Y-55764200D01*
X105613381Y-55764200D02*
X105575285Y-55726104D01*
X105199786Y-48114200D02*
X105314072Y-48152295D01*
X105314072Y-48152295D02*
X105504548Y-48152295D01*
X105504548Y-48152295D02*
X105580739Y-48114200D01*
X105580739Y-48114200D02*
X105618834Y-48076104D01*
X105618834Y-48076104D02*
X105656929Y-47999914D01*
X105656929Y-47999914D02*
X105656929Y-47923723D01*
X105656929Y-47923723D02*
X105618834Y-47847533D01*
X105618834Y-47847533D02*
X105580739Y-47809438D01*
X105580739Y-47809438D02*
X105504548Y-47771342D01*
X105504548Y-47771342D02*
X105352167Y-47733247D01*
X105352167Y-47733247D02*
X105275977Y-47695152D01*
X105275977Y-47695152D02*
X105237882Y-47657057D01*
X105237882Y-47657057D02*
X105199786Y-47580866D01*
X105199786Y-47580866D02*
X105199786Y-47504676D01*
X105199786Y-47504676D02*
X105237882Y-47428485D01*
X105237882Y-47428485D02*
X105275977Y-47390390D01*
X105275977Y-47390390D02*
X105352167Y-47352295D01*
X105352167Y-47352295D02*
X105542644Y-47352295D01*
X105542644Y-47352295D02*
X105656929Y-47390390D01*
X105885501Y-47352295D02*
X106342644Y-47352295D01*
X106114072Y-48152295D02*
X106114072Y-47352295D01*
X105137190Y-65543247D02*
X105251476Y-65581342D01*
X105251476Y-65581342D02*
X105289571Y-65619438D01*
X105289571Y-65619438D02*
X105327667Y-65695628D01*
X105327667Y-65695628D02*
X105327667Y-65809914D01*
X105327667Y-65809914D02*
X105289571Y-65886104D01*
X105289571Y-65886104D02*
X105251476Y-65924200D01*
X105251476Y-65924200D02*
X105175286Y-65962295D01*
X105175286Y-65962295D02*
X104870524Y-65962295D01*
X104870524Y-65962295D02*
X104870524Y-65162295D01*
X104870524Y-65162295D02*
X105137190Y-65162295D01*
X105137190Y-65162295D02*
X105213381Y-65200390D01*
X105213381Y-65200390D02*
X105251476Y-65238485D01*
X105251476Y-65238485D02*
X105289571Y-65314676D01*
X105289571Y-65314676D02*
X105289571Y-65390866D01*
X105289571Y-65390866D02*
X105251476Y-65467057D01*
X105251476Y-65467057D02*
X105213381Y-65505152D01*
X105213381Y-65505152D02*
X105137190Y-65543247D01*
X105137190Y-65543247D02*
X104870524Y-65543247D01*
X105594333Y-65162295D02*
X106089571Y-65162295D01*
X106089571Y-65162295D02*
X105822905Y-65467057D01*
X105822905Y-65467057D02*
X105937190Y-65467057D01*
X105937190Y-65467057D02*
X106013381Y-65505152D01*
X106013381Y-65505152D02*
X106051476Y-65543247D01*
X106051476Y-65543247D02*
X106089571Y-65619438D01*
X106089571Y-65619438D02*
X106089571Y-65809914D01*
X106089571Y-65809914D02*
X106051476Y-65886104D01*
X106051476Y-65886104D02*
X106013381Y-65924200D01*
X106013381Y-65924200D02*
X105937190Y-65962295D01*
X105937190Y-65962295D02*
X105708619Y-65962295D01*
X105708619Y-65962295D02*
X105632428Y-65924200D01*
X105632428Y-65924200D02*
X105594333Y-65886104D01*
X105137190Y-70623247D02*
X105251476Y-70661342D01*
X105251476Y-70661342D02*
X105289571Y-70699438D01*
X105289571Y-70699438D02*
X105327667Y-70775628D01*
X105327667Y-70775628D02*
X105327667Y-70889914D01*
X105327667Y-70889914D02*
X105289571Y-70966104D01*
X105289571Y-70966104D02*
X105251476Y-71004200D01*
X105251476Y-71004200D02*
X105175286Y-71042295D01*
X105175286Y-71042295D02*
X104870524Y-71042295D01*
X104870524Y-71042295D02*
X104870524Y-70242295D01*
X104870524Y-70242295D02*
X105137190Y-70242295D01*
X105137190Y-70242295D02*
X105213381Y-70280390D01*
X105213381Y-70280390D02*
X105251476Y-70318485D01*
X105251476Y-70318485D02*
X105289571Y-70394676D01*
X105289571Y-70394676D02*
X105289571Y-70470866D01*
X105289571Y-70470866D02*
X105251476Y-70547057D01*
X105251476Y-70547057D02*
X105213381Y-70585152D01*
X105213381Y-70585152D02*
X105137190Y-70623247D01*
X105137190Y-70623247D02*
X104870524Y-70623247D01*
X106013381Y-70242295D02*
X105861000Y-70242295D01*
X105861000Y-70242295D02*
X105784809Y-70280390D01*
X105784809Y-70280390D02*
X105746714Y-70318485D01*
X105746714Y-70318485D02*
X105670524Y-70432771D01*
X105670524Y-70432771D02*
X105632428Y-70585152D01*
X105632428Y-70585152D02*
X105632428Y-70889914D01*
X105632428Y-70889914D02*
X105670524Y-70966104D01*
X105670524Y-70966104D02*
X105708619Y-71004200D01*
X105708619Y-71004200D02*
X105784809Y-71042295D01*
X105784809Y-71042295D02*
X105937190Y-71042295D01*
X105937190Y-71042295D02*
X106013381Y-71004200D01*
X106013381Y-71004200D02*
X106051476Y-70966104D01*
X106051476Y-70966104D02*
X106089571Y-70889914D01*
X106089571Y-70889914D02*
X106089571Y-70699438D01*
X106089571Y-70699438D02*
X106051476Y-70623247D01*
X106051476Y-70623247D02*
X106013381Y-70585152D01*
X106013381Y-70585152D02*
X105937190Y-70547057D01*
X105937190Y-70547057D02*
X105784809Y-70547057D01*
X105784809Y-70547057D02*
X105708619Y-70585152D01*
X105708619Y-70585152D02*
X105670524Y-70623247D01*
X105670524Y-70623247D02*
X105632428Y-70699438D01*
X105194333Y-52843247D02*
X104927667Y-52843247D01*
X104927667Y-53262295D02*
X104927667Y-52462295D01*
X104927667Y-52462295D02*
X105308619Y-52462295D01*
X105956238Y-52728961D02*
X105956238Y-53262295D01*
X105765762Y-52424200D02*
X105575285Y-52995628D01*
X105575285Y-52995628D02*
X106070524Y-52995628D01*
X93948524Y-53262295D02*
X93948524Y-52462295D01*
X93948524Y-52462295D02*
X94139000Y-52462295D01*
X94139000Y-52462295D02*
X94253286Y-52500390D01*
X94253286Y-52500390D02*
X94329476Y-52576580D01*
X94329476Y-52576580D02*
X94367571Y-52652771D01*
X94367571Y-52652771D02*
X94405667Y-52805152D01*
X94405667Y-52805152D02*
X94405667Y-52919438D01*
X94405667Y-52919438D02*
X94367571Y-53071819D01*
X94367571Y-53071819D02*
X94329476Y-53148009D01*
X94329476Y-53148009D02*
X94253286Y-53224200D01*
X94253286Y-53224200D02*
X94139000Y-53262295D01*
X94139000Y-53262295D02*
X93948524Y-53262295D01*
X95167571Y-53262295D02*
X94710428Y-53262295D01*
X94939000Y-53262295D02*
X94939000Y-52462295D01*
X94939000Y-52462295D02*
X94862809Y-52576580D01*
X94862809Y-52576580D02*
X94786619Y-52652771D01*
X94786619Y-52652771D02*
X94710428Y-52690866D01*
X94405667Y-60806104D02*
X94367571Y-60844200D01*
X94367571Y-60844200D02*
X94253286Y-60882295D01*
X94253286Y-60882295D02*
X94177095Y-60882295D01*
X94177095Y-60882295D02*
X94062809Y-60844200D01*
X94062809Y-60844200D02*
X93986619Y-60768009D01*
X93986619Y-60768009D02*
X93948524Y-60691819D01*
X93948524Y-60691819D02*
X93910428Y-60539438D01*
X93910428Y-60539438D02*
X93910428Y-60425152D01*
X93910428Y-60425152D02*
X93948524Y-60272771D01*
X93948524Y-60272771D02*
X93986619Y-60196580D01*
X93986619Y-60196580D02*
X94062809Y-60120390D01*
X94062809Y-60120390D02*
X94177095Y-60082295D01*
X94177095Y-60082295D02*
X94253286Y-60082295D01*
X94253286Y-60082295D02*
X94367571Y-60120390D01*
X94367571Y-60120390D02*
X94405667Y-60158485D01*
X95091381Y-60082295D02*
X94939000Y-60082295D01*
X94939000Y-60082295D02*
X94862809Y-60120390D01*
X94862809Y-60120390D02*
X94824714Y-60158485D01*
X94824714Y-60158485D02*
X94748524Y-60272771D01*
X94748524Y-60272771D02*
X94710428Y-60425152D01*
X94710428Y-60425152D02*
X94710428Y-60729914D01*
X94710428Y-60729914D02*
X94748524Y-60806104D01*
X94748524Y-60806104D02*
X94786619Y-60844200D01*
X94786619Y-60844200D02*
X94862809Y-60882295D01*
X94862809Y-60882295D02*
X95015190Y-60882295D01*
X95015190Y-60882295D02*
X95091381Y-60844200D01*
X95091381Y-60844200D02*
X95129476Y-60806104D01*
X95129476Y-60806104D02*
X95167571Y-60729914D01*
X95167571Y-60729914D02*
X95167571Y-60539438D01*
X95167571Y-60539438D02*
X95129476Y-60463247D01*
X95129476Y-60463247D02*
X95091381Y-60425152D01*
X95091381Y-60425152D02*
X95015190Y-60387057D01*
X95015190Y-60387057D02*
X94862809Y-60387057D01*
X94862809Y-60387057D02*
X94786619Y-60425152D01*
X94786619Y-60425152D02*
X94748524Y-60463247D01*
X94748524Y-60463247D02*
X94710428Y-60539438D01*
X105137190Y-68083247D02*
X105251476Y-68121342D01*
X105251476Y-68121342D02*
X105289571Y-68159438D01*
X105289571Y-68159438D02*
X105327667Y-68235628D01*
X105327667Y-68235628D02*
X105327667Y-68349914D01*
X105327667Y-68349914D02*
X105289571Y-68426104D01*
X105289571Y-68426104D02*
X105251476Y-68464200D01*
X105251476Y-68464200D02*
X105175286Y-68502295D01*
X105175286Y-68502295D02*
X104870524Y-68502295D01*
X104870524Y-68502295D02*
X104870524Y-67702295D01*
X104870524Y-67702295D02*
X105137190Y-67702295D01*
X105137190Y-67702295D02*
X105213381Y-67740390D01*
X105213381Y-67740390D02*
X105251476Y-67778485D01*
X105251476Y-67778485D02*
X105289571Y-67854676D01*
X105289571Y-67854676D02*
X105289571Y-67930866D01*
X105289571Y-67930866D02*
X105251476Y-68007057D01*
X105251476Y-68007057D02*
X105213381Y-68045152D01*
X105213381Y-68045152D02*
X105137190Y-68083247D01*
X105137190Y-68083247D02*
X104870524Y-68083247D01*
X105632428Y-67778485D02*
X105670524Y-67740390D01*
X105670524Y-67740390D02*
X105746714Y-67702295D01*
X105746714Y-67702295D02*
X105937190Y-67702295D01*
X105937190Y-67702295D02*
X106013381Y-67740390D01*
X106013381Y-67740390D02*
X106051476Y-67778485D01*
X106051476Y-67778485D02*
X106089571Y-67854676D01*
X106089571Y-67854676D02*
X106089571Y-67930866D01*
X106089571Y-67930866D02*
X106051476Y-68045152D01*
X106051476Y-68045152D02*
X105594333Y-68502295D01*
X105594333Y-68502295D02*
X106089571Y-68502295D01*
X93948524Y-63422295D02*
X93948524Y-62622295D01*
X93948524Y-62622295D02*
X94139000Y-62622295D01*
X94139000Y-62622295D02*
X94253286Y-62660390D01*
X94253286Y-62660390D02*
X94329476Y-62736580D01*
X94329476Y-62736580D02*
X94367571Y-62812771D01*
X94367571Y-62812771D02*
X94405667Y-62965152D01*
X94405667Y-62965152D02*
X94405667Y-63079438D01*
X94405667Y-63079438D02*
X94367571Y-63231819D01*
X94367571Y-63231819D02*
X94329476Y-63308009D01*
X94329476Y-63308009D02*
X94253286Y-63384200D01*
X94253286Y-63384200D02*
X94139000Y-63422295D01*
X94139000Y-63422295D02*
X93948524Y-63422295D01*
X94672333Y-62622295D02*
X95205667Y-62622295D01*
X95205667Y-62622295D02*
X94862809Y-63422295D01*
X93948524Y-45642295D02*
X93948524Y-44842295D01*
X93948524Y-44842295D02*
X94139000Y-44842295D01*
X94139000Y-44842295D02*
X94253286Y-44880390D01*
X94253286Y-44880390D02*
X94329476Y-44956580D01*
X94329476Y-44956580D02*
X94367571Y-45032771D01*
X94367571Y-45032771D02*
X94405667Y-45185152D01*
X94405667Y-45185152D02*
X94405667Y-45299438D01*
X94405667Y-45299438D02*
X94367571Y-45451819D01*
X94367571Y-45451819D02*
X94329476Y-45528009D01*
X94329476Y-45528009D02*
X94253286Y-45604200D01*
X94253286Y-45604200D02*
X94139000Y-45642295D01*
X94139000Y-45642295D02*
X93948524Y-45642295D01*
X94710428Y-44918485D02*
X94748524Y-44880390D01*
X94748524Y-44880390D02*
X94824714Y-44842295D01*
X94824714Y-44842295D02*
X95015190Y-44842295D01*
X95015190Y-44842295D02*
X95091381Y-44880390D01*
X95091381Y-44880390D02*
X95129476Y-44918485D01*
X95129476Y-44918485D02*
X95167571Y-44994676D01*
X95167571Y-44994676D02*
X95167571Y-45070866D01*
X95167571Y-45070866D02*
X95129476Y-45185152D01*
X95129476Y-45185152D02*
X94672333Y-45642295D01*
X94672333Y-45642295D02*
X95167571Y-45642295D01*
X93929476Y-47420390D02*
X93853286Y-47382295D01*
X93853286Y-47382295D02*
X93739000Y-47382295D01*
X93739000Y-47382295D02*
X93624714Y-47420390D01*
X93624714Y-47420390D02*
X93548524Y-47496580D01*
X93548524Y-47496580D02*
X93510429Y-47572771D01*
X93510429Y-47572771D02*
X93472333Y-47725152D01*
X93472333Y-47725152D02*
X93472333Y-47839438D01*
X93472333Y-47839438D02*
X93510429Y-47991819D01*
X93510429Y-47991819D02*
X93548524Y-48068009D01*
X93548524Y-48068009D02*
X93624714Y-48144200D01*
X93624714Y-48144200D02*
X93739000Y-48182295D01*
X93739000Y-48182295D02*
X93815191Y-48182295D01*
X93815191Y-48182295D02*
X93929476Y-48144200D01*
X93929476Y-48144200D02*
X93967572Y-48106104D01*
X93967572Y-48106104D02*
X93967572Y-47839438D01*
X93967572Y-47839438D02*
X93815191Y-47839438D01*
X94310429Y-48182295D02*
X94310429Y-47382295D01*
X94310429Y-47382295D02*
X94767572Y-48182295D01*
X94767572Y-48182295D02*
X94767572Y-47382295D01*
X95148524Y-48182295D02*
X95148524Y-47382295D01*
X95148524Y-47382295D02*
X95339000Y-47382295D01*
X95339000Y-47382295D02*
X95453286Y-47420390D01*
X95453286Y-47420390D02*
X95529476Y-47496580D01*
X95529476Y-47496580D02*
X95567571Y-47572771D01*
X95567571Y-47572771D02*
X95605667Y-47725152D01*
X95605667Y-47725152D02*
X95605667Y-47839438D01*
X95605667Y-47839438D02*
X95567571Y-47991819D01*
X95567571Y-47991819D02*
X95529476Y-48068009D01*
X95529476Y-48068009D02*
X95453286Y-48144200D01*
X95453286Y-48144200D02*
X95339000Y-48182295D01*
X95339000Y-48182295D02*
X95148524Y-48182295D01*
X94215190Y-70623247D02*
X94329476Y-70661342D01*
X94329476Y-70661342D02*
X94367571Y-70699438D01*
X94367571Y-70699438D02*
X94405667Y-70775628D01*
X94405667Y-70775628D02*
X94405667Y-70889914D01*
X94405667Y-70889914D02*
X94367571Y-70966104D01*
X94367571Y-70966104D02*
X94329476Y-71004200D01*
X94329476Y-71004200D02*
X94253286Y-71042295D01*
X94253286Y-71042295D02*
X93948524Y-71042295D01*
X93948524Y-71042295D02*
X93948524Y-70242295D01*
X93948524Y-70242295D02*
X94215190Y-70242295D01*
X94215190Y-70242295D02*
X94291381Y-70280390D01*
X94291381Y-70280390D02*
X94329476Y-70318485D01*
X94329476Y-70318485D02*
X94367571Y-70394676D01*
X94367571Y-70394676D02*
X94367571Y-70470866D01*
X94367571Y-70470866D02*
X94329476Y-70547057D01*
X94329476Y-70547057D02*
X94291381Y-70585152D01*
X94291381Y-70585152D02*
X94215190Y-70623247D01*
X94215190Y-70623247D02*
X93948524Y-70623247D01*
X95129476Y-70242295D02*
X94748524Y-70242295D01*
X94748524Y-70242295D02*
X94710428Y-70623247D01*
X94710428Y-70623247D02*
X94748524Y-70585152D01*
X94748524Y-70585152D02*
X94824714Y-70547057D01*
X94824714Y-70547057D02*
X95015190Y-70547057D01*
X95015190Y-70547057D02*
X95091381Y-70585152D01*
X95091381Y-70585152D02*
X95129476Y-70623247D01*
X95129476Y-70623247D02*
X95167571Y-70699438D01*
X95167571Y-70699438D02*
X95167571Y-70889914D01*
X95167571Y-70889914D02*
X95129476Y-70966104D01*
X95129476Y-70966104D02*
X95091381Y-71004200D01*
X95091381Y-71004200D02*
X95015190Y-71042295D01*
X95015190Y-71042295D02*
X94824714Y-71042295D01*
X94824714Y-71042295D02*
X94748524Y-71004200D01*
X94748524Y-71004200D02*
X94710428Y-70966104D01*
X105194333Y-60463247D02*
X104927667Y-60463247D01*
X104927667Y-60882295D02*
X104927667Y-60082295D01*
X104927667Y-60082295D02*
X105308619Y-60082295D01*
X105537190Y-60082295D02*
X106070524Y-60082295D01*
X106070524Y-60082295D02*
X105727666Y-60882295D01*
X93948524Y-58342295D02*
X93948524Y-57542295D01*
X93948524Y-57542295D02*
X94139000Y-57542295D01*
X94139000Y-57542295D02*
X94253286Y-57580390D01*
X94253286Y-57580390D02*
X94329476Y-57656580D01*
X94329476Y-57656580D02*
X94367571Y-57732771D01*
X94367571Y-57732771D02*
X94405667Y-57885152D01*
X94405667Y-57885152D02*
X94405667Y-57999438D01*
X94405667Y-57999438D02*
X94367571Y-58151819D01*
X94367571Y-58151819D02*
X94329476Y-58228009D01*
X94329476Y-58228009D02*
X94253286Y-58304200D01*
X94253286Y-58304200D02*
X94139000Y-58342295D01*
X94139000Y-58342295D02*
X93948524Y-58342295D01*
X95091381Y-57808961D02*
X95091381Y-58342295D01*
X94900905Y-57504200D02*
X94710428Y-58075628D01*
X94710428Y-58075628D02*
X95205667Y-58075628D01*
X94215190Y-68083247D02*
X94329476Y-68121342D01*
X94329476Y-68121342D02*
X94367571Y-68159438D01*
X94367571Y-68159438D02*
X94405667Y-68235628D01*
X94405667Y-68235628D02*
X94405667Y-68349914D01*
X94405667Y-68349914D02*
X94367571Y-68426104D01*
X94367571Y-68426104D02*
X94329476Y-68464200D01*
X94329476Y-68464200D02*
X94253286Y-68502295D01*
X94253286Y-68502295D02*
X93948524Y-68502295D01*
X93948524Y-68502295D02*
X93948524Y-67702295D01*
X93948524Y-67702295D02*
X94215190Y-67702295D01*
X94215190Y-67702295D02*
X94291381Y-67740390D01*
X94291381Y-67740390D02*
X94329476Y-67778485D01*
X94329476Y-67778485D02*
X94367571Y-67854676D01*
X94367571Y-67854676D02*
X94367571Y-67930866D01*
X94367571Y-67930866D02*
X94329476Y-68007057D01*
X94329476Y-68007057D02*
X94291381Y-68045152D01*
X94291381Y-68045152D02*
X94215190Y-68083247D01*
X94215190Y-68083247D02*
X93948524Y-68083247D01*
X95091381Y-67968961D02*
X95091381Y-68502295D01*
X94900905Y-67664200D02*
X94710428Y-68235628D01*
X94710428Y-68235628D02*
X95205667Y-68235628D01*
X94237651Y-42302295D02*
X94694794Y-42302295D01*
X94466222Y-43102295D02*
X94466222Y-42302295D01*
X94885270Y-42302295D02*
X95418604Y-43102295D01*
X95418604Y-42302295D02*
X94885270Y-43102295D01*
X95875747Y-42302295D02*
X95951937Y-42302295D01*
X95951937Y-42302295D02*
X96028128Y-42340390D01*
X96028128Y-42340390D02*
X96066223Y-42378485D01*
X96066223Y-42378485D02*
X96104318Y-42454676D01*
X96104318Y-42454676D02*
X96142413Y-42607057D01*
X96142413Y-42607057D02*
X96142413Y-42797533D01*
X96142413Y-42797533D02*
X96104318Y-42949914D01*
X96104318Y-42949914D02*
X96066223Y-43026104D01*
X96066223Y-43026104D02*
X96028128Y-43064200D01*
X96028128Y-43064200D02*
X95951937Y-43102295D01*
X95951937Y-43102295D02*
X95875747Y-43102295D01*
X95875747Y-43102295D02*
X95799556Y-43064200D01*
X95799556Y-43064200D02*
X95761461Y-43026104D01*
X95761461Y-43026104D02*
X95723366Y-42949914D01*
X95723366Y-42949914D02*
X95685270Y-42797533D01*
X95685270Y-42797533D02*
X95685270Y-42607057D01*
X95685270Y-42607057D02*
X95723366Y-42454676D01*
X95723366Y-42454676D02*
X95761461Y-42378485D01*
X95761461Y-42378485D02*
X95799556Y-42340390D01*
X95799556Y-42340390D02*
X95875747Y-42302295D01*
X97056699Y-42264200D02*
X96370985Y-43292771D01*
X97323366Y-43102295D02*
X97323366Y-42302295D01*
X97323366Y-42302295D02*
X97513842Y-42302295D01*
X97513842Y-42302295D02*
X97628128Y-42340390D01*
X97628128Y-42340390D02*
X97704318Y-42416580D01*
X97704318Y-42416580D02*
X97742413Y-42492771D01*
X97742413Y-42492771D02*
X97780509Y-42645152D01*
X97780509Y-42645152D02*
X97780509Y-42759438D01*
X97780509Y-42759438D02*
X97742413Y-42911819D01*
X97742413Y-42911819D02*
X97704318Y-42988009D01*
X97704318Y-42988009D02*
X97628128Y-43064200D01*
X97628128Y-43064200D02*
X97513842Y-43102295D01*
X97513842Y-43102295D02*
X97323366Y-43102295D01*
X98047175Y-42302295D02*
X98542413Y-42302295D01*
X98542413Y-42302295D02*
X98275747Y-42607057D01*
X98275747Y-42607057D02*
X98390032Y-42607057D01*
X98390032Y-42607057D02*
X98466223Y-42645152D01*
X98466223Y-42645152D02*
X98504318Y-42683247D01*
X98504318Y-42683247D02*
X98542413Y-42759438D01*
X98542413Y-42759438D02*
X98542413Y-42949914D01*
X98542413Y-42949914D02*
X98504318Y-43026104D01*
X98504318Y-43026104D02*
X98466223Y-43064200D01*
X98466223Y-43064200D02*
X98390032Y-43102295D01*
X98390032Y-43102295D02*
X98161461Y-43102295D01*
X98161461Y-43102295D02*
X98085270Y-43064200D01*
X98085270Y-43064200D02*
X98047175Y-43026104D01*
X93948524Y-55802295D02*
X93948524Y-55002295D01*
X93948524Y-55002295D02*
X94139000Y-55002295D01*
X94139000Y-55002295D02*
X94253286Y-55040390D01*
X94253286Y-55040390D02*
X94329476Y-55116580D01*
X94329476Y-55116580D02*
X94367571Y-55192771D01*
X94367571Y-55192771D02*
X94405667Y-55345152D01*
X94405667Y-55345152D02*
X94405667Y-55459438D01*
X94405667Y-55459438D02*
X94367571Y-55611819D01*
X94367571Y-55611819D02*
X94329476Y-55688009D01*
X94329476Y-55688009D02*
X94253286Y-55764200D01*
X94253286Y-55764200D02*
X94139000Y-55802295D01*
X94139000Y-55802295D02*
X93948524Y-55802295D01*
X94900905Y-55002295D02*
X94977095Y-55002295D01*
X94977095Y-55002295D02*
X95053286Y-55040390D01*
X95053286Y-55040390D02*
X95091381Y-55078485D01*
X95091381Y-55078485D02*
X95129476Y-55154676D01*
X95129476Y-55154676D02*
X95167571Y-55307057D01*
X95167571Y-55307057D02*
X95167571Y-55497533D01*
X95167571Y-55497533D02*
X95129476Y-55649914D01*
X95129476Y-55649914D02*
X95091381Y-55726104D01*
X95091381Y-55726104D02*
X95053286Y-55764200D01*
X95053286Y-55764200D02*
X94977095Y-55802295D01*
X94977095Y-55802295D02*
X94900905Y-55802295D01*
X94900905Y-55802295D02*
X94824714Y-55764200D01*
X94824714Y-55764200D02*
X94786619Y-55726104D01*
X94786619Y-55726104D02*
X94748524Y-55649914D01*
X94748524Y-55649914D02*
X94710428Y-55497533D01*
X94710428Y-55497533D02*
X94710428Y-55307057D01*
X94710428Y-55307057D02*
X94748524Y-55154676D01*
X94748524Y-55154676D02*
X94786619Y-55078485D01*
X94786619Y-55078485D02*
X94824714Y-55040390D01*
X94824714Y-55040390D02*
X94900905Y-55002295D01*
X93929476Y-49960390D02*
X93853286Y-49922295D01*
X93853286Y-49922295D02*
X93739000Y-49922295D01*
X93739000Y-49922295D02*
X93624714Y-49960390D01*
X93624714Y-49960390D02*
X93548524Y-50036580D01*
X93548524Y-50036580D02*
X93510429Y-50112771D01*
X93510429Y-50112771D02*
X93472333Y-50265152D01*
X93472333Y-50265152D02*
X93472333Y-50379438D01*
X93472333Y-50379438D02*
X93510429Y-50531819D01*
X93510429Y-50531819D02*
X93548524Y-50608009D01*
X93548524Y-50608009D02*
X93624714Y-50684200D01*
X93624714Y-50684200D02*
X93739000Y-50722295D01*
X93739000Y-50722295D02*
X93815191Y-50722295D01*
X93815191Y-50722295D02*
X93929476Y-50684200D01*
X93929476Y-50684200D02*
X93967572Y-50646104D01*
X93967572Y-50646104D02*
X93967572Y-50379438D01*
X93967572Y-50379438D02*
X93815191Y-50379438D01*
X94310429Y-50722295D02*
X94310429Y-49922295D01*
X94310429Y-49922295D02*
X94767572Y-50722295D01*
X94767572Y-50722295D02*
X94767572Y-49922295D01*
X95148524Y-50722295D02*
X95148524Y-49922295D01*
X95148524Y-49922295D02*
X95339000Y-49922295D01*
X95339000Y-49922295D02*
X95453286Y-49960390D01*
X95453286Y-49960390D02*
X95529476Y-50036580D01*
X95529476Y-50036580D02*
X95567571Y-50112771D01*
X95567571Y-50112771D02*
X95605667Y-50265152D01*
X95605667Y-50265152D02*
X95605667Y-50379438D01*
X95605667Y-50379438D02*
X95567571Y-50531819D01*
X95567571Y-50531819D02*
X95529476Y-50608009D01*
X95529476Y-50608009D02*
X95453286Y-50684200D01*
X95453286Y-50684200D02*
X95339000Y-50722295D01*
X95339000Y-50722295D02*
X95148524Y-50722295D01*
X93986619Y-65543247D02*
X94253285Y-65543247D01*
X94367571Y-65962295D02*
X93986619Y-65962295D01*
X93986619Y-65962295D02*
X93986619Y-65162295D01*
X93986619Y-65162295D02*
X94367571Y-65162295D01*
X95053286Y-65162295D02*
X94900905Y-65162295D01*
X94900905Y-65162295D02*
X94824714Y-65200390D01*
X94824714Y-65200390D02*
X94786619Y-65238485D01*
X94786619Y-65238485D02*
X94710429Y-65352771D01*
X94710429Y-65352771D02*
X94672333Y-65505152D01*
X94672333Y-65505152D02*
X94672333Y-65809914D01*
X94672333Y-65809914D02*
X94710429Y-65886104D01*
X94710429Y-65886104D02*
X94748524Y-65924200D01*
X94748524Y-65924200D02*
X94824714Y-65962295D01*
X94824714Y-65962295D02*
X94977095Y-65962295D01*
X94977095Y-65962295D02*
X95053286Y-65924200D01*
X95053286Y-65924200D02*
X95091381Y-65886104D01*
X95091381Y-65886104D02*
X95129476Y-65809914D01*
X95129476Y-65809914D02*
X95129476Y-65619438D01*
X95129476Y-65619438D02*
X95091381Y-65543247D01*
X95091381Y-65543247D02*
X95053286Y-65505152D01*
X95053286Y-65505152D02*
X94977095Y-65467057D01*
X94977095Y-65467057D02*
X94824714Y-65467057D01*
X94824714Y-65467057D02*
X94748524Y-65505152D01*
X94748524Y-65505152D02*
X94710429Y-65543247D01*
X94710429Y-65543247D02*
X94672333Y-65619438D01*
X104394333Y-49922295D02*
X104661000Y-50722295D01*
X104661000Y-50722295D02*
X104927666Y-49922295D01*
X105651476Y-50646104D02*
X105613380Y-50684200D01*
X105613380Y-50684200D02*
X105499095Y-50722295D01*
X105499095Y-50722295D02*
X105422904Y-50722295D01*
X105422904Y-50722295D02*
X105308618Y-50684200D01*
X105308618Y-50684200D02*
X105232428Y-50608009D01*
X105232428Y-50608009D02*
X105194333Y-50531819D01*
X105194333Y-50531819D02*
X105156237Y-50379438D01*
X105156237Y-50379438D02*
X105156237Y-50265152D01*
X105156237Y-50265152D02*
X105194333Y-50112771D01*
X105194333Y-50112771D02*
X105232428Y-50036580D01*
X105232428Y-50036580D02*
X105308618Y-49960390D01*
X105308618Y-49960390D02*
X105422904Y-49922295D01*
X105422904Y-49922295D02*
X105499095Y-49922295D01*
X105499095Y-49922295D02*
X105613380Y-49960390D01*
X105613380Y-49960390D02*
X105651476Y-49998485D01*
X106451476Y-50646104D02*
X106413380Y-50684200D01*
X106413380Y-50684200D02*
X106299095Y-50722295D01*
X106299095Y-50722295D02*
X106222904Y-50722295D01*
X106222904Y-50722295D02*
X106108618Y-50684200D01*
X106108618Y-50684200D02*
X106032428Y-50608009D01*
X106032428Y-50608009D02*
X105994333Y-50531819D01*
X105994333Y-50531819D02*
X105956237Y-50379438D01*
X105956237Y-50379438D02*
X105956237Y-50265152D01*
X105956237Y-50265152D02*
X105994333Y-50112771D01*
X105994333Y-50112771D02*
X106032428Y-50036580D01*
X106032428Y-50036580D02*
X106108618Y-49960390D01*
X106108618Y-49960390D02*
X106222904Y-49922295D01*
X106222904Y-49922295D02*
X106299095Y-49922295D01*
X106299095Y-49922295D02*
X106413380Y-49960390D01*
X106413380Y-49960390D02*
X106451476Y-49998485D01*
X102462295Y-63476666D02*
X103033723Y-63476666D01*
X103033723Y-63476666D02*
X103148009Y-63514761D01*
X103148009Y-63514761D02*
X103224200Y-63590952D01*
X103224200Y-63590952D02*
X103262295Y-63705237D01*
X103262295Y-63705237D02*
X103262295Y-63781428D01*
X103262295Y-63095713D02*
X102462295Y-63095713D01*
X102462295Y-63095713D02*
X102462295Y-62790951D01*
X102462295Y-62790951D02*
X102500390Y-62714761D01*
X102500390Y-62714761D02*
X102538485Y-62676666D01*
X102538485Y-62676666D02*
X102614676Y-62638570D01*
X102614676Y-62638570D02*
X102728961Y-62638570D01*
X102728961Y-62638570D02*
X102805152Y-62676666D01*
X102805152Y-62676666D02*
X102843247Y-62714761D01*
X102843247Y-62714761D02*
X102881342Y-62790951D01*
X102881342Y-62790951D02*
X102881342Y-63095713D01*
X103262295Y-62257618D02*
X103262295Y-62105237D01*
X103262295Y-62105237D02*
X103224200Y-62029047D01*
X103224200Y-62029047D02*
X103186104Y-61990951D01*
X103186104Y-61990951D02*
X103071819Y-61914761D01*
X103071819Y-61914761D02*
X102919438Y-61876666D01*
X102919438Y-61876666D02*
X102614676Y-61876666D01*
X102614676Y-61876666D02*
X102538485Y-61914761D01*
X102538485Y-61914761D02*
X102500390Y-61952856D01*
X102500390Y-61952856D02*
X102462295Y-62029047D01*
X102462295Y-62029047D02*
X102462295Y-62181428D01*
X102462295Y-62181428D02*
X102500390Y-62257618D01*
X102500390Y-62257618D02*
X102538485Y-62295713D01*
X102538485Y-62295713D02*
X102614676Y-62333809D01*
X102614676Y-62333809D02*
X102805152Y-62333809D01*
X102805152Y-62333809D02*
X102881342Y-62295713D01*
X102881342Y-62295713D02*
X102919438Y-62257618D01*
X102919438Y-62257618D02*
X102957533Y-62181428D01*
X102957533Y-62181428D02*
X102957533Y-62029047D01*
X102957533Y-62029047D02*
X102919438Y-61952856D01*
X102919438Y-61952856D02*
X102881342Y-61914761D01*
X102881342Y-61914761D02*
X102805152Y-61876666D01*
X102437295Y-61157619D02*
X103008723Y-61157619D01*
X103008723Y-61157619D02*
X103123009Y-61195714D01*
X103123009Y-61195714D02*
X103199200Y-61271905D01*
X103199200Y-61271905D02*
X103237295Y-61386190D01*
X103237295Y-61386190D02*
X103237295Y-61462381D01*
X103237295Y-60776666D02*
X102437295Y-60776666D01*
X102437295Y-60776666D02*
X102437295Y-60471904D01*
X102437295Y-60471904D02*
X102475390Y-60395714D01*
X102475390Y-60395714D02*
X102513485Y-60357619D01*
X102513485Y-60357619D02*
X102589676Y-60319523D01*
X102589676Y-60319523D02*
X102703961Y-60319523D01*
X102703961Y-60319523D02*
X102780152Y-60357619D01*
X102780152Y-60357619D02*
X102818247Y-60395714D01*
X102818247Y-60395714D02*
X102856342Y-60471904D01*
X102856342Y-60471904D02*
X102856342Y-60776666D01*
X103237295Y-59557619D02*
X103237295Y-60014762D01*
X103237295Y-59786190D02*
X102437295Y-59786190D01*
X102437295Y-59786190D02*
X102551580Y-59862381D01*
X102551580Y-59862381D02*
X102627771Y-59938571D01*
X102627771Y-59938571D02*
X102665866Y-60014762D01*
X102437295Y-59062380D02*
X102437295Y-58986190D01*
X102437295Y-58986190D02*
X102475390Y-58909999D01*
X102475390Y-58909999D02*
X102513485Y-58871904D01*
X102513485Y-58871904D02*
X102589676Y-58833809D01*
X102589676Y-58833809D02*
X102742057Y-58795714D01*
X102742057Y-58795714D02*
X102932533Y-58795714D01*
X102932533Y-58795714D02*
X103084914Y-58833809D01*
X103084914Y-58833809D02*
X103161104Y-58871904D01*
X103161104Y-58871904D02*
X103199200Y-58909999D01*
X103199200Y-58909999D02*
X103237295Y-58986190D01*
X103237295Y-58986190D02*
X103237295Y-59062380D01*
X103237295Y-59062380D02*
X103199200Y-59138571D01*
X103199200Y-59138571D02*
X103161104Y-59176666D01*
X103161104Y-59176666D02*
X103084914Y-59214761D01*
X103084914Y-59214761D02*
X102932533Y-59252857D01*
X102932533Y-59252857D02*
X102742057Y-59252857D01*
X102742057Y-59252857D02*
X102589676Y-59214761D01*
X102589676Y-59214761D02*
X102513485Y-59176666D01*
X102513485Y-59176666D02*
X102475390Y-59138571D01*
X102475390Y-59138571D02*
X102437295Y-59062380D01*
X92642295Y-78963904D02*
X92261342Y-79230571D01*
X92642295Y-79421047D02*
X91842295Y-79421047D01*
X91842295Y-79421047D02*
X91842295Y-79116285D01*
X91842295Y-79116285D02*
X91880390Y-79040095D01*
X91880390Y-79040095D02*
X91918485Y-79002000D01*
X91918485Y-79002000D02*
X91994676Y-78963904D01*
X91994676Y-78963904D02*
X92108961Y-78963904D01*
X92108961Y-78963904D02*
X92185152Y-79002000D01*
X92185152Y-79002000D02*
X92223247Y-79040095D01*
X92223247Y-79040095D02*
X92261342Y-79116285D01*
X92261342Y-79116285D02*
X92261342Y-79421047D01*
X92223247Y-78621047D02*
X92223247Y-78354381D01*
X92642295Y-78240095D02*
X92642295Y-78621047D01*
X92642295Y-78621047D02*
X91842295Y-78621047D01*
X91842295Y-78621047D02*
X91842295Y-78240095D01*
X92604200Y-77935333D02*
X92642295Y-77821047D01*
X92642295Y-77821047D02*
X92642295Y-77630571D01*
X92642295Y-77630571D02*
X92604200Y-77554380D01*
X92604200Y-77554380D02*
X92566104Y-77516285D01*
X92566104Y-77516285D02*
X92489914Y-77478190D01*
X92489914Y-77478190D02*
X92413723Y-77478190D01*
X92413723Y-77478190D02*
X92337533Y-77516285D01*
X92337533Y-77516285D02*
X92299438Y-77554380D01*
X92299438Y-77554380D02*
X92261342Y-77630571D01*
X92261342Y-77630571D02*
X92223247Y-77782952D01*
X92223247Y-77782952D02*
X92185152Y-77859142D01*
X92185152Y-77859142D02*
X92147057Y-77897237D01*
X92147057Y-77897237D02*
X92070866Y-77935333D01*
X92070866Y-77935333D02*
X91994676Y-77935333D01*
X91994676Y-77935333D02*
X91918485Y-77897237D01*
X91918485Y-77897237D02*
X91880390Y-77859142D01*
X91880390Y-77859142D02*
X91842295Y-77782952D01*
X91842295Y-77782952D02*
X91842295Y-77592475D01*
X91842295Y-77592475D02*
X91880390Y-77478190D01*
X92223247Y-77135332D02*
X92223247Y-76868666D01*
X92642295Y-76754380D02*
X92642295Y-77135332D01*
X92642295Y-77135332D02*
X91842295Y-77135332D01*
X91842295Y-77135332D02*
X91842295Y-76754380D01*
X91842295Y-76525808D02*
X91842295Y-76068665D01*
X92642295Y-76297237D02*
X91842295Y-76297237D01*
X109483692Y-91498429D02*
X109447978Y-91605572D01*
X109447978Y-91605572D02*
X109412264Y-91641286D01*
X109412264Y-91641286D02*
X109340835Y-91677000D01*
X109340835Y-91677000D02*
X109233692Y-91677000D01*
X109233692Y-91677000D02*
X109162264Y-91641286D01*
X109162264Y-91641286D02*
X109126550Y-91605572D01*
X109126550Y-91605572D02*
X109090835Y-91534143D01*
X109090835Y-91534143D02*
X109090835Y-91248429D01*
X109090835Y-91248429D02*
X109840835Y-91248429D01*
X109840835Y-91248429D02*
X109840835Y-91498429D01*
X109840835Y-91498429D02*
X109805121Y-91569858D01*
X109805121Y-91569858D02*
X109769407Y-91605572D01*
X109769407Y-91605572D02*
X109697978Y-91641286D01*
X109697978Y-91641286D02*
X109626550Y-91641286D01*
X109626550Y-91641286D02*
X109555121Y-91605572D01*
X109555121Y-91605572D02*
X109519407Y-91569858D01*
X109519407Y-91569858D02*
X109483692Y-91498429D01*
X109483692Y-91498429D02*
X109483692Y-91248429D01*
X109090835Y-92319858D02*
X109483692Y-92319858D01*
X109483692Y-92319858D02*
X109555121Y-92284143D01*
X109555121Y-92284143D02*
X109590835Y-92212715D01*
X109590835Y-92212715D02*
X109590835Y-92069858D01*
X109590835Y-92069858D02*
X109555121Y-91998429D01*
X109126550Y-92319858D02*
X109090835Y-92248429D01*
X109090835Y-92248429D02*
X109090835Y-92069858D01*
X109090835Y-92069858D02*
X109126550Y-91998429D01*
X109126550Y-91998429D02*
X109197978Y-91962715D01*
X109197978Y-91962715D02*
X109269407Y-91962715D01*
X109269407Y-91962715D02*
X109340835Y-91998429D01*
X109340835Y-91998429D02*
X109376550Y-92069858D01*
X109376550Y-92069858D02*
X109376550Y-92248429D01*
X109376550Y-92248429D02*
X109412264Y-92319858D01*
X109590835Y-92569857D02*
X109590835Y-92855571D01*
X109840835Y-92677000D02*
X109197978Y-92677000D01*
X109197978Y-92677000D02*
X109126550Y-92712714D01*
X109126550Y-92712714D02*
X109090835Y-92784143D01*
X109090835Y-92784143D02*
X109090835Y-92855571D01*
X109590835Y-92998428D02*
X109590835Y-93284142D01*
X109840835Y-93105571D02*
X109197978Y-93105571D01*
X109197978Y-93105571D02*
X109126550Y-93141285D01*
X109126550Y-93141285D02*
X109090835Y-93212714D01*
X109090835Y-93212714D02*
X109090835Y-93284142D01*
X109126550Y-93819856D02*
X109090835Y-93748428D01*
X109090835Y-93748428D02*
X109090835Y-93605571D01*
X109090835Y-93605571D02*
X109126550Y-93534142D01*
X109126550Y-93534142D02*
X109197978Y-93498428D01*
X109197978Y-93498428D02*
X109483692Y-93498428D01*
X109483692Y-93498428D02*
X109555121Y-93534142D01*
X109555121Y-93534142D02*
X109590835Y-93605571D01*
X109590835Y-93605571D02*
X109590835Y-93748428D01*
X109590835Y-93748428D02*
X109555121Y-93819856D01*
X109555121Y-93819856D02*
X109483692Y-93855571D01*
X109483692Y-93855571D02*
X109412264Y-93855571D01*
X109412264Y-93855571D02*
X109340835Y-93498428D01*
X109090835Y-94176999D02*
X109590835Y-94176999D01*
X109447978Y-94176999D02*
X109519407Y-94212713D01*
X109519407Y-94212713D02*
X109555121Y-94248428D01*
X109555121Y-94248428D02*
X109590835Y-94319856D01*
X109590835Y-94319856D02*
X109590835Y-94391285D01*
X109590835Y-94569856D02*
X109090835Y-94748428D01*
X109590835Y-94926999D02*
X109090835Y-94748428D01*
X109090835Y-94748428D02*
X108912264Y-94676999D01*
X108912264Y-94676999D02*
X108876550Y-94641285D01*
X108876550Y-94641285D02*
X108840835Y-94569856D01*
X112522200Y-83738904D02*
X112569819Y-83596047D01*
X112569819Y-83596047D02*
X112569819Y-83357952D01*
X112569819Y-83357952D02*
X112522200Y-83262714D01*
X112522200Y-83262714D02*
X112474580Y-83215095D01*
X112474580Y-83215095D02*
X112379342Y-83167476D01*
X112379342Y-83167476D02*
X112284104Y-83167476D01*
X112284104Y-83167476D02*
X112188866Y-83215095D01*
X112188866Y-83215095D02*
X112141247Y-83262714D01*
X112141247Y-83262714D02*
X112093628Y-83357952D01*
X112093628Y-83357952D02*
X112046009Y-83548428D01*
X112046009Y-83548428D02*
X111998390Y-83643666D01*
X111998390Y-83643666D02*
X111950771Y-83691285D01*
X111950771Y-83691285D02*
X111855533Y-83738904D01*
X111855533Y-83738904D02*
X111760295Y-83738904D01*
X111760295Y-83738904D02*
X111665057Y-83691285D01*
X111665057Y-83691285D02*
X111617438Y-83643666D01*
X111617438Y-83643666D02*
X111569819Y-83548428D01*
X111569819Y-83548428D02*
X111569819Y-83310333D01*
X111569819Y-83310333D02*
X111617438Y-83167476D01*
X112569819Y-82215095D02*
X112569819Y-82786523D01*
X112569819Y-82500809D02*
X111569819Y-82500809D01*
X111569819Y-82500809D02*
X111712676Y-82596047D01*
X111712676Y-82596047D02*
X111807914Y-82691285D01*
X111807914Y-82691285D02*
X111855533Y-82786523D01*
D11*
X97496109Y-90163668D02*
X97853252Y-90163668D01*
X97853252Y-90163668D02*
X97924680Y-90187477D01*
X97924680Y-90187477D02*
X97972300Y-90235096D01*
X97972300Y-90235096D02*
X97996109Y-90306525D01*
X97996109Y-90306525D02*
X97996109Y-90354144D01*
X97662776Y-89711287D02*
X97996109Y-89711287D01*
X97472300Y-89830335D02*
X97829442Y-89949382D01*
X97829442Y-89949382D02*
X97829442Y-89639859D01*
D12*
X91110000Y-38930000D02*
X91110000Y-41470000D01*
X91110000Y-41470000D02*
X91110000Y-71950000D01*
X91110000Y-71950000D02*
X108890000Y-71950000D01*
X93650000Y-41470000D02*
X91110000Y-41470000D01*
X93650000Y-41470000D02*
X93650000Y-44010000D01*
X93650000Y-44010000D02*
X91110000Y-44010000D01*
X108890000Y-38930000D02*
X91110000Y-38930000D01*
X108890000Y-41470000D02*
X108890000Y-38930000D01*
X108890000Y-71950000D02*
X108890000Y-41470000D01*
D10*
X104531568Y-48149360D02*
X104431568Y-48149360D01*
X104431568Y-47349360D01*
X104531568Y-47349360D01*
X104531568Y-48149360D01*
G36*
X104531568Y-48149360D02*
G01*
X104431568Y-48149360D01*
X104431568Y-47349360D01*
X104531568Y-47349360D01*
X104531568Y-48149360D01*
G37*
X104731568Y-47849360D02*
X104631568Y-47849360D01*
X104631568Y-47749360D01*
X104731568Y-47749360D01*
X104731568Y-47849360D01*
G36*
X104731568Y-47849360D02*
G01*
X104631568Y-47849360D01*
X104631568Y-47749360D01*
X104731568Y-47749360D01*
X104731568Y-47849360D01*
G37*
X104931568Y-47449360D02*
X104431568Y-47449360D01*
X104431568Y-47349360D01*
X104931568Y-47349360D01*
X104931568Y-47449360D01*
G36*
X104931568Y-47449360D02*
G01*
X104431568Y-47449360D01*
X104431568Y-47349360D01*
X104931568Y-47349360D01*
X104931568Y-47449360D01*
G37*
X104931568Y-47649360D02*
X104831568Y-47649360D01*
X104831568Y-47349360D01*
X104931568Y-47349360D01*
X104931568Y-47649360D01*
G36*
X104931568Y-47649360D02*
G01*
X104831568Y-47649360D01*
X104831568Y-47349360D01*
X104931568Y-47349360D01*
X104931568Y-47649360D01*
G37*
X104931568Y-48149360D02*
X104831568Y-48149360D01*
X104831568Y-47949360D01*
X104931568Y-47949360D01*
X104931568Y-48149360D01*
G36*
X104931568Y-48149360D02*
G01*
X104831568Y-48149360D01*
X104831568Y-47949360D01*
X104931568Y-47949360D01*
X104931568Y-48149360D01*
G37*
X103011000Y-68557000D02*
X104789000Y-68557000D01*
X103011000Y-70843000D02*
X103011000Y-68557000D01*
X104789000Y-68557000D02*
X104789000Y-70843000D01*
X104789000Y-70843000D02*
X103011000Y-70843000D01*
X100411000Y-68557000D02*
X102189000Y-68557000D01*
X100411000Y-70843000D02*
X100411000Y-68557000D01*
X102189000Y-68557000D02*
X102189000Y-70843000D01*
X102189000Y-70843000D02*
X100411000Y-70843000D01*
X97911000Y-68557000D02*
X99689000Y-68557000D01*
X97911000Y-70843000D02*
X97911000Y-68557000D01*
X99689000Y-68557000D02*
X99689000Y-70843000D01*
X99689000Y-70843000D02*
X97911000Y-70843000D01*
X113900000Y-57300000D02*
X113900000Y-58700000D01*
X113900000Y-58000000D02*
X114800000Y-57300000D01*
X114800000Y-57300000D02*
X114800000Y-58700000D01*
X114800000Y-58700000D02*
X113900000Y-58000000D01*
X133800000Y-55000000D02*
X133800000Y-56400000D01*
X133800000Y-55700000D02*
X134700000Y-55000000D01*
X134700000Y-55000000D02*
X134700000Y-56400000D01*
X134700000Y-56400000D02*
X133800000Y-55700000D01*
X151900000Y-52600000D02*
X151900000Y-54000000D01*
X151900000Y-53300000D02*
X152800000Y-52600000D01*
X152800000Y-52600000D02*
X152800000Y-54000000D01*
X152800000Y-54000000D02*
X151900000Y-53300000D01*
X171000000Y-54900000D02*
X171000000Y-56300000D01*
X171000000Y-55600000D02*
X171900000Y-54900000D01*
X171900000Y-54900000D02*
X171900000Y-56300000D01*
X171900000Y-56300000D02*
X171000000Y-55600000D01*
X189900000Y-64100000D02*
X189900000Y-65500000D01*
X189900000Y-64800000D02*
X190800000Y-64100000D01*
X190800000Y-64100000D02*
X190800000Y-65500000D01*
X190800000Y-65500000D02*
X189900000Y-64800000D01*
X221400000Y-63900000D02*
X221400000Y-65300000D01*
X221400000Y-64600000D02*
X222300000Y-63900000D01*
X222300000Y-63900000D02*
X222300000Y-65300000D01*
X222300000Y-65300000D02*
X221400000Y-64600000D01*
X113900000Y-60400000D02*
X113900000Y-61800000D01*
X113900000Y-61100000D02*
X114800000Y-60400000D01*
X114800000Y-60400000D02*
X114800000Y-61800000D01*
X114800000Y-61800000D02*
X113900000Y-61100000D01*
X134800000Y-58000000D02*
X134800000Y-59400000D01*
X134800000Y-58700000D02*
X135700000Y-58000000D01*
X135700000Y-58000000D02*
X135700000Y-59400000D01*
X135700000Y-59400000D02*
X134800000Y-58700000D01*
X152000000Y-55800000D02*
X152000000Y-57200000D01*
X152000000Y-56500000D02*
X152900000Y-55800000D01*
X152900000Y-55800000D02*
X152900000Y-57200000D01*
X152900000Y-57200000D02*
X152000000Y-56500000D01*
X171000000Y-58000000D02*
X171000000Y-59400000D01*
X171000000Y-58700000D02*
X171900000Y-58000000D01*
X171900000Y-58000000D02*
X171900000Y-59400000D01*
X171900000Y-59400000D02*
X171000000Y-58700000D01*
X189900000Y-67000000D02*
X189900000Y-68400000D01*
X189900000Y-67700000D02*
X190800000Y-67000000D01*
X190800000Y-67000000D02*
X190800000Y-68400000D01*
X190800000Y-68400000D02*
X189900000Y-67700000D01*
X221400000Y-67000000D02*
X221400000Y-68400000D01*
X221400000Y-67700000D02*
X222300000Y-67000000D01*
X222300000Y-67000000D02*
X222300000Y-68400000D01*
X222300000Y-68400000D02*
X221400000Y-67700000D01*
X113900000Y-95300000D02*
X113900000Y-96700000D01*
X113900000Y-96000000D02*
X114800000Y-95300000D01*
X114800000Y-95300000D02*
X114800000Y-96700000D01*
X114800000Y-96700000D02*
X113900000Y-96000000D01*
X133800000Y-93100000D02*
X133800000Y-94500000D01*
X133800000Y-93800000D02*
X134700000Y-93100000D01*
X134700000Y-93100000D02*
X134700000Y-94500000D01*
X134700000Y-94500000D02*
X133800000Y-93800000D01*
X152000000Y-90700000D02*
X152000000Y-92100000D01*
X152000000Y-91400000D02*
X152900000Y-90700000D01*
X152900000Y-90700000D02*
X152900000Y-92100000D01*
X152900000Y-92100000D02*
X152000000Y-91400000D01*
X171000000Y-92900000D02*
X171000000Y-94300000D01*
X171000000Y-93600000D02*
X171900000Y-92900000D01*
X171900000Y-92900000D02*
X171900000Y-94300000D01*
X171900000Y-94300000D02*
X171000000Y-93600000D01*
X189700000Y-102100000D02*
X189700000Y-103500000D01*
X189700000Y-102800000D02*
X190600000Y-102100000D01*
X190600000Y-102100000D02*
X190600000Y-103500000D01*
X190600000Y-103500000D02*
X189700000Y-102800000D01*
X221100000Y-102100000D02*
X221100000Y-103500000D01*
X221100000Y-102800000D02*
X222000000Y-102100000D01*
X222000000Y-102100000D02*
X222000000Y-103500000D01*
X222000000Y-103500000D02*
X221100000Y-102800000D01*
X113900000Y-98400000D02*
X113900000Y-99800000D01*
X113900000Y-99100000D02*
X114800000Y-98400000D01*
X114800000Y-98400000D02*
X114800000Y-99800000D01*
X114800000Y-99800000D02*
X113900000Y-99100000D01*
X134800000Y-96100000D02*
X134800000Y-97500000D01*
X134800000Y-96800000D02*
X135700000Y-96100000D01*
X135700000Y-96100000D02*
X135700000Y-97500000D01*
X135700000Y-97500000D02*
X134800000Y-96800000D01*
X152000000Y-93800000D02*
X152000000Y-95200000D01*
X152000000Y-94500000D02*
X152900000Y-93800000D01*
X152900000Y-93800000D02*
X152900000Y-95200000D01*
X152900000Y-95200000D02*
X152000000Y-94500000D01*
X171000000Y-96100000D02*
X171000000Y-97500000D01*
X171000000Y-96800000D02*
X171900000Y-96100000D01*
X171900000Y-96100000D02*
X171900000Y-97500000D01*
X171900000Y-97500000D02*
X171000000Y-96800000D01*
X189700000Y-105300000D02*
X189700000Y-106700000D01*
X189700000Y-106000000D02*
X190600000Y-105300000D01*
X190600000Y-105300000D02*
X190600000Y-106700000D01*
X190600000Y-106700000D02*
X189700000Y-106000000D01*
X221200000Y-105300000D02*
X221200000Y-106700000D01*
X221200000Y-106000000D02*
X222100000Y-105300000D01*
X222100000Y-105300000D02*
X222100000Y-106700000D01*
X222100000Y-106700000D02*
X221200000Y-106000000D01*
X106200000Y-98310000D02*
X106200000Y-99710000D01*
X106200000Y-99010000D02*
X107100000Y-98310000D01*
X107100000Y-98310000D02*
X107100000Y-99710000D01*
X107100000Y-99710000D02*
X106200000Y-99010000D01*
X109393782Y-119996410D02*
X109550000Y-118866987D01*
X109550000Y-118866987D02*
X110606218Y-119296410D01*
X110156218Y-118516987D02*
X108943782Y-119216987D01*
X110606218Y-119296410D02*
X109393782Y-119996410D01*
X123400000Y-117300000D02*
X123400000Y-118700000D01*
X123400000Y-118000000D02*
X124300000Y-117300000D01*
X124300000Y-117300000D02*
X124300000Y-118700000D01*
X124300000Y-118700000D02*
X123400000Y-118000000D01*
X142400000Y-115100000D02*
X142400000Y-116500000D01*
X142400000Y-115800000D02*
X143300000Y-115100000D01*
X143300000Y-115100000D02*
X143300000Y-116500000D01*
X143300000Y-116500000D02*
X142400000Y-115800000D01*
X161900000Y-112110000D02*
X161900000Y-113510000D01*
X161900000Y-112810000D02*
X162800000Y-112110000D01*
X162800000Y-112110000D02*
X162800000Y-113510000D01*
X162800000Y-113510000D02*
X161900000Y-112810000D01*
X115700000Y-43196000D02*
X124325000Y-43196000D01*
X115700000Y-47104000D02*
X115700000Y-43196000D01*
X115700000Y-47150000D02*
X120750000Y-47196000D01*
X126600000Y-45150000D02*
X126600000Y-49095000D01*
X126600000Y-49104000D02*
X122990000Y-49104000D01*
X120725000Y-47200000D02*
G75*
G02*
X122985000Y-49079999I190000J-2070000D01*
G01*
X124325000Y-43196000D02*
G75*
G02*
X126589000Y-45080000I190000J-2074000D01*
G01*
X115700000Y-62296000D02*
X124325000Y-62296000D01*
X115700000Y-66204000D02*
X115700000Y-62296000D01*
X115700000Y-66250000D02*
X120750000Y-66296000D01*
X126600000Y-64250000D02*
X126600000Y-68195000D01*
X126600000Y-68204000D02*
X122990000Y-68204000D01*
X120725000Y-66300000D02*
G75*
G02*
X122985000Y-68179999I190000J-2070000D01*
G01*
X124325000Y-62296000D02*
G75*
G02*
X126589000Y-64180000I190000J-2074000D01*
G01*
X115700000Y-81296000D02*
X124325000Y-81296000D01*
X115700000Y-85204000D02*
X115700000Y-81296000D01*
X115700000Y-85250000D02*
X120750000Y-85296000D01*
X126600000Y-83250000D02*
X126600000Y-87195000D01*
X126600000Y-87204000D02*
X122990000Y-87204000D01*
X120725000Y-85300000D02*
G75*
G02*
X122985000Y-87179999I190000J-2070000D01*
G01*
X124325000Y-81296000D02*
G75*
G02*
X126589000Y-83180000I190000J-2074000D01*
G01*
X115700000Y-100296000D02*
X124325000Y-100296000D01*
X115700000Y-104204000D02*
X115700000Y-100296000D01*
X115700000Y-104250000D02*
X120750000Y-104296000D01*
X126600000Y-102250000D02*
X126600000Y-106195000D01*
X126600000Y-106204000D02*
X122990000Y-106204000D01*
X120725000Y-104300000D02*
G75*
G02*
X122985000Y-106179999I190000J-2070000D01*
G01*
X124325000Y-100296000D02*
G75*
G02*
X126589000Y-102180000I190000J-2074000D01*
G01*
X96768172Y-127828078D02*
X99253335Y-132224506D01*
X96808010Y-127805078D02*
X100192437Y-125851078D01*
X100192437Y-125851078D02*
X104504937Y-133320547D01*
X100525959Y-138244755D02*
X98720959Y-135118403D01*
X103950223Y-136267755D02*
X100533753Y-138240255D01*
X99237371Y-132204856D02*
G75*
G02*
X98739245Y-135102073I-1697672J-1199545D01*
G01*
X104504937Y-133320547D02*
G75*
G02*
X104005345Y-136223229I-1701137J-1201545D01*
G01*
X110523042Y-124012394D02*
X118462396Y-120642337D01*
X112050019Y-127609727D02*
X110523042Y-124012394D01*
X112067993Y-127652071D02*
X116734516Y-125721222D01*
X121320034Y-121552092D02*
X122861468Y-125183483D01*
X122864985Y-125191768D02*
X119541962Y-126602307D01*
X116713066Y-125734672D02*
G75*
G02*
X119527982Y-126582166I983712J-1831203D01*
G01*
X118462396Y-120642337D02*
G75*
G02*
X121282559Y-121491953I985273J-1834890D01*
G01*
X134700000Y-116996000D02*
X143325000Y-116996000D01*
X134700000Y-120904000D02*
X134700000Y-116996000D01*
X134700000Y-120950000D02*
X139750000Y-120996000D01*
X145600000Y-118950000D02*
X145600000Y-122895000D01*
X145600000Y-122904000D02*
X141990000Y-122904000D01*
X139725000Y-121000000D02*
G75*
G02*
X141985000Y-122879999I190000J-2070000D01*
G01*
X143325000Y-116996000D02*
G75*
G02*
X145589000Y-118880000I190000J-2074000D01*
G01*
X153700000Y-114396000D02*
X162325000Y-114396000D01*
X153700000Y-118304000D02*
X153700000Y-114396000D01*
X153700000Y-118350000D02*
X158750000Y-118396000D01*
X164600000Y-116350000D02*
X164600000Y-120295000D01*
X164600000Y-120304000D02*
X160990000Y-120304000D01*
X158725000Y-118400000D02*
G75*
G02*
X160985000Y-120279999I190000J-2070000D01*
G01*
X162325000Y-114396000D02*
G75*
G02*
X164589000Y-116280000I190000J-2074000D01*
G01*
X95411000Y-68557000D02*
X97189000Y-68557000D01*
X95411000Y-70843000D02*
X95411000Y-68557000D01*
X97189000Y-68557000D02*
X97189000Y-70843000D01*
X97189000Y-70843000D02*
X95411000Y-70843000D01*
X95030000Y-73140000D02*
X105190000Y-73140000D01*
X95030000Y-75680000D02*
X95030000Y-73140000D01*
X95030000Y-75680000D02*
X105190000Y-75680000D01*
X105190000Y-73140000D02*
X105190000Y-75680000D01*
X180100000Y-114610000D02*
X180100000Y-116010000D01*
X180100000Y-115310000D02*
X181000000Y-114610000D01*
X181000000Y-114610000D02*
X181000000Y-116010000D01*
X181000000Y-116010000D02*
X180100000Y-115310000D01*
X134700000Y-78796000D02*
X143325000Y-78796000D01*
X134700000Y-82704000D02*
X134700000Y-78796000D01*
X134700000Y-82750000D02*
X139750000Y-82796000D01*
X145600000Y-80750000D02*
X145600000Y-84695000D01*
X145600000Y-84704000D02*
X141990000Y-84704000D01*
X139725000Y-82800000D02*
G75*
G02*
X141985000Y-84679999I190000J-2070000D01*
G01*
X143325000Y-78796000D02*
G75*
G02*
X145589000Y-80680000I190000J-2074000D01*
G01*
X134700000Y-97896000D02*
X143325000Y-97896000D01*
X134700000Y-101804000D02*
X134700000Y-97896000D01*
X134700000Y-101850000D02*
X139750000Y-101896000D01*
X145600000Y-99850000D02*
X145600000Y-103795000D01*
X145600000Y-103804000D02*
X141990000Y-103804000D01*
X139725000Y-101900000D02*
G75*
G02*
X141985000Y-103779999I190000J-2070000D01*
G01*
X143325000Y-97896000D02*
G75*
G02*
X145589000Y-99780000I190000J-2074000D01*
G01*
X134700000Y-59796000D02*
X143325000Y-59796000D01*
X134700000Y-63704000D02*
X134700000Y-59796000D01*
X134700000Y-63750000D02*
X139750000Y-63796000D01*
X145600000Y-61750000D02*
X145600000Y-65695000D01*
X145600000Y-65704000D02*
X141990000Y-65704000D01*
X139725000Y-63800000D02*
G75*
G02*
X141985000Y-65679999I190000J-2070000D01*
G01*
X143325000Y-59796000D02*
G75*
G02*
X145589000Y-61680000I190000J-2074000D01*
G01*
X134700000Y-40696000D02*
X143325000Y-40696000D01*
X134700000Y-44604000D02*
X134700000Y-40696000D01*
X134700000Y-44650000D02*
X139750000Y-44696000D01*
X145600000Y-42650000D02*
X145600000Y-46595000D01*
X145600000Y-46604000D02*
X141990000Y-46604000D01*
X139725000Y-44700000D02*
G75*
G02*
X141985000Y-46579999I190000J-2070000D01*
G01*
X143325000Y-40696000D02*
G75*
G02*
X145589000Y-42580000I190000J-2074000D01*
G01*
X153700000Y-76396000D02*
X162325000Y-76396000D01*
X153700000Y-80304000D02*
X153700000Y-76396000D01*
X153700000Y-80350000D02*
X158750000Y-80396000D01*
X164600000Y-78350000D02*
X164600000Y-82295000D01*
X164600000Y-82304000D02*
X160990000Y-82304000D01*
X158725000Y-80400000D02*
G75*
G02*
X160985000Y-82279999I190000J-2070000D01*
G01*
X162325000Y-76396000D02*
G75*
G02*
X164589000Y-78280000I190000J-2074000D01*
G01*
X153700000Y-38206000D02*
X162325000Y-38206000D01*
X153700000Y-42114000D02*
X153700000Y-38206000D01*
X153700000Y-42160000D02*
X158750000Y-42206000D01*
X164600000Y-40160000D02*
X164600000Y-44105000D01*
X164600000Y-44114000D02*
X160990000Y-44114000D01*
X158725000Y-42210000D02*
G75*
G02*
X160985000Y-44089999I190000J-2070000D01*
G01*
X162325000Y-38206000D02*
G75*
G02*
X164589000Y-40090000I190000J-2074000D01*
G01*
X153700000Y-57296000D02*
X162325000Y-57296000D01*
X153700000Y-61204000D02*
X153700000Y-57296000D01*
X153700000Y-61250000D02*
X158750000Y-61296000D01*
X164600000Y-59250000D02*
X164600000Y-63195000D01*
X164600000Y-63204000D02*
X160990000Y-63204000D01*
X158725000Y-61300000D02*
G75*
G02*
X160985000Y-63179999I190000J-2070000D01*
G01*
X162325000Y-57296000D02*
G75*
G02*
X164589000Y-59180000I190000J-2074000D01*
G01*
X153700000Y-95396000D02*
X162325000Y-95396000D01*
X153700000Y-99304000D02*
X153700000Y-95396000D01*
X153700000Y-99350000D02*
X158750000Y-99396000D01*
X164600000Y-97350000D02*
X164600000Y-101295000D01*
X164600000Y-101304000D02*
X160990000Y-101304000D01*
X158725000Y-99400000D02*
G75*
G02*
X160985000Y-101279999I190000J-2070000D01*
G01*
X162325000Y-95396000D02*
G75*
G02*
X164589000Y-97280000I190000J-2074000D01*
G01*
X172700000Y-97896000D02*
X181325000Y-97896000D01*
X172700000Y-101804000D02*
X172700000Y-97896000D01*
X172700000Y-101850000D02*
X177750000Y-101896000D01*
X183600000Y-99850000D02*
X183600000Y-103795000D01*
X183600000Y-103804000D02*
X179990000Y-103804000D01*
X177725000Y-101900000D02*
G75*
G02*
X179985000Y-103779999I190000J-2070000D01*
G01*
X181325000Y-97896000D02*
G75*
G02*
X183589000Y-99780000I190000J-2074000D01*
G01*
X172700000Y-59696000D02*
X181325000Y-59696000D01*
X172700000Y-63604000D02*
X172700000Y-59696000D01*
X172700000Y-63650000D02*
X177750000Y-63696000D01*
X183600000Y-61650000D02*
X183600000Y-65595000D01*
X183600000Y-65604000D02*
X179990000Y-65604000D01*
X177725000Y-63700000D02*
G75*
G02*
X179985000Y-65579999I190000J-2070000D01*
G01*
X181325000Y-59696000D02*
G75*
G02*
X183589000Y-61580000I190000J-2074000D01*
G01*
X172700000Y-116896000D02*
X181325000Y-116896000D01*
X172700000Y-120804000D02*
X172700000Y-116896000D01*
X172700000Y-120850000D02*
X177750000Y-120896000D01*
X183600000Y-118850000D02*
X183600000Y-122795000D01*
X183600000Y-122804000D02*
X179990000Y-122804000D01*
X177725000Y-120900000D02*
G75*
G02*
X179985000Y-122779999I190000J-2070000D01*
G01*
X181325000Y-116896000D02*
G75*
G02*
X183589000Y-118780000I190000J-2074000D01*
G01*
X172700000Y-78796000D02*
X181325000Y-78796000D01*
X172700000Y-82704000D02*
X172700000Y-78796000D01*
X172700000Y-82750000D02*
X177750000Y-82796000D01*
X183600000Y-80750000D02*
X183600000Y-84695000D01*
X183600000Y-84704000D02*
X179990000Y-84704000D01*
X177725000Y-82800000D02*
G75*
G02*
X179985000Y-84679999I190000J-2070000D01*
G01*
X181325000Y-78796000D02*
G75*
G02*
X183589000Y-80680000I190000J-2074000D01*
G01*
X172700000Y-40696000D02*
X181325000Y-40696000D01*
X172700000Y-44604000D02*
X172700000Y-40696000D01*
X172700000Y-44650000D02*
X177750000Y-44696000D01*
X183600000Y-42650000D02*
X183600000Y-46595000D01*
X183600000Y-46604000D02*
X179990000Y-46604000D01*
X177725000Y-44700000D02*
G75*
G02*
X179985000Y-46579999I190000J-2070000D01*
G01*
X181325000Y-40696000D02*
G75*
G02*
X183589000Y-42580000I190000J-2074000D01*
G01*
X191700000Y-49696000D02*
X200325000Y-49696000D01*
X191700000Y-53604000D02*
X191700000Y-49696000D01*
X191700000Y-53650000D02*
X196750000Y-53696000D01*
X202600000Y-51650000D02*
X202600000Y-55595000D01*
X202600000Y-55604000D02*
X198990000Y-55604000D01*
X196725000Y-53700000D02*
G75*
G02*
X198985000Y-55579999I190000J-2070000D01*
G01*
X200325000Y-49696000D02*
G75*
G02*
X202589000Y-51580000I190000J-2074000D01*
G01*
X191700000Y-106796000D02*
X200325000Y-106796000D01*
X191700000Y-110704000D02*
X191700000Y-106796000D01*
X191700000Y-110750000D02*
X196750000Y-110796000D01*
X202600000Y-108750000D02*
X202600000Y-112695000D01*
X202600000Y-112704000D02*
X198990000Y-112704000D01*
X196725000Y-110800000D02*
G75*
G02*
X198985000Y-112679999I190000J-2070000D01*
G01*
X200325000Y-106796000D02*
G75*
G02*
X202589000Y-108680000I190000J-2074000D01*
G01*
X210700000Y-87796000D02*
X219325000Y-87796000D01*
X210700000Y-91704000D02*
X210700000Y-87796000D01*
X210700000Y-91750000D02*
X215750000Y-91796000D01*
X221600000Y-89750000D02*
X221600000Y-93695000D01*
X221600000Y-93704000D02*
X217990000Y-93704000D01*
X215725000Y-91800000D02*
G75*
G02*
X217985000Y-93679999I190000J-2070000D01*
G01*
X219325000Y-87796000D02*
G75*
G02*
X221589000Y-89680000I190000J-2074000D01*
G01*
X210750000Y-106796000D02*
X219375000Y-106796000D01*
X210750000Y-110704000D02*
X210750000Y-106796000D01*
X210750000Y-110750000D02*
X215800000Y-110796000D01*
X221650000Y-108750000D02*
X221650000Y-112695000D01*
X221650000Y-112704000D02*
X218040000Y-112704000D01*
X215775000Y-110800000D02*
G75*
G02*
X218035000Y-112679999I190000J-2070000D01*
G01*
X219375000Y-106796000D02*
G75*
G02*
X221639000Y-108680000I190000J-2074000D01*
G01*
X210700000Y-49696000D02*
X219325000Y-49696000D01*
X210700000Y-53604000D02*
X210700000Y-49696000D01*
X210700000Y-53650000D02*
X215750000Y-53696000D01*
X221600000Y-51650000D02*
X221600000Y-55595000D01*
X221600000Y-55604000D02*
X217990000Y-55604000D01*
X215725000Y-53700000D02*
G75*
G02*
X217985000Y-55579999I190000J-2070000D01*
G01*
X219325000Y-49696000D02*
G75*
G02*
X221589000Y-51580000I190000J-2074000D01*
G01*
X210700000Y-68596000D02*
X219325000Y-68596000D01*
X210700000Y-72504000D02*
X210700000Y-68596000D01*
X210700000Y-72550000D02*
X215750000Y-72596000D01*
X221600000Y-70550000D02*
X221600000Y-74495000D01*
X221600000Y-74504000D02*
X217990000Y-74504000D01*
X215725000Y-72600000D02*
G75*
G02*
X217985000Y-74479999I190000J-2070000D01*
G01*
X219325000Y-68596000D02*
G75*
G02*
X221589000Y-70480000I190000J-2074000D01*
G01*
X191700000Y-87796000D02*
X200325000Y-87796000D01*
X191700000Y-91704000D02*
X191700000Y-87796000D01*
X191700000Y-91750000D02*
X196750000Y-91796000D01*
X202600000Y-89750000D02*
X202600000Y-93695000D01*
X202600000Y-93704000D02*
X198990000Y-93704000D01*
X196725000Y-91800000D02*
G75*
G02*
X198985000Y-93679999I190000J-2070000D01*
G01*
X200325000Y-87796000D02*
G75*
G02*
X202589000Y-89680000I190000J-2074000D01*
G01*
X191700000Y-68596000D02*
X200325000Y-68596000D01*
X191700000Y-72504000D02*
X191700000Y-68596000D01*
X191700000Y-72550000D02*
X196750000Y-72596000D01*
X202600000Y-70550000D02*
X202600000Y-74495000D01*
X202600000Y-74504000D02*
X198990000Y-74504000D01*
X196725000Y-72600000D02*
G75*
G02*
X198985000Y-74479999I190000J-2070000D01*
G01*
X200325000Y-68596000D02*
G75*
G02*
X202589000Y-70480000I190000J-2074000D01*
G01*
D13*
X93100000Y-100600000D02*
X93100000Y-112400000D01*
X97200000Y-100600000D02*
X93100000Y-100600000D01*
X97200000Y-112400000D02*
X93100000Y-112400000D01*
X98700000Y-106500000D02*
X99700000Y-106500000D01*
X99200000Y-106000000D02*
X99200000Y-107000000D01*
X101200000Y-100600000D02*
X105300000Y-100600000D01*
X105300000Y-100600000D02*
X105300000Y-103000000D01*
X105300000Y-105200000D02*
X105300000Y-107800000D01*
X105300000Y-110000000D02*
X105300000Y-112400000D01*
X105300000Y-112400000D02*
X101200000Y-112400000D01*
X102200000Y-106500000D02*
G75*
G02*
X96200000Y-106500000I-3000000J0D01*
G01*
X96200000Y-106500000D02*
G75*
G02*
X102200000Y-106500000I3000000J0D01*
G01*
X99300000Y-61810000D02*
X102100000Y-61810000D01*
X99300000Y-63810000D02*
X99300000Y-61810000D01*
X102100000Y-61810000D02*
X102100000Y-63810000D01*
X102100000Y-63810000D02*
X99300000Y-63810000D01*
X99275000Y-59110000D02*
X102075000Y-59110000D01*
X99275000Y-61110000D02*
X99275000Y-59110000D01*
X102075000Y-59110000D02*
X102075000Y-61110000D01*
X102075000Y-61110000D02*
X99275000Y-61110000D01*
D10*
X90480000Y-74802000D02*
X90480000Y-80802000D01*
X90480000Y-74802000D02*
X91180000Y-74802000D01*
X90480000Y-80802000D02*
X91180000Y-80802000D01*
X93980000Y-74802000D02*
X93380000Y-74802000D01*
X93980000Y-80802000D02*
X93380000Y-80802000D01*
X93980000Y-80802000D02*
X93980000Y-74802000D01*
D13*
X103075000Y-94582000D02*
X103075000Y-93252000D01*
X104405000Y-94582000D02*
X103075000Y-94582000D01*
X105675000Y-91922000D02*
X108275000Y-91922000D01*
X105675000Y-94582000D02*
X105675000Y-91922000D01*
X105675000Y-94582000D02*
X108275000Y-94582000D01*
X108275000Y-94582000D02*
X108275000Y-91922000D01*
D14*
X104430000Y-80052000D02*
X104430000Y-81132000D01*
X104430000Y-87972000D02*
X104430000Y-89052000D01*
X104430000Y-89052000D02*
X108030000Y-89052000D01*
X108030000Y-80052000D02*
X104430000Y-80052000D01*
X108030000Y-81132000D02*
X108030000Y-80052000D01*
X108030000Y-89052000D02*
X108030000Y-87972000D01*
D15*
X103580000Y-80712000D02*
G75*
G02*
X103380000Y-80712000I-100000J0D01*
G01*
X103380000Y-80712000D02*
G75*
G02*
X103580000Y-80712000I100000J0D01*
G01*
D16*
X92151400Y-42740000D03*
D17*
X92608600Y-45280000D03*
X92151400Y-47820000D03*
X92608600Y-50360000D03*
X92151400Y-52900000D03*
X92608600Y-55440000D03*
X92151400Y-57980000D03*
X92608600Y-60520000D03*
X92151400Y-63060000D03*
X92608600Y-65600000D03*
X92151400Y-68140000D03*
X92608600Y-70680000D03*
X107391400Y-70680000D03*
X107848600Y-68140000D03*
X107391400Y-65600000D03*
X107848600Y-63060000D03*
X107391400Y-60520000D03*
X107848600Y-57980000D03*
X107391400Y-55440000D03*
X107848600Y-52900000D03*
X107391400Y-50360000D03*
X107848600Y-47820000D03*
X107391400Y-45280000D03*
X107848600Y-42740000D03*
D18*
X96300000Y-74410000D03*
X98840000Y-74410000D03*
X101380000Y-74410000D03*
X103920000Y-74410000D03*
%LPC*%
D19*
X129300000Y-59600000D03*
X205800000Y-66210000D03*
X205800000Y-104510000D03*
X103800000Y-120810000D03*
D20*
X92151400Y-42740000D03*
D21*
X92608600Y-45280000D03*
X92151400Y-47820000D03*
X92608600Y-50360000D03*
X92151400Y-52900000D03*
X92608600Y-55440000D03*
X92151400Y-57980000D03*
X92608600Y-60520000D03*
X92151400Y-63060000D03*
X92608600Y-65600000D03*
X92151400Y-68140000D03*
X92608600Y-70680000D03*
X107391400Y-70680000D03*
X107848600Y-68140000D03*
X107391400Y-65600000D03*
X107848600Y-63060000D03*
X107391400Y-60520000D03*
X107848600Y-57980000D03*
X107391400Y-55440000D03*
X107848600Y-52900000D03*
X107391400Y-50360000D03*
X107848600Y-47820000D03*
X107391400Y-45280000D03*
X107848600Y-42740000D03*
D22*
X103900000Y-70200380D03*
X103900000Y-69199620D03*
X101300000Y-70200380D03*
X101300000Y-69199620D03*
X98800000Y-70200380D03*
X98800000Y-69199620D03*
D23*
X112700000Y-58000000D03*
X116100000Y-58000000D03*
X132600000Y-55700000D03*
X136000000Y-55700000D03*
X150700000Y-53300000D03*
X154100000Y-53300000D03*
X169800000Y-55600000D03*
X173200000Y-55600000D03*
X188700000Y-64800000D03*
X192100000Y-64800000D03*
X220200000Y-64600000D03*
X223600000Y-64600000D03*
X112700000Y-61100000D03*
X116100000Y-61100000D03*
X133600000Y-58700000D03*
X137000000Y-58700000D03*
X150800000Y-56500000D03*
X154200000Y-56500000D03*
X169800000Y-58700000D03*
X173200000Y-58700000D03*
X188700000Y-67700000D03*
X192100000Y-67700000D03*
X220200000Y-67700000D03*
X223600000Y-67700000D03*
X112700000Y-96000000D03*
X116100000Y-96000000D03*
X132600000Y-93800000D03*
X136000000Y-93800000D03*
X150800000Y-91400000D03*
X154200000Y-91400000D03*
X169800000Y-93600000D03*
X173200000Y-93600000D03*
X188500000Y-102800000D03*
X191900000Y-102800000D03*
X219900000Y-102800000D03*
X223300000Y-102800000D03*
X112700000Y-99100000D03*
X116100000Y-99100000D03*
X133600000Y-96800000D03*
X137000000Y-96800000D03*
X150800000Y-94500000D03*
X154200000Y-94500000D03*
X169800000Y-96800000D03*
X173200000Y-96800000D03*
X188500000Y-106000000D03*
X191900000Y-106000000D03*
X220000000Y-106000000D03*
X223400000Y-106000000D03*
X105000000Y-99010000D03*
X108400000Y-99010000D03*
D24*
X108950000Y-117827757D03*
X110650000Y-120772243D03*
D23*
X122200000Y-118000000D03*
X125600000Y-118000000D03*
X141200000Y-115800000D03*
X144600000Y-115800000D03*
X160700000Y-112810000D03*
X164100000Y-112810000D03*
D25*
X115420000Y-50000000D03*
D26*
X116690000Y-47459999D03*
X117960000Y-44920000D03*
D27*
X120500000Y-50000000D03*
D26*
X123040000Y-44920000D03*
X124310000Y-47460000D03*
D25*
X125580000Y-50000000D03*
D28*
X113300000Y-44900000D03*
D29*
X129000000Y-47500000D03*
D25*
X115420000Y-69100000D03*
D26*
X116690000Y-66559999D03*
X117960000Y-64020000D03*
D27*
X120500000Y-69100000D03*
D26*
X123040000Y-64020000D03*
X124310000Y-66560000D03*
D25*
X125580000Y-69100000D03*
D28*
X113300000Y-64000000D03*
D29*
X129000000Y-66600000D03*
D25*
X115420000Y-88100000D03*
D26*
X116690000Y-85559999D03*
X117960000Y-83020000D03*
D27*
X120500000Y-88100000D03*
D26*
X123040000Y-83020000D03*
X124310000Y-85560000D03*
D25*
X125580000Y-88100000D03*
D28*
X113300000Y-83000000D03*
D29*
X129000000Y-85600000D03*
D25*
X115420000Y-107100000D03*
D26*
X116690000Y-104559999D03*
X117960000Y-102020000D03*
D27*
X120500000Y-107100000D03*
D26*
X123040000Y-102020000D03*
X124310000Y-104560000D03*
D25*
X125580000Y-107100000D03*
D28*
X113300000Y-102000000D03*
D29*
X129000000Y-104600000D03*
D25*
X94160000Y-129010591D03*
D26*
X96994705Y-128840443D03*
X99829409Y-128670295D03*
D27*
X96700000Y-133410000D03*
D26*
X102369409Y-133069705D03*
X100804705Y-135439557D03*
D25*
X99240000Y-137809409D03*
D30*
X97516730Y-124624617D03*
D31*
X103115064Y-139521216D03*
D25*
X112923835Y-130384914D03*
D26*
X113100419Y-127550602D03*
X113277004Y-124716292D03*
D27*
X117600000Y-128400000D03*
D26*
X117953168Y-122731378D03*
X120114666Y-124573232D03*
D25*
X122276165Y-126415086D03*
D32*
X108979636Y-126518689D03*
D33*
X124447463Y-122777523D03*
D25*
X134420000Y-123800000D03*
D26*
X135690000Y-121259999D03*
X136960000Y-118720000D03*
D27*
X139500000Y-123800000D03*
D26*
X142040000Y-118720000D03*
X143310000Y-121260000D03*
D25*
X144580000Y-123800000D03*
D28*
X132300000Y-118700000D03*
D29*
X148000000Y-121300000D03*
D25*
X153420000Y-121200000D03*
D26*
X154690000Y-118659999D03*
X155960000Y-116120000D03*
D27*
X158500000Y-121200000D03*
D26*
X161040000Y-116120000D03*
X162310000Y-118660000D03*
D25*
X163580000Y-121200000D03*
D28*
X151300000Y-116100000D03*
D29*
X167000000Y-118700000D03*
D22*
X96300000Y-70200380D03*
X96300000Y-69199620D03*
D34*
X96300000Y-74410000D03*
X98840000Y-74410000D03*
X101380000Y-74410000D03*
X103920000Y-74410000D03*
D23*
X178900000Y-115310000D03*
X182300000Y-115310000D03*
D25*
X134420000Y-85600000D03*
D26*
X135690000Y-83059999D03*
X136960000Y-80520000D03*
D27*
X139500000Y-85600000D03*
D26*
X142040000Y-80520000D03*
X143310000Y-83060000D03*
D25*
X144580000Y-85600000D03*
D28*
X132300000Y-80500000D03*
D29*
X148000000Y-83100000D03*
D25*
X134420000Y-104700000D03*
D26*
X135690000Y-102159999D03*
X136960000Y-99620000D03*
D27*
X139500000Y-104700000D03*
D26*
X142040000Y-99620000D03*
X143310000Y-102160000D03*
D25*
X144580000Y-104700000D03*
D28*
X132300000Y-99600000D03*
D29*
X148000000Y-102200000D03*
D25*
X134420000Y-66600000D03*
D26*
X135690000Y-64059999D03*
X136960000Y-61520000D03*
D27*
X139500000Y-66600000D03*
D26*
X142040000Y-61520000D03*
X143310000Y-64060000D03*
D25*
X144580000Y-66600000D03*
D28*
X132300000Y-61500000D03*
D29*
X148000000Y-64100000D03*
D25*
X134420000Y-47500000D03*
D26*
X135690000Y-44959999D03*
X136960000Y-42420000D03*
D27*
X139500000Y-47500000D03*
D26*
X142040000Y-42420000D03*
X143310000Y-44960000D03*
D25*
X144580000Y-47500000D03*
D28*
X132300000Y-42400000D03*
D29*
X148000000Y-45000000D03*
D25*
X153420000Y-83200000D03*
D26*
X154690000Y-80659999D03*
X155960000Y-78120000D03*
D27*
X158500000Y-83200000D03*
D26*
X161040000Y-78120000D03*
X162310000Y-80660000D03*
D25*
X163580000Y-83200000D03*
D28*
X151300000Y-78100000D03*
D29*
X167000000Y-80700000D03*
D25*
X153420000Y-45010000D03*
D26*
X154690000Y-42469999D03*
X155960000Y-39930000D03*
D27*
X158500000Y-45010000D03*
D26*
X161040000Y-39930000D03*
X162310000Y-42470000D03*
D25*
X163580000Y-45010000D03*
D28*
X151300000Y-39910000D03*
D29*
X167000000Y-42510000D03*
D25*
X153420000Y-64100000D03*
D26*
X154690000Y-61559999D03*
X155960000Y-59020000D03*
D27*
X158500000Y-64100000D03*
D26*
X161040000Y-59020000D03*
X162310000Y-61560000D03*
D25*
X163580000Y-64100000D03*
D28*
X151300000Y-59000000D03*
D29*
X167000000Y-61600000D03*
D25*
X153420000Y-102200000D03*
D26*
X154690000Y-99659999D03*
X155960000Y-97120000D03*
D27*
X158500000Y-102200000D03*
D26*
X161040000Y-97120000D03*
X162310000Y-99660000D03*
D25*
X163580000Y-102200000D03*
D28*
X151300000Y-97100000D03*
D29*
X167000000Y-99700000D03*
D25*
X172420000Y-104700000D03*
D26*
X173690000Y-102159999D03*
X174960000Y-99620000D03*
D27*
X177500000Y-104700000D03*
D26*
X180040000Y-99620000D03*
X181310000Y-102160000D03*
D25*
X182580000Y-104700000D03*
D28*
X170300000Y-99600000D03*
D29*
X186000000Y-102200000D03*
D25*
X172420000Y-66500000D03*
D26*
X173690000Y-63959999D03*
X174960000Y-61420000D03*
D27*
X177500000Y-66500000D03*
D26*
X180040000Y-61420000D03*
X181310000Y-63960000D03*
D25*
X182580000Y-66500000D03*
D28*
X170300000Y-61400000D03*
D29*
X186000000Y-64000000D03*
D25*
X172420000Y-123700000D03*
D26*
X173690000Y-121159999D03*
X174960000Y-118620000D03*
D27*
X177500000Y-123700000D03*
D26*
X180040000Y-118620000D03*
X181310000Y-121160000D03*
D25*
X182580000Y-123700000D03*
D28*
X170300000Y-118600000D03*
D29*
X186000000Y-121200000D03*
D25*
X172420000Y-85600000D03*
D26*
X173690000Y-83059999D03*
X174960000Y-80520000D03*
D27*
X177500000Y-85600000D03*
D26*
X180040000Y-80520000D03*
X181310000Y-83060000D03*
D25*
X182580000Y-85600000D03*
D28*
X170300000Y-80500000D03*
D29*
X186000000Y-83100000D03*
D25*
X172420000Y-47500000D03*
D26*
X173690000Y-44959999D03*
X174960000Y-42420000D03*
D27*
X177500000Y-47500000D03*
D26*
X180040000Y-42420000D03*
X181310000Y-44960000D03*
D25*
X182580000Y-47500000D03*
D28*
X170300000Y-42400000D03*
D29*
X186000000Y-45000000D03*
D25*
X191420000Y-56500000D03*
D26*
X192690000Y-53959999D03*
X193960000Y-51420000D03*
D27*
X196500000Y-56500000D03*
D26*
X199040000Y-51420000D03*
X200310000Y-53960000D03*
D25*
X201580000Y-56500000D03*
D28*
X189300000Y-51400000D03*
D29*
X205000000Y-54000000D03*
D25*
X191420000Y-113600000D03*
D26*
X192690000Y-111059999D03*
X193960000Y-108520000D03*
D27*
X196500000Y-113600000D03*
D26*
X199040000Y-108520000D03*
X200310000Y-111060000D03*
D25*
X201580000Y-113600000D03*
D28*
X189300000Y-108500000D03*
D29*
X205000000Y-111100000D03*
D25*
X210420000Y-94600000D03*
D26*
X211690000Y-92059999D03*
X212960000Y-89520000D03*
D27*
X215500000Y-94600000D03*
D26*
X218040000Y-89520000D03*
X219310000Y-92060000D03*
D25*
X220580000Y-94600000D03*
D28*
X208300000Y-89500000D03*
D29*
X224000000Y-92100000D03*
D25*
X210470000Y-113600000D03*
D26*
X211740000Y-111059999D03*
X213010000Y-108520000D03*
D27*
X215550000Y-113600000D03*
D26*
X218090000Y-108520000D03*
X219360000Y-111060000D03*
D25*
X220630000Y-113600000D03*
D28*
X208350000Y-108500000D03*
D29*
X224050000Y-111100000D03*
D25*
X210420000Y-56500000D03*
D26*
X211690000Y-53959999D03*
X212960000Y-51420000D03*
D27*
X215500000Y-56500000D03*
D26*
X218040000Y-51420000D03*
X219310000Y-53960000D03*
D25*
X220580000Y-56500000D03*
D28*
X208300000Y-51400000D03*
D29*
X224000000Y-54000000D03*
D25*
X210420000Y-75400000D03*
D26*
X211690000Y-72859999D03*
X212960000Y-70320000D03*
D27*
X215500000Y-75400000D03*
D26*
X218040000Y-70320000D03*
X219310000Y-72860000D03*
D25*
X220580000Y-75400000D03*
D28*
X208300000Y-70300000D03*
D29*
X224000000Y-72900000D03*
D25*
X191420000Y-94600000D03*
D26*
X192690000Y-92059999D03*
X193960000Y-89520000D03*
D27*
X196500000Y-94600000D03*
D26*
X199040000Y-89520000D03*
X200310000Y-92060000D03*
D25*
X201580000Y-94600000D03*
D28*
X189300000Y-89500000D03*
D29*
X205000000Y-92100000D03*
D25*
X191420000Y-75400000D03*
D26*
X192690000Y-72859999D03*
X193960000Y-70320000D03*
D27*
X196500000Y-75400000D03*
D26*
X199040000Y-70320000D03*
X200310000Y-72860000D03*
D25*
X201580000Y-75400000D03*
D28*
X189300000Y-70300000D03*
D29*
X205000000Y-72900000D03*
D19*
X129300000Y-97510000D03*
D35*
X91700000Y-104000000D03*
X91700000Y-109000000D03*
X91700000Y-106500000D03*
D36*
X99200000Y-100900000D03*
X99200000Y-112100000D03*
D35*
X106200000Y-109000000D03*
X106200000Y-104000000D03*
D37*
X101425000Y-62810000D03*
D38*
X99975000Y-62810000D03*
D39*
X99950000Y-60110000D03*
D40*
X101400000Y-60110000D03*
D35*
X92280000Y-81052000D03*
X92280000Y-74552000D03*
D41*
X104405000Y-93252000D03*
D42*
X106945000Y-93252000D03*
D43*
X103480000Y-82052000D03*
X103480000Y-84552000D03*
X103480000Y-87052000D03*
X108980000Y-82052000D03*
X108980000Y-84552000D03*
X108980000Y-87052000D03*
D44*
X96290000Y-87262000D03*
X96290000Y-88062000D03*
D45*
X96290000Y-89262000D03*
X96290000Y-90262000D03*
X96290000Y-90762000D03*
X96290000Y-91762000D03*
D44*
X96290000Y-92962000D03*
X96290000Y-93762000D03*
X96290000Y-93762000D03*
X96290000Y-92962000D03*
D45*
X96290000Y-92262000D03*
X96290000Y-91262000D03*
X96290000Y-89762000D03*
X96290000Y-88762000D03*
D44*
X96290000Y-88062000D03*
X96290000Y-87262000D03*
D46*
X94940000Y-84892000D03*
D47*
X90940000Y-84892000D03*
D46*
X94940000Y-96132000D03*
D47*
X90940000Y-96132000D03*
D48*
X102200000Y-50610000D03*
X102200000Y-50610000D03*
X102200000Y-53410000D03*
X102200000Y-53410000D03*
X99000000Y-50610000D03*
X99000000Y-50610000D03*
X99000000Y-53410000D03*
X99000000Y-53410000D03*
D47*
X90940000Y-96132000D03*
D46*
X94940000Y-96132000D03*
D47*
X90940000Y-84892000D03*
D46*
X94940000Y-84892000D03*
D49*
X129000000Y-44910000D03*
X147600000Y-42500000D03*
X166900000Y-39910000D03*
X186000000Y-42410000D03*
X205000000Y-51410000D03*
X224000000Y-51410000D03*
X128700000Y-64000000D03*
X147500000Y-61600000D03*
X166900000Y-59010000D03*
X185600000Y-61500000D03*
X204900000Y-70310000D03*
X224000000Y-70310000D03*
X128700000Y-83000002D03*
X147800000Y-80600000D03*
X166900000Y-78110000D03*
X185900000Y-80600000D03*
X204900000Y-89510000D03*
X224000000Y-89510000D03*
X128600000Y-102000000D03*
X147600000Y-99700000D03*
X166900000Y-97010000D03*
X185600000Y-99700000D03*
X205000000Y-108510000D03*
X224000000Y-108510000D03*
X105200000Y-138510000D03*
X123500000Y-120410000D03*
X147900000Y-118710000D03*
D50*
X102640000Y-77082000D03*
D49*
X103278891Y-76750891D03*
X99988501Y-69316621D03*
D50*
X96290000Y-92962000D03*
X96290000Y-88062000D03*
D49*
X103930000Y-58352000D03*
D50*
X188750000Y-96610000D03*
X142330000Y-50652000D03*
X166500000Y-108460000D03*
D49*
X96300000Y-68200000D03*
D50*
X104880000Y-106552000D03*
X222730000Y-116552000D03*
D49*
X108380000Y-80602000D03*
D50*
X176030000Y-75902000D03*
D49*
X111480000Y-63052000D03*
D50*
X109530000Y-101602000D03*
X129280000Y-81252000D03*
X183255000Y-92052000D03*
X99780000Y-122152000D03*
X149030000Y-113752000D03*
X186530000Y-131452000D03*
X172080000Y-50602000D03*
X195930000Y-121552000D03*
X99930000Y-87752000D03*
X222730000Y-121552000D03*
X208430000Y-87002000D03*
X105680000Y-143352000D03*
D49*
X97130000Y-86052000D03*
D50*
X157530000Y-52002000D03*
X148080000Y-87302000D03*
X101080000Y-42752000D03*
X167430000Y-85452000D03*
X161530000Y-131452000D03*
X146030000Y-96727000D03*
D49*
X105580000Y-90602000D03*
D50*
X201890000Y-104782000D03*
X133180000Y-127877000D03*
X189250000Y-76260000D03*
X115950000Y-120210000D03*
X168630000Y-40652000D03*
X151580000Y-36952000D03*
X203805000Y-119527000D03*
X202130000Y-66052000D03*
D49*
X107430000Y-73002000D03*
D50*
X209850000Y-59810000D03*
X189450000Y-86610000D03*
X104730000Y-125152000D03*
X101180000Y-145852000D03*
D49*
X96830000Y-80452000D03*
D50*
X121830000Y-59802000D03*
X166300000Y-114210000D03*
D49*
X103780000Y-55752000D03*
D50*
X156530000Y-131452000D03*
X160230000Y-69777000D03*
X94930000Y-76252000D03*
X133700000Y-71060000D03*
X169480000Y-50502000D03*
X199980000Y-78202000D03*
X128850000Y-118410000D03*
X173180000Y-127877000D03*
X207280000Y-59602000D03*
X176280000Y-113152000D03*
X113880000Y-138802000D03*
D49*
X103880000Y-96552000D03*
D50*
X143180000Y-127877000D03*
X122830000Y-97602000D03*
X119780000Y-56502000D03*
X114080000Y-79552000D03*
X210180000Y-63152000D03*
X198130000Y-64752000D03*
X118205000Y-111002000D03*
X159680000Y-53702000D03*
X93380000Y-143352000D03*
D49*
X95130000Y-55352000D03*
D50*
X124250000Y-112360000D03*
X132280000Y-51552000D03*
X168330000Y-79252000D03*
X205730000Y-76402000D03*
X141730000Y-93602000D03*
X141530000Y-131452000D03*
D49*
X96080000Y-42402000D03*
D50*
X171530000Y-131452000D03*
X147530000Y-55502000D03*
D49*
X101630000Y-65452000D03*
D50*
X176080000Y-93852000D03*
X106530000Y-100902000D03*
X129580000Y-76152000D03*
D49*
X101430000Y-55752000D03*
D50*
X98030000Y-94252000D03*
D49*
X112680000Y-93252000D03*
D50*
X151650000Y-71010000D03*
X207230000Y-98502000D03*
X129280000Y-89852000D03*
X195280000Y-101002000D03*
X205730000Y-87852000D03*
X114980000Y-53060000D03*
X107130000Y-138552000D03*
X205980000Y-49852000D03*
D49*
X111330000Y-79252000D03*
D50*
X96030000Y-78452000D03*
X119500000Y-119160000D03*
X129580000Y-51202000D03*
X107730000Y-75052000D03*
X118030000Y-137002000D03*
X119303662Y-95296143D03*
X206930000Y-114502000D03*
D49*
X105730000Y-85852000D03*
D50*
X91680000Y-117752000D03*
D49*
X104380000Y-90602000D03*
D50*
X223380000Y-48702000D03*
D49*
X115130000Y-91252000D03*
D50*
X186380000Y-85852000D03*
X129180000Y-114352000D03*
X208200000Y-82160000D03*
X150830000Y-48852000D03*
X183180000Y-127877000D03*
X197430000Y-128452000D03*
X109305000Y-96002000D03*
X197630000Y-102852000D03*
X190380000Y-62752000D03*
D49*
X95330000Y-46552000D03*
X102030000Y-94752000D03*
D50*
X91230000Y-100002000D03*
X151080000Y-89152000D03*
X221930000Y-62152000D03*
X113400000Y-119160000D03*
D49*
X125430000Y-71602000D03*
X118680000Y-78102000D03*
X104830000Y-96552000D03*
D50*
X189480000Y-80402000D03*
D49*
X105530000Y-88452000D03*
D50*
X125630000Y-54552000D03*
X176830000Y-53952000D03*
X141430000Y-55552000D03*
X148700000Y-108760000D03*
X169230000Y-91452000D03*
X186130000Y-110102000D03*
D49*
X104630000Y-77002000D03*
D50*
X87880000Y-133702000D03*
D49*
X92980000Y-98002000D03*
D50*
X99930000Y-76502000D03*
D49*
X95800000Y-65510000D03*
D50*
X168580000Y-110052000D03*
X112330000Y-53010000D03*
X142130000Y-89252000D03*
X132530000Y-91602000D03*
X124930000Y-57902000D03*
X122030000Y-135052000D03*
D49*
X96229300Y-53980700D03*
D50*
X185130000Y-39652000D03*
X132930000Y-39152000D03*
D49*
X92980000Y-83452000D03*
X122130000Y-76852000D03*
D50*
X198180000Y-80602000D03*
D49*
X112680000Y-88402000D03*
D50*
X129480000Y-71152000D03*
D49*
X103830000Y-62252000D03*
D50*
X209650000Y-102022000D03*
X176530000Y-131452000D03*
D49*
X111830000Y-50452000D03*
X97730000Y-92262000D03*
D50*
X148180000Y-40552000D03*
X101030000Y-45902000D03*
X178980000Y-55952000D03*
X148300000Y-115910000D03*
X125980000Y-133102000D03*
X85080000Y-128702000D03*
X186680000Y-48652000D03*
D49*
X104280000Y-46252000D03*
D50*
X181530000Y-131452000D03*
X223280000Y-82002000D03*
X158730000Y-107327000D03*
D49*
X99430000Y-97602000D03*
X108430000Y-90952000D03*
X107780000Y-77002000D03*
D50*
X171230000Y-70902000D03*
X88580000Y-123552000D03*
X148230000Y-75702000D03*
D49*
X94880000Y-82652000D03*
D50*
X169030000Y-53402000D03*
X185730000Y-96352000D03*
X114180000Y-76102000D03*
X95330000Y-102452000D03*
X120850000Y-115460000D03*
X166530000Y-131452000D03*
X148180000Y-50102000D03*
X186030000Y-58002000D03*
X146530000Y-131452000D03*
X109480000Y-107802000D03*
X136530000Y-131452000D03*
X105950000Y-114860000D03*
D49*
X104300000Y-51210000D03*
D50*
X147805000Y-58677000D03*
X172880000Y-91502000D03*
D49*
X111680000Y-77802000D03*
X108864243Y-89022905D03*
D50*
X111080000Y-43352000D03*
X106350000Y-127210000D03*
X205850000Y-82210000D03*
D49*
X106530000Y-78902000D03*
D50*
X131530000Y-131452000D03*
X212480000Y-124202000D03*
X136680000Y-109902000D03*
D49*
X103880000Y-95552000D03*
D50*
X214980000Y-104052000D03*
D49*
X125830000Y-78452000D03*
D50*
X210030000Y-98702000D03*
D49*
X104830000Y-95552000D03*
D50*
X97880000Y-142227000D03*
X211680000Y-65752000D03*
X113500000Y-114960000D03*
D49*
X118130000Y-92702000D03*
D50*
X207530000Y-125452000D03*
X210755000Y-68052000D03*
X129530000Y-43002000D03*
X186550000Y-113910000D03*
X103730000Y-78052000D03*
X202230000Y-127052000D03*
X165980000Y-36752000D03*
X151930000Y-75402000D03*
X160480000Y-91702000D03*
D49*
X99180000Y-55702000D03*
D50*
X171530000Y-77002000D03*
X109450000Y-112210000D03*
D49*
X98930000Y-65452000D03*
D50*
X157830000Y-90002000D03*
X150980000Y-84952000D03*
X96480000Y-148552000D03*
X167880000Y-70902000D03*
D49*
X100130000Y-77752000D03*
D50*
X111800000Y-112260000D03*
X116230000Y-71127000D03*
X111205000Y-135252000D03*
X105930000Y-117702000D03*
D49*
X97130000Y-95152000D03*
X111430000Y-73202000D03*
D50*
X131005000Y-106727000D03*
D49*
X104105000Y-53777000D03*
D50*
X151530000Y-131452000D03*
X186650000Y-76110000D03*
X189200000Y-117810000D03*
X188780000Y-58302000D03*
D49*
X100130000Y-92102000D03*
D50*
X142980000Y-112752000D03*
D49*
X95380000Y-61452000D03*
D50*
X192330000Y-129802000D03*
X151550000Y-108810000D03*
D49*
X95000000Y-63060000D03*
D50*
X222700000Y-97560000D03*
X97800000Y-120010000D03*
X147800000Y-71010000D03*
X133380000Y-76052000D03*
X96730000Y-82552000D03*
D49*
X104930000Y-80452000D03*
D50*
X217230000Y-123052000D03*
X90580000Y-138502000D03*
X169100000Y-116560000D03*
D49*
X207100000Y-108510000D03*
X169000000Y-118610000D03*
X207000000Y-89410000D03*
X207000000Y-51410000D03*
X207000000Y-70310000D03*
X207000000Y-77810000D03*
X188000000Y-51410000D03*
X188000000Y-70310000D03*
X188000000Y-78110000D03*
X188000000Y-89510000D03*
X188000000Y-108510000D03*
X150000000Y-116110000D03*
X131000000Y-118710000D03*
X169400000Y-99700000D03*
X169500000Y-73710000D03*
X169500000Y-61500000D03*
X169400000Y-42500000D03*
X169500000Y-80600000D03*
X150000000Y-58910000D03*
X107800000Y-126910000D03*
X150000000Y-39910000D03*
X150000000Y-74460000D03*
X150000000Y-78110000D03*
X150100000Y-97110000D03*
X131200000Y-62110000D03*
X131100000Y-42410000D03*
X131200000Y-75010000D03*
X131100000Y-100010000D03*
X96800000Y-123710000D03*
X131000000Y-80510000D03*
X102700000Y-60110000D03*
X102700000Y-68300000D03*
X101400000Y-61510000D03*
X102600000Y-69200000D03*
X167000000Y-116110000D03*
X97200000Y-54010000D03*
X186000000Y-118610000D03*
X112400000Y-101999990D03*
X112399986Y-44900000D03*
X112499999Y-76410001D03*
X112300000Y-83000000D03*
X112300000Y-64100000D03*
X98200000Y-62510000D03*
D50*
X99180000Y-89952000D03*
X99303999Y-91276587D03*
D49*
X97323501Y-61136499D03*
D50*
X98130000Y-89952000D03*
X98130000Y-91152000D03*
X110230000Y-60052000D03*
X105630000Y-83602000D03*
X110180000Y-77052000D03*
X110180000Y-78052000D03*
X110230000Y-61052000D03*
X105630000Y-84552000D03*
X106830000Y-81952000D03*
X106830000Y-82952000D03*
%LPD*%
M02*
