G04 #@! TF.GenerationSoftware,KiCad,Pcbnew,9.0.0*
G04 #@! TF.CreationDate,2025-03-22T23:19:33+08:00*
G04 #@! TF.ProjectId,SofleKeyboard,536f666c-654b-4657-9962-6f6172642e6b,rev?*
G04 #@! TF.SameCoordinates,Original*
G04 #@! TF.FileFunction,Paste,Bot*
G04 #@! TF.FilePolarity,Positive*
%FSLAX46Y46*%
G04 Gerber Fmt 4.6, Leading zero omitted, Abs format (unit mm)*
G04 Created by KiCad (PCBNEW 9.0.0) date 2025-03-22 23:19:33*
%MOMM*%
%LPD*%
G01*
G04 APERTURE LIST*
G04 Aperture macros list*
%AMFreePoly0*
4,1,17,2.735355,1.235355,2.750000,1.200000,2.750000,-1.200000,2.735355,-1.235355,2.700000,-1.250000,0.300000,-1.250000,0.264645,-1.235355,0.250000,-1.200000,0.250000,-0.750000,-0.350000,-0.750000,-0.350000,0.750000,0.250000,0.750000,0.250000,1.200000,0.264645,1.235355,0.300000,1.250000,2.700000,1.250000,2.735355,1.235355,2.735355,1.235355,$1*%
%AMFreePoly1*
4,1,19,-0.364645,1.235355,-0.350000,1.200000,-0.350000,0.750000,0.350000,0.750000,0.350000,-0.750000,-0.350000,-0.750000,-0.350000,-1.200000,-0.364645,-1.235355,-0.400000,-1.250000,-2.300000,-1.250000,-2.331235,-1.239043,-2.831235,-0.839043,-2.849694,-0.805522,-2.850000,-0.800000,-2.850000,1.200000,-2.835355,1.235355,-2.800000,1.250000,-0.400000,1.250000,-0.364645,1.235355,-0.364645,1.235355,
$1*%
G04 Aperture macros list end*
%ADD10FreePoly0,0.000000*%
%ADD11FreePoly1,0.000000*%
%ADD12FreePoly0,300.000000*%
%ADD13FreePoly1,300.000000*%
%ADD14FreePoly0,23.000000*%
%ADD15FreePoly1,23.000000*%
%ADD16R,1.143000X0.635000*%
%ADD17R,2.500000X1.200000*%
%ADD18R,1.300000X0.600000*%
%ADD19R,1.300000X0.300000*%
G04 APERTURE END LIST*
D10*
X112000000Y-47500000D03*
D11*
X127700000Y-44900000D03*
D10*
X112000000Y-66600000D03*
D11*
X127700000Y-64000000D03*
D10*
X112000000Y-85600000D03*
D11*
X127700000Y-83000000D03*
D10*
X112000000Y-104600000D03*
D11*
X127700000Y-102000000D03*
D12*
X94615064Y-124798784D03*
D13*
X104716730Y-137095383D03*
D14*
X108798881Y-129419952D03*
D15*
X122234906Y-120892161D03*
D10*
X131000000Y-121300000D03*
D11*
X146700000Y-118700000D03*
D10*
X150000000Y-118700000D03*
D11*
X165700000Y-116100000D03*
D10*
X131000000Y-83100000D03*
D11*
X146700000Y-80500000D03*
D10*
X131000000Y-102200000D03*
D11*
X146700000Y-99600000D03*
D10*
X131000000Y-64100000D03*
D11*
X146700000Y-61500000D03*
D10*
X131000000Y-45000000D03*
D11*
X146700000Y-42400000D03*
D10*
X150000000Y-80700000D03*
D11*
X165700000Y-78100000D03*
D10*
X150000000Y-42510000D03*
D11*
X165700000Y-39910000D03*
D10*
X150000000Y-61600000D03*
D11*
X165700000Y-59000000D03*
D10*
X150000000Y-99700000D03*
D11*
X165700000Y-97100000D03*
D10*
X169000000Y-102200000D03*
D11*
X184700000Y-99600000D03*
D10*
X169000000Y-64000000D03*
D11*
X184700000Y-61400000D03*
D10*
X169000000Y-121200000D03*
D11*
X184700000Y-118600000D03*
D10*
X169000000Y-83100000D03*
D11*
X184700000Y-80500000D03*
D10*
X169000000Y-45000000D03*
D11*
X184700000Y-42400000D03*
D10*
X188000000Y-54000000D03*
D11*
X203700000Y-51400000D03*
D10*
X188000000Y-111100000D03*
D11*
X203700000Y-108500000D03*
D10*
X207000000Y-92100000D03*
D11*
X222700000Y-89500000D03*
D10*
X207050000Y-111100000D03*
D11*
X222750000Y-108500000D03*
D10*
X207000000Y-54000000D03*
D11*
X222700000Y-51400000D03*
D10*
X207000000Y-72900000D03*
D11*
X222700000Y-70300000D03*
D10*
X188000000Y-92100000D03*
D11*
X203700000Y-89500000D03*
D10*
X188000000Y-72900000D03*
D11*
X203700000Y-70300000D03*
D16*
X101300000Y-70200380D03*
X101300000Y-69199620D03*
X98800000Y-70200380D03*
X98800000Y-69199620D03*
X96300000Y-70200380D03*
X96300000Y-69199620D03*
X103900000Y-70200380D03*
X103900000Y-69199620D03*
D17*
X108980000Y-82052000D03*
X108980000Y-84552000D03*
X108980000Y-87052000D03*
X103480000Y-82052000D03*
X103480000Y-84552000D03*
X103480000Y-87052000D03*
D18*
X96290000Y-93762000D03*
X96290000Y-92962000D03*
D19*
X96290000Y-91762000D03*
X96290000Y-90762000D03*
X96290000Y-90262000D03*
X96290000Y-89262000D03*
D18*
X96290000Y-88062000D03*
X96290000Y-87262000D03*
X96290000Y-87262000D03*
X96290000Y-88062000D03*
D19*
X96290000Y-88762000D03*
X96290000Y-89762000D03*
X96290000Y-91262000D03*
X96290000Y-92262000D03*
D18*
X96290000Y-92962000D03*
X96290000Y-93762000D03*
M02*
