%TF.GenerationSoftware,KiCad,Pcbnew,9.0.0*%
%TF.CreationDate,2025-03-22T23:22:35+08:00*%
%TF.ProjectId,SofleKeyboard,536f666c-654b-4657-9962-6f6172642e6b,rev?*%
%TF.SameCoordinates,Original*%
%TF.FileFunction,Drillmap*%
%TF.FilePolarity,Positive*%
%FSLAX45Y45*%
G04 Gerber Fmt 4.5, Leading zero omitted, Abs format (unit mm)*
G04 Created by KiCad (PCBNEW 9.0.0) date 2025-03-22 23:22:35*
%MOMM*%
%LPD*%
G01*
G04 APERTURE LIST*
%ADD10C,0.150000*%
%ADD11C,0.200000*%
%ADD12C,0.170000*%
%ADD13C,0.300000*%
%ADD14C,0.400000*%
G04 APERTURE END LIST*
D10*
X13073000Y-4055200D02*
X11123000Y-4055200D01*
X14973000Y-3805200D02*
X13073000Y-3805200D01*
X14973000Y-3555200D02*
X14973000Y-3805200D01*
X8973000Y-10055200D02*
X8973000Y-12105200D01*
X22473000Y-4705200D02*
X18673000Y-4705200D01*
X16773000Y-3555200D02*
X14973000Y-3555200D01*
X18673000Y-4705200D02*
X18673000Y-3805200D01*
X9553000Y-9513200D02*
X8973000Y-9513200D01*
X8973000Y-9513200D02*
X8973000Y-10055200D01*
X11273000Y-14105200D02*
X13023000Y-13305200D01*
X13023000Y-13305200D02*
X18673000Y-13305200D01*
X22473000Y-12305200D02*
X22473000Y-4705200D01*
X18673000Y-13305200D02*
X22473000Y-12305200D01*
X11123000Y-4055200D02*
X8973000Y-4055200D01*
X13073000Y-3805200D02*
X13073000Y-4055200D01*
X16773000Y-3805200D02*
X16773000Y-3555200D01*
X8973000Y-8589100D02*
X9553000Y-8589100D01*
X8123000Y-12605200D02*
X9573000Y-15105200D01*
X8973000Y-12105200D02*
X8723000Y-12255200D01*
X9573000Y-15105200D02*
X11273000Y-14105200D01*
X9553000Y-8589100D02*
X9553000Y-9513200D01*
X8973000Y-4055200D02*
X8973000Y-8589100D01*
X18673000Y-3805200D02*
X16773000Y-3805200D01*
X8723000Y-12255200D02*
X8123000Y-12605200D01*
D11*
D12*
X9331000Y-12816059D02*
X9501000Y-12986059D01*
X9501000Y-12816059D02*
X9331000Y-12986059D01*
X9839000Y-13695941D02*
X10009000Y-13865941D01*
X10009000Y-13695941D02*
X9839000Y-13865941D01*
X11207383Y-12953491D02*
X11377383Y-13123491D01*
X11377383Y-12953491D02*
X11207383Y-13123491D01*
X11457000Y-4915000D02*
X11627000Y-5085000D01*
X11627000Y-4915000D02*
X11457000Y-5085000D01*
X11457000Y-6825000D02*
X11627000Y-6995000D01*
X11627000Y-6825000D02*
X11457000Y-6995000D01*
X11457000Y-8725000D02*
X11627000Y-8895000D01*
X11627000Y-8725000D02*
X11457000Y-8895000D01*
X11457000Y-10625000D02*
X11627000Y-10795000D01*
X11627000Y-10625000D02*
X11457000Y-10795000D01*
X12142616Y-12556509D02*
X12312616Y-12726509D01*
X12312616Y-12556509D02*
X12142616Y-12726509D01*
X12473000Y-4915000D02*
X12643000Y-5085000D01*
X12643000Y-4915000D02*
X12473000Y-5085000D01*
X12473000Y-6825000D02*
X12643000Y-6995000D01*
X12643000Y-6825000D02*
X12473000Y-6995000D01*
X12473000Y-8725000D02*
X12643000Y-8895000D01*
X12643000Y-8725000D02*
X12473000Y-8895000D01*
X12473000Y-10625000D02*
X12643000Y-10795000D01*
X12643000Y-10625000D02*
X12473000Y-10795000D01*
X13357000Y-4665000D02*
X13527000Y-4835000D01*
X13527000Y-4665000D02*
X13357000Y-4835000D01*
X13357000Y-6575000D02*
X13527000Y-6745000D01*
X13527000Y-6575000D02*
X13357000Y-6745000D01*
X13357000Y-8475000D02*
X13527000Y-8645000D01*
X13527000Y-8475000D02*
X13357000Y-8645000D01*
X13357000Y-10385000D02*
X13527000Y-10555000D01*
X13527000Y-10385000D02*
X13357000Y-10555000D01*
X13357000Y-12295000D02*
X13527000Y-12465000D01*
X13527000Y-12295000D02*
X13357000Y-12465000D01*
X14373000Y-4665000D02*
X14543000Y-4835000D01*
X14543000Y-4665000D02*
X14373000Y-4835000D01*
X14373000Y-6575000D02*
X14543000Y-6745000D01*
X14543000Y-6575000D02*
X14373000Y-6745000D01*
X14373000Y-8475000D02*
X14543000Y-8645000D01*
X14543000Y-8475000D02*
X14373000Y-8645000D01*
X14373000Y-10385000D02*
X14543000Y-10555000D01*
X14543000Y-10385000D02*
X14373000Y-10555000D01*
X14373000Y-12295000D02*
X14543000Y-12465000D01*
X14543000Y-12295000D02*
X14373000Y-12465000D01*
X15257000Y-4416000D02*
X15427000Y-4586000D01*
X15427000Y-4416000D02*
X15257000Y-4586000D01*
X15257000Y-6325000D02*
X15427000Y-6495000D01*
X15427000Y-6325000D02*
X15257000Y-6495000D01*
X15257000Y-8235000D02*
X15427000Y-8405000D01*
X15427000Y-8235000D02*
X15257000Y-8405000D01*
X15257000Y-10135000D02*
X15427000Y-10305000D01*
X15427000Y-10135000D02*
X15257000Y-10305000D01*
X15257000Y-12035000D02*
X15427000Y-12205000D01*
X15427000Y-12035000D02*
X15257000Y-12205000D01*
X16273000Y-4416000D02*
X16443000Y-4586000D01*
X16443000Y-4416000D02*
X16273000Y-4586000D01*
X16273000Y-6325000D02*
X16443000Y-6495000D01*
X16443000Y-6325000D02*
X16273000Y-6495000D01*
X16273000Y-8235000D02*
X16443000Y-8405000D01*
X16443000Y-8235000D02*
X16273000Y-8405000D01*
X16273000Y-10135000D02*
X16443000Y-10305000D01*
X16443000Y-10135000D02*
X16273000Y-10305000D01*
X16273000Y-12035000D02*
X16443000Y-12205000D01*
X16443000Y-12035000D02*
X16273000Y-12205000D01*
X17157000Y-4665000D02*
X17327000Y-4835000D01*
X17327000Y-4665000D02*
X17157000Y-4835000D01*
X17157000Y-6565000D02*
X17327000Y-6735000D01*
X17327000Y-6565000D02*
X17157000Y-6735000D01*
X17157000Y-8475000D02*
X17327000Y-8645000D01*
X17327000Y-8475000D02*
X17157000Y-8645000D01*
X17157000Y-10385000D02*
X17327000Y-10555000D01*
X17327000Y-10385000D02*
X17157000Y-10555000D01*
X17157000Y-12285000D02*
X17327000Y-12455000D01*
X17327000Y-12285000D02*
X17157000Y-12455000D01*
X18173000Y-4665000D02*
X18343000Y-4835000D01*
X18343000Y-4665000D02*
X18173000Y-4835000D01*
X18173000Y-6565000D02*
X18343000Y-6735000D01*
X18343000Y-6565000D02*
X18173000Y-6735000D01*
X18173000Y-8475000D02*
X18343000Y-8645000D01*
X18343000Y-8475000D02*
X18173000Y-8645000D01*
X18173000Y-10385000D02*
X18343000Y-10555000D01*
X18343000Y-10385000D02*
X18173000Y-10555000D01*
X18173000Y-12285000D02*
X18343000Y-12455000D01*
X18343000Y-12285000D02*
X18173000Y-12455000D01*
X19057000Y-5565000D02*
X19227000Y-5735000D01*
X19227000Y-5565000D02*
X19057000Y-5735000D01*
X19057000Y-7455000D02*
X19227000Y-7625000D01*
X19227000Y-7455000D02*
X19057000Y-7625000D01*
X19057000Y-9375000D02*
X19227000Y-9545000D01*
X19227000Y-9375000D02*
X19057000Y-9545000D01*
X19057000Y-11275000D02*
X19227000Y-11445000D01*
X19227000Y-11275000D02*
X19057000Y-11445000D01*
X20073000Y-5565000D02*
X20243000Y-5735000D01*
X20243000Y-5565000D02*
X20073000Y-5735000D01*
X20073000Y-7455000D02*
X20243000Y-7625000D01*
X20243000Y-7455000D02*
X20073000Y-7625000D01*
X20073000Y-9375000D02*
X20243000Y-9545000D01*
X20243000Y-9375000D02*
X20073000Y-9545000D01*
X20073000Y-11275000D02*
X20243000Y-11445000D01*
X20243000Y-11275000D02*
X20073000Y-11445000D01*
X20957000Y-5565000D02*
X21127000Y-5735000D01*
X21127000Y-5565000D02*
X20957000Y-5735000D01*
X20957000Y-7455000D02*
X21127000Y-7625000D01*
X21127000Y-7455000D02*
X20957000Y-7625000D01*
X20957000Y-9375000D02*
X21127000Y-9545000D01*
X21127000Y-9375000D02*
X20957000Y-9545000D01*
X20962000Y-11275000D02*
X21132000Y-11445000D01*
X21132000Y-11275000D02*
X20962000Y-11445000D01*
X21973000Y-5565000D02*
X22143000Y-5735000D01*
X22143000Y-5565000D02*
X21973000Y-5735000D01*
X21973000Y-7455000D02*
X22143000Y-7625000D01*
X22143000Y-7455000D02*
X21973000Y-7625000D01*
X21973000Y-9375000D02*
X22143000Y-9545000D01*
X22143000Y-9375000D02*
X21973000Y-9545000D01*
X21978000Y-11275000D02*
X22148000Y-11445000D01*
X22148000Y-11275000D02*
X21978000Y-11445000D01*
D13*
X9849471Y-12884044D02*
G75*
G02*
X9549471Y-12884044I-150000J0D01*
G01*
X9549471Y-12884044D02*
G75*
G02*
X9849471Y-12884044I150000J0D01*
G01*
X10132941Y-12867029D02*
G75*
G02*
X9832941Y-12867029I-150000J0D01*
G01*
X9832941Y-12867029D02*
G75*
G02*
X10132941Y-12867029I150000J0D01*
G01*
X10230471Y-13543956D02*
G75*
G02*
X9930471Y-13543956I-150000J0D01*
G01*
X9930471Y-13543956D02*
G75*
G02*
X10230471Y-13543956I150000J0D01*
G01*
X10386941Y-13306970D02*
G75*
G02*
X10086941Y-13306970I-150000J0D01*
G01*
X10086941Y-13306970D02*
G75*
G02*
X10386941Y-13306970I150000J0D01*
G01*
X11460042Y-12755060D02*
G75*
G02*
X11160042Y-12755060I-150000J0D01*
G01*
X11160042Y-12755060D02*
G75*
G02*
X11460042Y-12755060I150000J0D01*
G01*
X11477700Y-12471629D02*
G75*
G02*
X11177700Y-12471629I-150000J0D01*
G01*
X11177700Y-12471629D02*
G75*
G02*
X11477700Y-12471629I150000J0D01*
G01*
X11819000Y-4746000D02*
G75*
G02*
X11519000Y-4746000I-150000J0D01*
G01*
X11519000Y-4746000D02*
G75*
G02*
X11819000Y-4746000I150000J0D01*
G01*
X11819000Y-6656000D02*
G75*
G02*
X11519000Y-6656000I-150000J0D01*
G01*
X11519000Y-6656000D02*
G75*
G02*
X11819000Y-6656000I150000J0D01*
G01*
X11819000Y-8556000D02*
G75*
G02*
X11519000Y-8556000I-150000J0D01*
G01*
X11519000Y-8556000D02*
G75*
G02*
X11819000Y-8556000I150000J0D01*
G01*
X11819000Y-10456000D02*
G75*
G02*
X11519000Y-10456000I-150000J0D01*
G01*
X11519000Y-10456000D02*
G75*
G02*
X11819000Y-10456000I150000J0D01*
G01*
X11945317Y-12273138D02*
G75*
G02*
X11645317Y-12273138I-150000J0D01*
G01*
X11645317Y-12273138D02*
G75*
G02*
X11945317Y-12273138I150000J0D01*
G01*
X11946000Y-4492000D02*
G75*
G02*
X11646000Y-4492000I-150000J0D01*
G01*
X11646000Y-4492000D02*
G75*
G02*
X11946000Y-4492000I150000J0D01*
G01*
X11946000Y-6402000D02*
G75*
G02*
X11646000Y-6402000I-150000J0D01*
G01*
X11646000Y-6402000D02*
G75*
G02*
X11946000Y-6402000I150000J0D01*
G01*
X11946000Y-8302000D02*
G75*
G02*
X11646000Y-8302000I-150000J0D01*
G01*
X11646000Y-8302000D02*
G75*
G02*
X11946000Y-8302000I150000J0D01*
G01*
X11946000Y-10202000D02*
G75*
G02*
X11646000Y-10202000I-150000J0D01*
G01*
X11646000Y-10202000D02*
G75*
G02*
X11946000Y-10202000I150000J0D01*
G01*
X12161467Y-12457323D02*
G75*
G02*
X11861467Y-12457323I-150000J0D01*
G01*
X11861467Y-12457323D02*
G75*
G02*
X12161467Y-12457323I150000J0D01*
G01*
X12454000Y-4492000D02*
G75*
G02*
X12154000Y-4492000I-150000J0D01*
G01*
X12154000Y-4492000D02*
G75*
G02*
X12454000Y-4492000I150000J0D01*
G01*
X12454000Y-6402000D02*
G75*
G02*
X12154000Y-6402000I-150000J0D01*
G01*
X12154000Y-6402000D02*
G75*
G02*
X12454000Y-6402000I150000J0D01*
G01*
X12454000Y-8302000D02*
G75*
G02*
X12154000Y-8302000I-150000J0D01*
G01*
X12154000Y-8302000D02*
G75*
G02*
X12454000Y-8302000I150000J0D01*
G01*
X12454000Y-10202000D02*
G75*
G02*
X12154000Y-10202000I-150000J0D01*
G01*
X12154000Y-10202000D02*
G75*
G02*
X12454000Y-10202000I150000J0D01*
G01*
X12581000Y-4746000D02*
G75*
G02*
X12281000Y-4746000I-150000J0D01*
G01*
X12281000Y-4746000D02*
G75*
G02*
X12581000Y-4746000I150000J0D01*
G01*
X12581000Y-6656000D02*
G75*
G02*
X12281000Y-6656000I-150000J0D01*
G01*
X12281000Y-6656000D02*
G75*
G02*
X12581000Y-6656000I150000J0D01*
G01*
X12581000Y-8556000D02*
G75*
G02*
X12281000Y-8556000I-150000J0D01*
G01*
X12281000Y-8556000D02*
G75*
G02*
X12581000Y-8556000I150000J0D01*
G01*
X12581000Y-10456000D02*
G75*
G02*
X12281000Y-10456000I-150000J0D01*
G01*
X12281000Y-10456000D02*
G75*
G02*
X12581000Y-10456000I150000J0D01*
G01*
X13719000Y-4496000D02*
G75*
G02*
X13419000Y-4496000I-150000J0D01*
G01*
X13419000Y-4496000D02*
G75*
G02*
X13719000Y-4496000I150000J0D01*
G01*
X13719000Y-6406000D02*
G75*
G02*
X13419000Y-6406000I-150000J0D01*
G01*
X13419000Y-6406000D02*
G75*
G02*
X13719000Y-6406000I150000J0D01*
G01*
X13719000Y-8306000D02*
G75*
G02*
X13419000Y-8306000I-150000J0D01*
G01*
X13419000Y-8306000D02*
G75*
G02*
X13719000Y-8306000I150000J0D01*
G01*
X13719000Y-10216000D02*
G75*
G02*
X13419000Y-10216000I-150000J0D01*
G01*
X13419000Y-10216000D02*
G75*
G02*
X13719000Y-10216000I150000J0D01*
G01*
X13719000Y-12126000D02*
G75*
G02*
X13419000Y-12126000I-150000J0D01*
G01*
X13419000Y-12126000D02*
G75*
G02*
X13719000Y-12126000I150000J0D01*
G01*
X13846000Y-4242000D02*
G75*
G02*
X13546000Y-4242000I-150000J0D01*
G01*
X13546000Y-4242000D02*
G75*
G02*
X13846000Y-4242000I150000J0D01*
G01*
X13846000Y-6152000D02*
G75*
G02*
X13546000Y-6152000I-150000J0D01*
G01*
X13546000Y-6152000D02*
G75*
G02*
X13846000Y-6152000I150000J0D01*
G01*
X13846000Y-8052000D02*
G75*
G02*
X13546000Y-8052000I-150000J0D01*
G01*
X13546000Y-8052000D02*
G75*
G02*
X13846000Y-8052000I150000J0D01*
G01*
X13846000Y-9962000D02*
G75*
G02*
X13546000Y-9962000I-150000J0D01*
G01*
X13546000Y-9962000D02*
G75*
G02*
X13846000Y-9962000I150000J0D01*
G01*
X13846000Y-11872000D02*
G75*
G02*
X13546000Y-11872000I-150000J0D01*
G01*
X13546000Y-11872000D02*
G75*
G02*
X13846000Y-11872000I150000J0D01*
G01*
X14354000Y-4242000D02*
G75*
G02*
X14054000Y-4242000I-150000J0D01*
G01*
X14054000Y-4242000D02*
G75*
G02*
X14354000Y-4242000I150000J0D01*
G01*
X14354000Y-6152000D02*
G75*
G02*
X14054000Y-6152000I-150000J0D01*
G01*
X14054000Y-6152000D02*
G75*
G02*
X14354000Y-6152000I150000J0D01*
G01*
X14354000Y-8052000D02*
G75*
G02*
X14054000Y-8052000I-150000J0D01*
G01*
X14054000Y-8052000D02*
G75*
G02*
X14354000Y-8052000I150000J0D01*
G01*
X14354000Y-9962000D02*
G75*
G02*
X14054000Y-9962000I-150000J0D01*
G01*
X14054000Y-9962000D02*
G75*
G02*
X14354000Y-9962000I150000J0D01*
G01*
X14354000Y-11872000D02*
G75*
G02*
X14054000Y-11872000I-150000J0D01*
G01*
X14054000Y-11872000D02*
G75*
G02*
X14354000Y-11872000I150000J0D01*
G01*
X14481000Y-4496000D02*
G75*
G02*
X14181000Y-4496000I-150000J0D01*
G01*
X14181000Y-4496000D02*
G75*
G02*
X14481000Y-4496000I150000J0D01*
G01*
X14481000Y-6406000D02*
G75*
G02*
X14181000Y-6406000I-150000J0D01*
G01*
X14181000Y-6406000D02*
G75*
G02*
X14481000Y-6406000I150000J0D01*
G01*
X14481000Y-8306000D02*
G75*
G02*
X14181000Y-8306000I-150000J0D01*
G01*
X14181000Y-8306000D02*
G75*
G02*
X14481000Y-8306000I150000J0D01*
G01*
X14481000Y-10216000D02*
G75*
G02*
X14181000Y-10216000I-150000J0D01*
G01*
X14181000Y-10216000D02*
G75*
G02*
X14481000Y-10216000I150000J0D01*
G01*
X14481000Y-12126000D02*
G75*
G02*
X14181000Y-12126000I-150000J0D01*
G01*
X14181000Y-12126000D02*
G75*
G02*
X14481000Y-12126000I150000J0D01*
G01*
X15619000Y-4247000D02*
G75*
G02*
X15319000Y-4247000I-150000J0D01*
G01*
X15319000Y-4247000D02*
G75*
G02*
X15619000Y-4247000I150000J0D01*
G01*
X15619000Y-6156000D02*
G75*
G02*
X15319000Y-6156000I-150000J0D01*
G01*
X15319000Y-6156000D02*
G75*
G02*
X15619000Y-6156000I150000J0D01*
G01*
X15619000Y-8066000D02*
G75*
G02*
X15319000Y-8066000I-150000J0D01*
G01*
X15319000Y-8066000D02*
G75*
G02*
X15619000Y-8066000I150000J0D01*
G01*
X15619000Y-9966000D02*
G75*
G02*
X15319000Y-9966000I-150000J0D01*
G01*
X15319000Y-9966000D02*
G75*
G02*
X15619000Y-9966000I150000J0D01*
G01*
X15619000Y-11866000D02*
G75*
G02*
X15319000Y-11866000I-150000J0D01*
G01*
X15319000Y-11866000D02*
G75*
G02*
X15619000Y-11866000I150000J0D01*
G01*
X15746000Y-3993000D02*
G75*
G02*
X15446000Y-3993000I-150000J0D01*
G01*
X15446000Y-3993000D02*
G75*
G02*
X15746000Y-3993000I150000J0D01*
G01*
X15746000Y-5902000D02*
G75*
G02*
X15446000Y-5902000I-150000J0D01*
G01*
X15446000Y-5902000D02*
G75*
G02*
X15746000Y-5902000I150000J0D01*
G01*
X15746000Y-7812000D02*
G75*
G02*
X15446000Y-7812000I-150000J0D01*
G01*
X15446000Y-7812000D02*
G75*
G02*
X15746000Y-7812000I150000J0D01*
G01*
X15746000Y-9712000D02*
G75*
G02*
X15446000Y-9712000I-150000J0D01*
G01*
X15446000Y-9712000D02*
G75*
G02*
X15746000Y-9712000I150000J0D01*
G01*
X15746000Y-11612000D02*
G75*
G02*
X15446000Y-11612000I-150000J0D01*
G01*
X15446000Y-11612000D02*
G75*
G02*
X15746000Y-11612000I150000J0D01*
G01*
X16254000Y-3993000D02*
G75*
G02*
X15954000Y-3993000I-150000J0D01*
G01*
X15954000Y-3993000D02*
G75*
G02*
X16254000Y-3993000I150000J0D01*
G01*
X16254000Y-5902000D02*
G75*
G02*
X15954000Y-5902000I-150000J0D01*
G01*
X15954000Y-5902000D02*
G75*
G02*
X16254000Y-5902000I150000J0D01*
G01*
X16254000Y-7812000D02*
G75*
G02*
X15954000Y-7812000I-150000J0D01*
G01*
X15954000Y-7812000D02*
G75*
G02*
X16254000Y-7812000I150000J0D01*
G01*
X16254000Y-9712000D02*
G75*
G02*
X15954000Y-9712000I-150000J0D01*
G01*
X15954000Y-9712000D02*
G75*
G02*
X16254000Y-9712000I150000J0D01*
G01*
X16254000Y-11612000D02*
G75*
G02*
X15954000Y-11612000I-150000J0D01*
G01*
X15954000Y-11612000D02*
G75*
G02*
X16254000Y-11612000I150000J0D01*
G01*
X16381000Y-4247000D02*
G75*
G02*
X16081000Y-4247000I-150000J0D01*
G01*
X16081000Y-4247000D02*
G75*
G02*
X16381000Y-4247000I150000J0D01*
G01*
X16381000Y-6156000D02*
G75*
G02*
X16081000Y-6156000I-150000J0D01*
G01*
X16081000Y-6156000D02*
G75*
G02*
X16381000Y-6156000I150000J0D01*
G01*
X16381000Y-8066000D02*
G75*
G02*
X16081000Y-8066000I-150000J0D01*
G01*
X16081000Y-8066000D02*
G75*
G02*
X16381000Y-8066000I150000J0D01*
G01*
X16381000Y-9966000D02*
G75*
G02*
X16081000Y-9966000I-150000J0D01*
G01*
X16081000Y-9966000D02*
G75*
G02*
X16381000Y-9966000I150000J0D01*
G01*
X16381000Y-11866000D02*
G75*
G02*
X16081000Y-11866000I-150000J0D01*
G01*
X16081000Y-11866000D02*
G75*
G02*
X16381000Y-11866000I150000J0D01*
G01*
X17519000Y-4496000D02*
G75*
G02*
X17219000Y-4496000I-150000J0D01*
G01*
X17219000Y-4496000D02*
G75*
G02*
X17519000Y-4496000I150000J0D01*
G01*
X17519000Y-6396000D02*
G75*
G02*
X17219000Y-6396000I-150000J0D01*
G01*
X17219000Y-6396000D02*
G75*
G02*
X17519000Y-6396000I150000J0D01*
G01*
X17519000Y-8306000D02*
G75*
G02*
X17219000Y-8306000I-150000J0D01*
G01*
X17219000Y-8306000D02*
G75*
G02*
X17519000Y-8306000I150000J0D01*
G01*
X17519000Y-10216000D02*
G75*
G02*
X17219000Y-10216000I-150000J0D01*
G01*
X17219000Y-10216000D02*
G75*
G02*
X17519000Y-10216000I150000J0D01*
G01*
X17519000Y-12116000D02*
G75*
G02*
X17219000Y-12116000I-150000J0D01*
G01*
X17219000Y-12116000D02*
G75*
G02*
X17519000Y-12116000I150000J0D01*
G01*
X17646000Y-4242000D02*
G75*
G02*
X17346000Y-4242000I-150000J0D01*
G01*
X17346000Y-4242000D02*
G75*
G02*
X17646000Y-4242000I150000J0D01*
G01*
X17646000Y-6142000D02*
G75*
G02*
X17346000Y-6142000I-150000J0D01*
G01*
X17346000Y-6142000D02*
G75*
G02*
X17646000Y-6142000I150000J0D01*
G01*
X17646000Y-8052000D02*
G75*
G02*
X17346000Y-8052000I-150000J0D01*
G01*
X17346000Y-8052000D02*
G75*
G02*
X17646000Y-8052000I150000J0D01*
G01*
X17646000Y-9962000D02*
G75*
G02*
X17346000Y-9962000I-150000J0D01*
G01*
X17346000Y-9962000D02*
G75*
G02*
X17646000Y-9962000I150000J0D01*
G01*
X17646000Y-11862000D02*
G75*
G02*
X17346000Y-11862000I-150000J0D01*
G01*
X17346000Y-11862000D02*
G75*
G02*
X17646000Y-11862000I150000J0D01*
G01*
X18154000Y-4242000D02*
G75*
G02*
X17854000Y-4242000I-150000J0D01*
G01*
X17854000Y-4242000D02*
G75*
G02*
X18154000Y-4242000I150000J0D01*
G01*
X18154000Y-6142000D02*
G75*
G02*
X17854000Y-6142000I-150000J0D01*
G01*
X17854000Y-6142000D02*
G75*
G02*
X18154000Y-6142000I150000J0D01*
G01*
X18154000Y-8052000D02*
G75*
G02*
X17854000Y-8052000I-150000J0D01*
G01*
X17854000Y-8052000D02*
G75*
G02*
X18154000Y-8052000I150000J0D01*
G01*
X18154000Y-9962000D02*
G75*
G02*
X17854000Y-9962000I-150000J0D01*
G01*
X17854000Y-9962000D02*
G75*
G02*
X18154000Y-9962000I150000J0D01*
G01*
X18154000Y-11862000D02*
G75*
G02*
X17854000Y-11862000I-150000J0D01*
G01*
X17854000Y-11862000D02*
G75*
G02*
X18154000Y-11862000I150000J0D01*
G01*
X18281000Y-4496000D02*
G75*
G02*
X17981000Y-4496000I-150000J0D01*
G01*
X17981000Y-4496000D02*
G75*
G02*
X18281000Y-4496000I150000J0D01*
G01*
X18281000Y-6396000D02*
G75*
G02*
X17981000Y-6396000I-150000J0D01*
G01*
X17981000Y-6396000D02*
G75*
G02*
X18281000Y-6396000I150000J0D01*
G01*
X18281000Y-8306000D02*
G75*
G02*
X17981000Y-8306000I-150000J0D01*
G01*
X17981000Y-8306000D02*
G75*
G02*
X18281000Y-8306000I150000J0D01*
G01*
X18281000Y-10216000D02*
G75*
G02*
X17981000Y-10216000I-150000J0D01*
G01*
X17981000Y-10216000D02*
G75*
G02*
X18281000Y-10216000I150000J0D01*
G01*
X18281000Y-12116000D02*
G75*
G02*
X17981000Y-12116000I-150000J0D01*
G01*
X17981000Y-12116000D02*
G75*
G02*
X18281000Y-12116000I150000J0D01*
G01*
X19419000Y-5396000D02*
G75*
G02*
X19119000Y-5396000I-150000J0D01*
G01*
X19119000Y-5396000D02*
G75*
G02*
X19419000Y-5396000I150000J0D01*
G01*
X19419000Y-7286000D02*
G75*
G02*
X19119000Y-7286000I-150000J0D01*
G01*
X19119000Y-7286000D02*
G75*
G02*
X19419000Y-7286000I150000J0D01*
G01*
X19419000Y-9206000D02*
G75*
G02*
X19119000Y-9206000I-150000J0D01*
G01*
X19119000Y-9206000D02*
G75*
G02*
X19419000Y-9206000I150000J0D01*
G01*
X19419000Y-11106000D02*
G75*
G02*
X19119000Y-11106000I-150000J0D01*
G01*
X19119000Y-11106000D02*
G75*
G02*
X19419000Y-11106000I150000J0D01*
G01*
X19546000Y-5142000D02*
G75*
G02*
X19246000Y-5142000I-150000J0D01*
G01*
X19246000Y-5142000D02*
G75*
G02*
X19546000Y-5142000I150000J0D01*
G01*
X19546000Y-7032000D02*
G75*
G02*
X19246000Y-7032000I-150000J0D01*
G01*
X19246000Y-7032000D02*
G75*
G02*
X19546000Y-7032000I150000J0D01*
G01*
X19546000Y-8952000D02*
G75*
G02*
X19246000Y-8952000I-150000J0D01*
G01*
X19246000Y-8952000D02*
G75*
G02*
X19546000Y-8952000I150000J0D01*
G01*
X19546000Y-10852000D02*
G75*
G02*
X19246000Y-10852000I-150000J0D01*
G01*
X19246000Y-10852000D02*
G75*
G02*
X19546000Y-10852000I150000J0D01*
G01*
X20054000Y-5142000D02*
G75*
G02*
X19754000Y-5142000I-150000J0D01*
G01*
X19754000Y-5142000D02*
G75*
G02*
X20054000Y-5142000I150000J0D01*
G01*
X20054000Y-7032000D02*
G75*
G02*
X19754000Y-7032000I-150000J0D01*
G01*
X19754000Y-7032000D02*
G75*
G02*
X20054000Y-7032000I150000J0D01*
G01*
X20054000Y-8952000D02*
G75*
G02*
X19754000Y-8952000I-150000J0D01*
G01*
X19754000Y-8952000D02*
G75*
G02*
X20054000Y-8952000I150000J0D01*
G01*
X20054000Y-10852000D02*
G75*
G02*
X19754000Y-10852000I-150000J0D01*
G01*
X19754000Y-10852000D02*
G75*
G02*
X20054000Y-10852000I150000J0D01*
G01*
X20181000Y-5396000D02*
G75*
G02*
X19881000Y-5396000I-150000J0D01*
G01*
X19881000Y-5396000D02*
G75*
G02*
X20181000Y-5396000I150000J0D01*
G01*
X20181000Y-7286000D02*
G75*
G02*
X19881000Y-7286000I-150000J0D01*
G01*
X19881000Y-7286000D02*
G75*
G02*
X20181000Y-7286000I150000J0D01*
G01*
X20181000Y-9206000D02*
G75*
G02*
X19881000Y-9206000I-150000J0D01*
G01*
X19881000Y-9206000D02*
G75*
G02*
X20181000Y-9206000I150000J0D01*
G01*
X20181000Y-11106000D02*
G75*
G02*
X19881000Y-11106000I-150000J0D01*
G01*
X19881000Y-11106000D02*
G75*
G02*
X20181000Y-11106000I150000J0D01*
G01*
X21319000Y-5396000D02*
G75*
G02*
X21019000Y-5396000I-150000J0D01*
G01*
X21019000Y-5396000D02*
G75*
G02*
X21319000Y-5396000I150000J0D01*
G01*
X21319000Y-7286000D02*
G75*
G02*
X21019000Y-7286000I-150000J0D01*
G01*
X21019000Y-7286000D02*
G75*
G02*
X21319000Y-7286000I150000J0D01*
G01*
X21319000Y-9206000D02*
G75*
G02*
X21019000Y-9206000I-150000J0D01*
G01*
X21019000Y-9206000D02*
G75*
G02*
X21319000Y-9206000I150000J0D01*
G01*
X21324000Y-11106000D02*
G75*
G02*
X21024000Y-11106000I-150000J0D01*
G01*
X21024000Y-11106000D02*
G75*
G02*
X21324000Y-11106000I150000J0D01*
G01*
X21446000Y-5142000D02*
G75*
G02*
X21146000Y-5142000I-150000J0D01*
G01*
X21146000Y-5142000D02*
G75*
G02*
X21446000Y-5142000I150000J0D01*
G01*
X21446000Y-7032000D02*
G75*
G02*
X21146000Y-7032000I-150000J0D01*
G01*
X21146000Y-7032000D02*
G75*
G02*
X21446000Y-7032000I150000J0D01*
G01*
X21446000Y-8952000D02*
G75*
G02*
X21146000Y-8952000I-150000J0D01*
G01*
X21146000Y-8952000D02*
G75*
G02*
X21446000Y-8952000I150000J0D01*
G01*
X21451000Y-10852000D02*
G75*
G02*
X21151000Y-10852000I-150000J0D01*
G01*
X21151000Y-10852000D02*
G75*
G02*
X21451000Y-10852000I150000J0D01*
G01*
X21954000Y-5142000D02*
G75*
G02*
X21654000Y-5142000I-150000J0D01*
G01*
X21654000Y-5142000D02*
G75*
G02*
X21954000Y-5142000I150000J0D01*
G01*
X21954000Y-7032000D02*
G75*
G02*
X21654000Y-7032000I-150000J0D01*
G01*
X21654000Y-7032000D02*
G75*
G02*
X21954000Y-7032000I150000J0D01*
G01*
X21954000Y-8952000D02*
G75*
G02*
X21654000Y-8952000I-150000J0D01*
G01*
X21654000Y-8952000D02*
G75*
G02*
X21954000Y-8952000I150000J0D01*
G01*
X21959000Y-10852000D02*
G75*
G02*
X21659000Y-10852000I-150000J0D01*
G01*
X21659000Y-10852000D02*
G75*
G02*
X21959000Y-10852000I150000J0D01*
G01*
X22081000Y-5396000D02*
G75*
G02*
X21781000Y-5396000I-150000J0D01*
G01*
X21781000Y-5396000D02*
G75*
G02*
X22081000Y-5396000I150000J0D01*
G01*
X22081000Y-7286000D02*
G75*
G02*
X21781000Y-7286000I-150000J0D01*
G01*
X21781000Y-7286000D02*
G75*
G02*
X22081000Y-7286000I150000J0D01*
G01*
X22081000Y-9206000D02*
G75*
G02*
X21781000Y-9206000I-150000J0D01*
G01*
X21781000Y-9206000D02*
G75*
G02*
X22081000Y-9206000I150000J0D01*
G01*
X22086000Y-11106000D02*
G75*
G02*
X21786000Y-11106000I-150000J0D01*
G01*
X21786000Y-11106000D02*
G75*
G02*
X22086000Y-11106000I150000J0D01*
G01*
D14*
X9670000Y-13141000D02*
X9670000Y-13541000D01*
X9470000Y-13341000D02*
X9870000Y-13341000D01*
X11760000Y-12640000D02*
X11760000Y-13040000D01*
X11560000Y-12840000D02*
X11960000Y-12840000D01*
X12050000Y-4800000D02*
X12050000Y-5200000D01*
X11850000Y-5000000D02*
X12250000Y-5000000D01*
X12050000Y-6710000D02*
X12050000Y-7110000D01*
X11850000Y-6910000D02*
X12250000Y-6910000D01*
X12050000Y-8610000D02*
X12050000Y-9010000D01*
X11850000Y-8810000D02*
X12250000Y-8810000D01*
X12050000Y-10510000D02*
X12050000Y-10910000D01*
X11850000Y-10710000D02*
X12250000Y-10710000D01*
X13950000Y-4550000D02*
X13950000Y-4950000D01*
X13750000Y-4750000D02*
X14150000Y-4750000D01*
X13950000Y-6460000D02*
X13950000Y-6860000D01*
X13750000Y-6660000D02*
X14150000Y-6660000D01*
X13950000Y-8360000D02*
X13950000Y-8760000D01*
X13750000Y-8560000D02*
X14150000Y-8560000D01*
X13950000Y-10270000D02*
X13950000Y-10670000D01*
X13750000Y-10470000D02*
X14150000Y-10470000D01*
X13950000Y-12180000D02*
X13950000Y-12580000D01*
X13750000Y-12380000D02*
X14150000Y-12380000D01*
X15850000Y-4301000D02*
X15850000Y-4701000D01*
X15650000Y-4501000D02*
X16050000Y-4501000D01*
X15850000Y-6210000D02*
X15850000Y-6610000D01*
X15650000Y-6410000D02*
X16050000Y-6410000D01*
X15850000Y-8120000D02*
X15850000Y-8520000D01*
X15650000Y-8320000D02*
X16050000Y-8320000D01*
X15850000Y-10020000D02*
X15850000Y-10420000D01*
X15650000Y-10220000D02*
X16050000Y-10220000D01*
X15850000Y-11920000D02*
X15850000Y-12320000D01*
X15650000Y-12120000D02*
X16050000Y-12120000D01*
X17750000Y-4550000D02*
X17750000Y-4950000D01*
X17550000Y-4750000D02*
X17950000Y-4750000D01*
X17750000Y-6450000D02*
X17750000Y-6850000D01*
X17550000Y-6650000D02*
X17950000Y-6650000D01*
X17750000Y-8360000D02*
X17750000Y-8760000D01*
X17550000Y-8560000D02*
X17950000Y-8560000D01*
X17750000Y-10270000D02*
X17750000Y-10670000D01*
X17550000Y-10470000D02*
X17950000Y-10470000D01*
X17750000Y-12170000D02*
X17750000Y-12570000D01*
X17550000Y-12370000D02*
X17950000Y-12370000D01*
X19650000Y-5450000D02*
X19650000Y-5850000D01*
X19450000Y-5650000D02*
X19850000Y-5650000D01*
X19650000Y-7340000D02*
X19650000Y-7740000D01*
X19450000Y-7540000D02*
X19850000Y-7540000D01*
X19650000Y-9260000D02*
X19650000Y-9660000D01*
X19450000Y-9460000D02*
X19850000Y-9460000D01*
X19650000Y-11160000D02*
X19650000Y-11560000D01*
X19450000Y-11360000D02*
X19850000Y-11360000D01*
X21550000Y-5450000D02*
X21550000Y-5850000D01*
X21350000Y-5650000D02*
X21750000Y-5650000D01*
X21550000Y-7340000D02*
X21550000Y-7740000D01*
X21350000Y-7540000D02*
X21750000Y-7540000D01*
X21550000Y-9260000D02*
X21550000Y-9660000D01*
X21350000Y-9460000D02*
X21750000Y-9460000D01*
X21555000Y-11160000D02*
X21555000Y-11560000D01*
X21355000Y-11360000D02*
X21755000Y-11360000D01*
D11*
X8376277Y-15424184D02*
X8376277Y-15224184D01*
X8376277Y-15224184D02*
X8423896Y-15224184D01*
X8423896Y-15224184D02*
X8452467Y-15233708D01*
X8452467Y-15233708D02*
X8471515Y-15252755D01*
X8471515Y-15252755D02*
X8481039Y-15271803D01*
X8481039Y-15271803D02*
X8490563Y-15309898D01*
X8490563Y-15309898D02*
X8490563Y-15338469D01*
X8490563Y-15338469D02*
X8481039Y-15376565D01*
X8481039Y-15376565D02*
X8471515Y-15395612D01*
X8471515Y-15395612D02*
X8452467Y-15414660D01*
X8452467Y-15414660D02*
X8423896Y-15424184D01*
X8423896Y-15424184D02*
X8376277Y-15424184D01*
X8576277Y-15424184D02*
X8576277Y-15290850D01*
X8576277Y-15328946D02*
X8585801Y-15309898D01*
X8585801Y-15309898D02*
X8595324Y-15300374D01*
X8595324Y-15300374D02*
X8614372Y-15290850D01*
X8614372Y-15290850D02*
X8633420Y-15290850D01*
X8700086Y-15424184D02*
X8700086Y-15290850D01*
X8700086Y-15224184D02*
X8690563Y-15233708D01*
X8690563Y-15233708D02*
X8700086Y-15243231D01*
X8700086Y-15243231D02*
X8709610Y-15233708D01*
X8709610Y-15233708D02*
X8700086Y-15224184D01*
X8700086Y-15224184D02*
X8700086Y-15243231D01*
X8823896Y-15424184D02*
X8804848Y-15414660D01*
X8804848Y-15414660D02*
X8795324Y-15395612D01*
X8795324Y-15395612D02*
X8795324Y-15224184D01*
X8928658Y-15424184D02*
X8909610Y-15414660D01*
X8909610Y-15414660D02*
X8900086Y-15395612D01*
X8900086Y-15395612D02*
X8900086Y-15224184D01*
X9157229Y-15424184D02*
X9157229Y-15224184D01*
X9157229Y-15224184D02*
X9223896Y-15367041D01*
X9223896Y-15367041D02*
X9290563Y-15224184D01*
X9290563Y-15224184D02*
X9290563Y-15424184D01*
X9471515Y-15424184D02*
X9471515Y-15319422D01*
X9471515Y-15319422D02*
X9461991Y-15300374D01*
X9461991Y-15300374D02*
X9442944Y-15290850D01*
X9442944Y-15290850D02*
X9404848Y-15290850D01*
X9404848Y-15290850D02*
X9385801Y-15300374D01*
X9471515Y-15414660D02*
X9452467Y-15424184D01*
X9452467Y-15424184D02*
X9404848Y-15424184D01*
X9404848Y-15424184D02*
X9385801Y-15414660D01*
X9385801Y-15414660D02*
X9376277Y-15395612D01*
X9376277Y-15395612D02*
X9376277Y-15376565D01*
X9376277Y-15376565D02*
X9385801Y-15357517D01*
X9385801Y-15357517D02*
X9404848Y-15347993D01*
X9404848Y-15347993D02*
X9452467Y-15347993D01*
X9452467Y-15347993D02*
X9471515Y-15338469D01*
X9566753Y-15290850D02*
X9566753Y-15490850D01*
X9566753Y-15300374D02*
X9585801Y-15290850D01*
X9585801Y-15290850D02*
X9623896Y-15290850D01*
X9623896Y-15290850D02*
X9642944Y-15300374D01*
X9642944Y-15300374D02*
X9652467Y-15309898D01*
X9652467Y-15309898D02*
X9661991Y-15328946D01*
X9661991Y-15328946D02*
X9661991Y-15386088D01*
X9661991Y-15386088D02*
X9652467Y-15405136D01*
X9652467Y-15405136D02*
X9642944Y-15414660D01*
X9642944Y-15414660D02*
X9623896Y-15424184D01*
X9623896Y-15424184D02*
X9585801Y-15424184D01*
X9585801Y-15424184D02*
X9566753Y-15414660D01*
X9747705Y-15405136D02*
X9757229Y-15414660D01*
X9757229Y-15414660D02*
X9747705Y-15424184D01*
X9747705Y-15424184D02*
X9738182Y-15414660D01*
X9738182Y-15414660D02*
X9747705Y-15405136D01*
X9747705Y-15405136D02*
X9747705Y-15424184D01*
X9747705Y-15300374D02*
X9757229Y-15309898D01*
X9757229Y-15309898D02*
X9747705Y-15319422D01*
X9747705Y-15319422D02*
X9738182Y-15309898D01*
X9738182Y-15309898D02*
X9747705Y-15300374D01*
X9747705Y-15300374D02*
X9747705Y-15319422D01*
D12*
X7945500Y-15667700D02*
X8115500Y-15837700D01*
X8115500Y-15667700D02*
X7945500Y-15837700D01*
D11*
X8481039Y-15844184D02*
X8366753Y-15844184D01*
X8423896Y-15844184D02*
X8423896Y-15644184D01*
X8423896Y-15644184D02*
X8404848Y-15672755D01*
X8404848Y-15672755D02*
X8385801Y-15691803D01*
X8385801Y-15691803D02*
X8366753Y-15701327D01*
X8566753Y-15825136D02*
X8576277Y-15834660D01*
X8576277Y-15834660D02*
X8566753Y-15844184D01*
X8566753Y-15844184D02*
X8557229Y-15834660D01*
X8557229Y-15834660D02*
X8566753Y-15825136D01*
X8566753Y-15825136D02*
X8566753Y-15844184D01*
X8642944Y-15644184D02*
X8776277Y-15644184D01*
X8776277Y-15644184D02*
X8690563Y-15844184D01*
X8890563Y-15644184D02*
X8909610Y-15644184D01*
X8909610Y-15644184D02*
X8928658Y-15653708D01*
X8928658Y-15653708D02*
X8938182Y-15663231D01*
X8938182Y-15663231D02*
X8947705Y-15682279D01*
X8947705Y-15682279D02*
X8957229Y-15720374D01*
X8957229Y-15720374D02*
X8957229Y-15767993D01*
X8957229Y-15767993D02*
X8947705Y-15806088D01*
X8947705Y-15806088D02*
X8938182Y-15825136D01*
X8938182Y-15825136D02*
X8928658Y-15834660D01*
X8928658Y-15834660D02*
X8909610Y-15844184D01*
X8909610Y-15844184D02*
X8890563Y-15844184D01*
X8890563Y-15844184D02*
X8871515Y-15834660D01*
X8871515Y-15834660D02*
X8861991Y-15825136D01*
X8861991Y-15825136D02*
X8852467Y-15806088D01*
X8852467Y-15806088D02*
X8842944Y-15767993D01*
X8842944Y-15767993D02*
X8842944Y-15720374D01*
X8842944Y-15720374D02*
X8852467Y-15682279D01*
X8852467Y-15682279D02*
X8861991Y-15663231D01*
X8861991Y-15663231D02*
X8871515Y-15653708D01*
X8871515Y-15653708D02*
X8890563Y-15644184D01*
X9081039Y-15644184D02*
X9100086Y-15644184D01*
X9100086Y-15644184D02*
X9119134Y-15653708D01*
X9119134Y-15653708D02*
X9128658Y-15663231D01*
X9128658Y-15663231D02*
X9138182Y-15682279D01*
X9138182Y-15682279D02*
X9147705Y-15720374D01*
X9147705Y-15720374D02*
X9147705Y-15767993D01*
X9147705Y-15767993D02*
X9138182Y-15806088D01*
X9138182Y-15806088D02*
X9128658Y-15825136D01*
X9128658Y-15825136D02*
X9119134Y-15834660D01*
X9119134Y-15834660D02*
X9100086Y-15844184D01*
X9100086Y-15844184D02*
X9081039Y-15844184D01*
X9081039Y-15844184D02*
X9061991Y-15834660D01*
X9061991Y-15834660D02*
X9052467Y-15825136D01*
X9052467Y-15825136D02*
X9042944Y-15806088D01*
X9042944Y-15806088D02*
X9033420Y-15767993D01*
X9033420Y-15767993D02*
X9033420Y-15720374D01*
X9033420Y-15720374D02*
X9042944Y-15682279D01*
X9042944Y-15682279D02*
X9052467Y-15663231D01*
X9052467Y-15663231D02*
X9061991Y-15653708D01*
X9061991Y-15653708D02*
X9081039Y-15644184D01*
X9233420Y-15844184D02*
X9233420Y-15710850D01*
X9233420Y-15729898D02*
X9242944Y-15720374D01*
X9242944Y-15720374D02*
X9261991Y-15710850D01*
X9261991Y-15710850D02*
X9290563Y-15710850D01*
X9290563Y-15710850D02*
X9309610Y-15720374D01*
X9309610Y-15720374D02*
X9319134Y-15739422D01*
X9319134Y-15739422D02*
X9319134Y-15844184D01*
X9319134Y-15739422D02*
X9328658Y-15720374D01*
X9328658Y-15720374D02*
X9347705Y-15710850D01*
X9347705Y-15710850D02*
X9376277Y-15710850D01*
X9376277Y-15710850D02*
X9395325Y-15720374D01*
X9395325Y-15720374D02*
X9404848Y-15739422D01*
X9404848Y-15739422D02*
X9404848Y-15844184D01*
X9500086Y-15844184D02*
X9500086Y-15710850D01*
X9500086Y-15729898D02*
X9509610Y-15720374D01*
X9509610Y-15720374D02*
X9528658Y-15710850D01*
X9528658Y-15710850D02*
X9557229Y-15710850D01*
X9557229Y-15710850D02*
X9576277Y-15720374D01*
X9576277Y-15720374D02*
X9585801Y-15739422D01*
X9585801Y-15739422D02*
X9585801Y-15844184D01*
X9585801Y-15739422D02*
X9595325Y-15720374D01*
X9595325Y-15720374D02*
X9614372Y-15710850D01*
X9614372Y-15710850D02*
X9642944Y-15710850D01*
X9642944Y-15710850D02*
X9661991Y-15720374D01*
X9661991Y-15720374D02*
X9671515Y-15739422D01*
X9671515Y-15739422D02*
X9671515Y-15844184D01*
X10061991Y-15634660D02*
X9890563Y-15891803D01*
X10319134Y-15644184D02*
X10338182Y-15644184D01*
X10338182Y-15644184D02*
X10357229Y-15653708D01*
X10357229Y-15653708D02*
X10366753Y-15663231D01*
X10366753Y-15663231D02*
X10376277Y-15682279D01*
X10376277Y-15682279D02*
X10385801Y-15720374D01*
X10385801Y-15720374D02*
X10385801Y-15767993D01*
X10385801Y-15767993D02*
X10376277Y-15806088D01*
X10376277Y-15806088D02*
X10366753Y-15825136D01*
X10366753Y-15825136D02*
X10357229Y-15834660D01*
X10357229Y-15834660D02*
X10338182Y-15844184D01*
X10338182Y-15844184D02*
X10319134Y-15844184D01*
X10319134Y-15844184D02*
X10300087Y-15834660D01*
X10300087Y-15834660D02*
X10290563Y-15825136D01*
X10290563Y-15825136D02*
X10281039Y-15806088D01*
X10281039Y-15806088D02*
X10271515Y-15767993D01*
X10271515Y-15767993D02*
X10271515Y-15720374D01*
X10271515Y-15720374D02*
X10281039Y-15682279D01*
X10281039Y-15682279D02*
X10290563Y-15663231D01*
X10290563Y-15663231D02*
X10300087Y-15653708D01*
X10300087Y-15653708D02*
X10319134Y-15644184D01*
X10471515Y-15825136D02*
X10481039Y-15834660D01*
X10481039Y-15834660D02*
X10471515Y-15844184D01*
X10471515Y-15844184D02*
X10461991Y-15834660D01*
X10461991Y-15834660D02*
X10471515Y-15825136D01*
X10471515Y-15825136D02*
X10471515Y-15844184D01*
X10604848Y-15644184D02*
X10623896Y-15644184D01*
X10623896Y-15644184D02*
X10642944Y-15653708D01*
X10642944Y-15653708D02*
X10652468Y-15663231D01*
X10652468Y-15663231D02*
X10661991Y-15682279D01*
X10661991Y-15682279D02*
X10671515Y-15720374D01*
X10671515Y-15720374D02*
X10671515Y-15767993D01*
X10671515Y-15767993D02*
X10661991Y-15806088D01*
X10661991Y-15806088D02*
X10652468Y-15825136D01*
X10652468Y-15825136D02*
X10642944Y-15834660D01*
X10642944Y-15834660D02*
X10623896Y-15844184D01*
X10623896Y-15844184D02*
X10604848Y-15844184D01*
X10604848Y-15844184D02*
X10585801Y-15834660D01*
X10585801Y-15834660D02*
X10576277Y-15825136D01*
X10576277Y-15825136D02*
X10566753Y-15806088D01*
X10566753Y-15806088D02*
X10557229Y-15767993D01*
X10557229Y-15767993D02*
X10557229Y-15720374D01*
X10557229Y-15720374D02*
X10566753Y-15682279D01*
X10566753Y-15682279D02*
X10576277Y-15663231D01*
X10576277Y-15663231D02*
X10585801Y-15653708D01*
X10585801Y-15653708D02*
X10604848Y-15644184D01*
X10842944Y-15644184D02*
X10804848Y-15644184D01*
X10804848Y-15644184D02*
X10785801Y-15653708D01*
X10785801Y-15653708D02*
X10776277Y-15663231D01*
X10776277Y-15663231D02*
X10757229Y-15691803D01*
X10757229Y-15691803D02*
X10747706Y-15729898D01*
X10747706Y-15729898D02*
X10747706Y-15806088D01*
X10747706Y-15806088D02*
X10757229Y-15825136D01*
X10757229Y-15825136D02*
X10766753Y-15834660D01*
X10766753Y-15834660D02*
X10785801Y-15844184D01*
X10785801Y-15844184D02*
X10823896Y-15844184D01*
X10823896Y-15844184D02*
X10842944Y-15834660D01*
X10842944Y-15834660D02*
X10852468Y-15825136D01*
X10852468Y-15825136D02*
X10861991Y-15806088D01*
X10861991Y-15806088D02*
X10861991Y-15758469D01*
X10861991Y-15758469D02*
X10852468Y-15739422D01*
X10852468Y-15739422D02*
X10842944Y-15729898D01*
X10842944Y-15729898D02*
X10823896Y-15720374D01*
X10823896Y-15720374D02*
X10785801Y-15720374D01*
X10785801Y-15720374D02*
X10766753Y-15729898D01*
X10766753Y-15729898D02*
X10757229Y-15739422D01*
X10757229Y-15739422D02*
X10747706Y-15758469D01*
X11033420Y-15644184D02*
X10995325Y-15644184D01*
X10995325Y-15644184D02*
X10976277Y-15653708D01*
X10976277Y-15653708D02*
X10966753Y-15663231D01*
X10966753Y-15663231D02*
X10947706Y-15691803D01*
X10947706Y-15691803D02*
X10938182Y-15729898D01*
X10938182Y-15729898D02*
X10938182Y-15806088D01*
X10938182Y-15806088D02*
X10947706Y-15825136D01*
X10947706Y-15825136D02*
X10957229Y-15834660D01*
X10957229Y-15834660D02*
X10976277Y-15844184D01*
X10976277Y-15844184D02*
X11014372Y-15844184D01*
X11014372Y-15844184D02*
X11033420Y-15834660D01*
X11033420Y-15834660D02*
X11042944Y-15825136D01*
X11042944Y-15825136D02*
X11052468Y-15806088D01*
X11052468Y-15806088D02*
X11052468Y-15758469D01*
X11052468Y-15758469D02*
X11042944Y-15739422D01*
X11042944Y-15739422D02*
X11033420Y-15729898D01*
X11033420Y-15729898D02*
X11014372Y-15720374D01*
X11014372Y-15720374D02*
X10976277Y-15720374D01*
X10976277Y-15720374D02*
X10957229Y-15729898D01*
X10957229Y-15729898D02*
X10947706Y-15739422D01*
X10947706Y-15739422D02*
X10938182Y-15758469D01*
X11147706Y-15844184D02*
X11185801Y-15844184D01*
X11185801Y-15844184D02*
X11204848Y-15834660D01*
X11204848Y-15834660D02*
X11214372Y-15825136D01*
X11214372Y-15825136D02*
X11233420Y-15796565D01*
X11233420Y-15796565D02*
X11242944Y-15758469D01*
X11242944Y-15758469D02*
X11242944Y-15682279D01*
X11242944Y-15682279D02*
X11233420Y-15663231D01*
X11233420Y-15663231D02*
X11223896Y-15653708D01*
X11223896Y-15653708D02*
X11204848Y-15644184D01*
X11204848Y-15644184D02*
X11166753Y-15644184D01*
X11166753Y-15644184D02*
X11147706Y-15653708D01*
X11147706Y-15653708D02*
X11138182Y-15663231D01*
X11138182Y-15663231D02*
X11128658Y-15682279D01*
X11128658Y-15682279D02*
X11128658Y-15729898D01*
X11128658Y-15729898D02*
X11138182Y-15748946D01*
X11138182Y-15748946D02*
X11147706Y-15758469D01*
X11147706Y-15758469D02*
X11166753Y-15767993D01*
X11166753Y-15767993D02*
X11204848Y-15767993D01*
X11204848Y-15767993D02*
X11223896Y-15758469D01*
X11223896Y-15758469D02*
X11233420Y-15748946D01*
X11233420Y-15748946D02*
X11242944Y-15729898D01*
X11319134Y-15644184D02*
X11319134Y-15682279D01*
X11395325Y-15644184D02*
X11395325Y-15682279D01*
X11690563Y-15920374D02*
X11681039Y-15910850D01*
X11681039Y-15910850D02*
X11661991Y-15882279D01*
X11661991Y-15882279D02*
X11652468Y-15863231D01*
X11652468Y-15863231D02*
X11642944Y-15834660D01*
X11642944Y-15834660D02*
X11633420Y-15787041D01*
X11633420Y-15787041D02*
X11633420Y-15748946D01*
X11633420Y-15748946D02*
X11642944Y-15701327D01*
X11642944Y-15701327D02*
X11652468Y-15672755D01*
X11652468Y-15672755D02*
X11661991Y-15653708D01*
X11661991Y-15653708D02*
X11681039Y-15625136D01*
X11681039Y-15625136D02*
X11690563Y-15615612D01*
X11861991Y-15644184D02*
X11766753Y-15644184D01*
X11766753Y-15644184D02*
X11757229Y-15739422D01*
X11757229Y-15739422D02*
X11766753Y-15729898D01*
X11766753Y-15729898D02*
X11785801Y-15720374D01*
X11785801Y-15720374D02*
X11833420Y-15720374D01*
X11833420Y-15720374D02*
X11852468Y-15729898D01*
X11852468Y-15729898D02*
X11861991Y-15739422D01*
X11861991Y-15739422D02*
X11871515Y-15758469D01*
X11871515Y-15758469D02*
X11871515Y-15806088D01*
X11871515Y-15806088D02*
X11861991Y-15825136D01*
X11861991Y-15825136D02*
X11852468Y-15834660D01*
X11852468Y-15834660D02*
X11833420Y-15844184D01*
X11833420Y-15844184D02*
X11785801Y-15844184D01*
X11785801Y-15844184D02*
X11766753Y-15834660D01*
X11766753Y-15834660D02*
X11757229Y-15825136D01*
X11985801Y-15729898D02*
X11966753Y-15720374D01*
X11966753Y-15720374D02*
X11957229Y-15710850D01*
X11957229Y-15710850D02*
X11947706Y-15691803D01*
X11947706Y-15691803D02*
X11947706Y-15682279D01*
X11947706Y-15682279D02*
X11957229Y-15663231D01*
X11957229Y-15663231D02*
X11966753Y-15653708D01*
X11966753Y-15653708D02*
X11985801Y-15644184D01*
X11985801Y-15644184D02*
X12023896Y-15644184D01*
X12023896Y-15644184D02*
X12042944Y-15653708D01*
X12042944Y-15653708D02*
X12052468Y-15663231D01*
X12052468Y-15663231D02*
X12061991Y-15682279D01*
X12061991Y-15682279D02*
X12061991Y-15691803D01*
X12061991Y-15691803D02*
X12052468Y-15710850D01*
X12052468Y-15710850D02*
X12042944Y-15720374D01*
X12042944Y-15720374D02*
X12023896Y-15729898D01*
X12023896Y-15729898D02*
X11985801Y-15729898D01*
X11985801Y-15729898D02*
X11966753Y-15739422D01*
X11966753Y-15739422D02*
X11957229Y-15748946D01*
X11957229Y-15748946D02*
X11947706Y-15767993D01*
X11947706Y-15767993D02*
X11947706Y-15806088D01*
X11947706Y-15806088D02*
X11957229Y-15825136D01*
X11957229Y-15825136D02*
X11966753Y-15834660D01*
X11966753Y-15834660D02*
X11985801Y-15844184D01*
X11985801Y-15844184D02*
X12023896Y-15844184D01*
X12023896Y-15844184D02*
X12042944Y-15834660D01*
X12042944Y-15834660D02*
X12052468Y-15825136D01*
X12052468Y-15825136D02*
X12061991Y-15806088D01*
X12061991Y-15806088D02*
X12061991Y-15767993D01*
X12061991Y-15767993D02*
X12052468Y-15748946D01*
X12052468Y-15748946D02*
X12042944Y-15739422D01*
X12042944Y-15739422D02*
X12023896Y-15729898D01*
X12300087Y-15844184D02*
X12300087Y-15644184D01*
X12385801Y-15844184D02*
X12385801Y-15739422D01*
X12385801Y-15739422D02*
X12376277Y-15720374D01*
X12376277Y-15720374D02*
X12357230Y-15710850D01*
X12357230Y-15710850D02*
X12328658Y-15710850D01*
X12328658Y-15710850D02*
X12309610Y-15720374D01*
X12309610Y-15720374D02*
X12300087Y-15729898D01*
X12509610Y-15844184D02*
X12490563Y-15834660D01*
X12490563Y-15834660D02*
X12481039Y-15825136D01*
X12481039Y-15825136D02*
X12471515Y-15806088D01*
X12471515Y-15806088D02*
X12471515Y-15748946D01*
X12471515Y-15748946D02*
X12481039Y-15729898D01*
X12481039Y-15729898D02*
X12490563Y-15720374D01*
X12490563Y-15720374D02*
X12509610Y-15710850D01*
X12509610Y-15710850D02*
X12538182Y-15710850D01*
X12538182Y-15710850D02*
X12557230Y-15720374D01*
X12557230Y-15720374D02*
X12566753Y-15729898D01*
X12566753Y-15729898D02*
X12576277Y-15748946D01*
X12576277Y-15748946D02*
X12576277Y-15806088D01*
X12576277Y-15806088D02*
X12566753Y-15825136D01*
X12566753Y-15825136D02*
X12557230Y-15834660D01*
X12557230Y-15834660D02*
X12538182Y-15844184D01*
X12538182Y-15844184D02*
X12509610Y-15844184D01*
X12690563Y-15844184D02*
X12671515Y-15834660D01*
X12671515Y-15834660D02*
X12661991Y-15815612D01*
X12661991Y-15815612D02*
X12661991Y-15644184D01*
X12842944Y-15834660D02*
X12823896Y-15844184D01*
X12823896Y-15844184D02*
X12785801Y-15844184D01*
X12785801Y-15844184D02*
X12766753Y-15834660D01*
X12766753Y-15834660D02*
X12757230Y-15815612D01*
X12757230Y-15815612D02*
X12757230Y-15739422D01*
X12757230Y-15739422D02*
X12766753Y-15720374D01*
X12766753Y-15720374D02*
X12785801Y-15710850D01*
X12785801Y-15710850D02*
X12823896Y-15710850D01*
X12823896Y-15710850D02*
X12842944Y-15720374D01*
X12842944Y-15720374D02*
X12852468Y-15739422D01*
X12852468Y-15739422D02*
X12852468Y-15758469D01*
X12852468Y-15758469D02*
X12757230Y-15777517D01*
X12928658Y-15834660D02*
X12947706Y-15844184D01*
X12947706Y-15844184D02*
X12985801Y-15844184D01*
X12985801Y-15844184D02*
X13004849Y-15834660D01*
X13004849Y-15834660D02*
X13014372Y-15815612D01*
X13014372Y-15815612D02*
X13014372Y-15806088D01*
X13014372Y-15806088D02*
X13004849Y-15787041D01*
X13004849Y-15787041D02*
X12985801Y-15777517D01*
X12985801Y-15777517D02*
X12957230Y-15777517D01*
X12957230Y-15777517D02*
X12938182Y-15767993D01*
X12938182Y-15767993D02*
X12928658Y-15748946D01*
X12928658Y-15748946D02*
X12928658Y-15739422D01*
X12928658Y-15739422D02*
X12938182Y-15720374D01*
X12938182Y-15720374D02*
X12957230Y-15710850D01*
X12957230Y-15710850D02*
X12985801Y-15710850D01*
X12985801Y-15710850D02*
X13004849Y-15720374D01*
X13081039Y-15920374D02*
X13090563Y-15910850D01*
X13090563Y-15910850D02*
X13109611Y-15882279D01*
X13109611Y-15882279D02*
X13119134Y-15863231D01*
X13119134Y-15863231D02*
X13128658Y-15834660D01*
X13128658Y-15834660D02*
X13138182Y-15787041D01*
X13138182Y-15787041D02*
X13138182Y-15748946D01*
X13138182Y-15748946D02*
X13128658Y-15701327D01*
X13128658Y-15701327D02*
X13119134Y-15672755D01*
X13119134Y-15672755D02*
X13109611Y-15653708D01*
X13109611Y-15653708D02*
X13090563Y-15625136D01*
X13090563Y-15625136D02*
X13081039Y-15615612D01*
X13442944Y-15920374D02*
X13433420Y-15910850D01*
X13433420Y-15910850D02*
X13414372Y-15882279D01*
X13414372Y-15882279D02*
X13404849Y-15863231D01*
X13404849Y-15863231D02*
X13395325Y-15834660D01*
X13395325Y-15834660D02*
X13385801Y-15787041D01*
X13385801Y-15787041D02*
X13385801Y-15748946D01*
X13385801Y-15748946D02*
X13395325Y-15701327D01*
X13395325Y-15701327D02*
X13404849Y-15672755D01*
X13404849Y-15672755D02*
X13414372Y-15653708D01*
X13414372Y-15653708D02*
X13433420Y-15625136D01*
X13433420Y-15625136D02*
X13442944Y-15615612D01*
X13519134Y-15710850D02*
X13519134Y-15844184D01*
X13519134Y-15729898D02*
X13528658Y-15720374D01*
X13528658Y-15720374D02*
X13547706Y-15710850D01*
X13547706Y-15710850D02*
X13576277Y-15710850D01*
X13576277Y-15710850D02*
X13595325Y-15720374D01*
X13595325Y-15720374D02*
X13604849Y-15739422D01*
X13604849Y-15739422D02*
X13604849Y-15844184D01*
X13728658Y-15844184D02*
X13709611Y-15834660D01*
X13709611Y-15834660D02*
X13700087Y-15825136D01*
X13700087Y-15825136D02*
X13690563Y-15806088D01*
X13690563Y-15806088D02*
X13690563Y-15748946D01*
X13690563Y-15748946D02*
X13700087Y-15729898D01*
X13700087Y-15729898D02*
X13709611Y-15720374D01*
X13709611Y-15720374D02*
X13728658Y-15710850D01*
X13728658Y-15710850D02*
X13757230Y-15710850D01*
X13757230Y-15710850D02*
X13776277Y-15720374D01*
X13776277Y-15720374D02*
X13785801Y-15729898D01*
X13785801Y-15729898D02*
X13795325Y-15748946D01*
X13795325Y-15748946D02*
X13795325Y-15806088D01*
X13795325Y-15806088D02*
X13785801Y-15825136D01*
X13785801Y-15825136D02*
X13776277Y-15834660D01*
X13776277Y-15834660D02*
X13757230Y-15844184D01*
X13757230Y-15844184D02*
X13728658Y-15844184D01*
X13852468Y-15710850D02*
X13928658Y-15710850D01*
X13881039Y-15644184D02*
X13881039Y-15815612D01*
X13881039Y-15815612D02*
X13890563Y-15834660D01*
X13890563Y-15834660D02*
X13909611Y-15844184D01*
X13909611Y-15844184D02*
X13928658Y-15844184D01*
X14147706Y-15710850D02*
X14147706Y-15910850D01*
X14147706Y-15720374D02*
X14166753Y-15710850D01*
X14166753Y-15710850D02*
X14204849Y-15710850D01*
X14204849Y-15710850D02*
X14223896Y-15720374D01*
X14223896Y-15720374D02*
X14233420Y-15729898D01*
X14233420Y-15729898D02*
X14242944Y-15748946D01*
X14242944Y-15748946D02*
X14242944Y-15806088D01*
X14242944Y-15806088D02*
X14233420Y-15825136D01*
X14233420Y-15825136D02*
X14223896Y-15834660D01*
X14223896Y-15834660D02*
X14204849Y-15844184D01*
X14204849Y-15844184D02*
X14166753Y-15844184D01*
X14166753Y-15844184D02*
X14147706Y-15834660D01*
X14357230Y-15844184D02*
X14338182Y-15834660D01*
X14338182Y-15834660D02*
X14328658Y-15815612D01*
X14328658Y-15815612D02*
X14328658Y-15644184D01*
X14519134Y-15844184D02*
X14519134Y-15739422D01*
X14519134Y-15739422D02*
X14509611Y-15720374D01*
X14509611Y-15720374D02*
X14490563Y-15710850D01*
X14490563Y-15710850D02*
X14452468Y-15710850D01*
X14452468Y-15710850D02*
X14433420Y-15720374D01*
X14519134Y-15834660D02*
X14500087Y-15844184D01*
X14500087Y-15844184D02*
X14452468Y-15844184D01*
X14452468Y-15844184D02*
X14433420Y-15834660D01*
X14433420Y-15834660D02*
X14423896Y-15815612D01*
X14423896Y-15815612D02*
X14423896Y-15796565D01*
X14423896Y-15796565D02*
X14433420Y-15777517D01*
X14433420Y-15777517D02*
X14452468Y-15767993D01*
X14452468Y-15767993D02*
X14500087Y-15767993D01*
X14500087Y-15767993D02*
X14519134Y-15758469D01*
X14585801Y-15710850D02*
X14661992Y-15710850D01*
X14614373Y-15644184D02*
X14614373Y-15815612D01*
X14614373Y-15815612D02*
X14623896Y-15834660D01*
X14623896Y-15834660D02*
X14642944Y-15844184D01*
X14642944Y-15844184D02*
X14661992Y-15844184D01*
X14804849Y-15834660D02*
X14785801Y-15844184D01*
X14785801Y-15844184D02*
X14747706Y-15844184D01*
X14747706Y-15844184D02*
X14728658Y-15834660D01*
X14728658Y-15834660D02*
X14719134Y-15815612D01*
X14719134Y-15815612D02*
X14719134Y-15739422D01*
X14719134Y-15739422D02*
X14728658Y-15720374D01*
X14728658Y-15720374D02*
X14747706Y-15710850D01*
X14747706Y-15710850D02*
X14785801Y-15710850D01*
X14785801Y-15710850D02*
X14804849Y-15720374D01*
X14804849Y-15720374D02*
X14814373Y-15739422D01*
X14814373Y-15739422D02*
X14814373Y-15758469D01*
X14814373Y-15758469D02*
X14719134Y-15777517D01*
X14985801Y-15844184D02*
X14985801Y-15644184D01*
X14985801Y-15834660D02*
X14966754Y-15844184D01*
X14966754Y-15844184D02*
X14928658Y-15844184D01*
X14928658Y-15844184D02*
X14909611Y-15834660D01*
X14909611Y-15834660D02*
X14900087Y-15825136D01*
X14900087Y-15825136D02*
X14890563Y-15806088D01*
X14890563Y-15806088D02*
X14890563Y-15748946D01*
X14890563Y-15748946D02*
X14900087Y-15729898D01*
X14900087Y-15729898D02*
X14909611Y-15720374D01*
X14909611Y-15720374D02*
X14928658Y-15710850D01*
X14928658Y-15710850D02*
X14966754Y-15710850D01*
X14966754Y-15710850D02*
X14985801Y-15720374D01*
X15061992Y-15920374D02*
X15071515Y-15910850D01*
X15071515Y-15910850D02*
X15090563Y-15882279D01*
X15090563Y-15882279D02*
X15100087Y-15863231D01*
X15100087Y-15863231D02*
X15109611Y-15834660D01*
X15109611Y-15834660D02*
X15119134Y-15787041D01*
X15119134Y-15787041D02*
X15119134Y-15748946D01*
X15119134Y-15748946D02*
X15109611Y-15701327D01*
X15109611Y-15701327D02*
X15100087Y-15672755D01*
X15100087Y-15672755D02*
X15090563Y-15653708D01*
X15090563Y-15653708D02*
X15071515Y-15625136D01*
X15071515Y-15625136D02*
X15061992Y-15615612D01*
X8115500Y-16042700D02*
G75*
G02*
X7915500Y-16042700I-100000J0D01*
G01*
X7915500Y-16042700D02*
G75*
G02*
X8115500Y-16042700I100000J0D01*
G01*
X8357229Y-15934184D02*
X8481039Y-15934184D01*
X8481039Y-15934184D02*
X8414372Y-16010374D01*
X8414372Y-16010374D02*
X8442944Y-16010374D01*
X8442944Y-16010374D02*
X8461991Y-16019898D01*
X8461991Y-16019898D02*
X8471515Y-16029422D01*
X8471515Y-16029422D02*
X8481039Y-16048469D01*
X8481039Y-16048469D02*
X8481039Y-16096088D01*
X8481039Y-16096088D02*
X8471515Y-16115136D01*
X8471515Y-16115136D02*
X8461991Y-16124660D01*
X8461991Y-16124660D02*
X8442944Y-16134184D01*
X8442944Y-16134184D02*
X8385801Y-16134184D01*
X8385801Y-16134184D02*
X8366753Y-16124660D01*
X8366753Y-16124660D02*
X8357229Y-16115136D01*
X8566753Y-16115136D02*
X8576277Y-16124660D01*
X8576277Y-16124660D02*
X8566753Y-16134184D01*
X8566753Y-16134184D02*
X8557229Y-16124660D01*
X8557229Y-16124660D02*
X8566753Y-16115136D01*
X8566753Y-16115136D02*
X8566753Y-16134184D01*
X8700086Y-15934184D02*
X8719134Y-15934184D01*
X8719134Y-15934184D02*
X8738182Y-15943708D01*
X8738182Y-15943708D02*
X8747705Y-15953231D01*
X8747705Y-15953231D02*
X8757229Y-15972279D01*
X8757229Y-15972279D02*
X8766753Y-16010374D01*
X8766753Y-16010374D02*
X8766753Y-16057993D01*
X8766753Y-16057993D02*
X8757229Y-16096088D01*
X8757229Y-16096088D02*
X8747705Y-16115136D01*
X8747705Y-16115136D02*
X8738182Y-16124660D01*
X8738182Y-16124660D02*
X8719134Y-16134184D01*
X8719134Y-16134184D02*
X8700086Y-16134184D01*
X8700086Y-16134184D02*
X8681039Y-16124660D01*
X8681039Y-16124660D02*
X8671515Y-16115136D01*
X8671515Y-16115136D02*
X8661991Y-16096088D01*
X8661991Y-16096088D02*
X8652467Y-16057993D01*
X8652467Y-16057993D02*
X8652467Y-16010374D01*
X8652467Y-16010374D02*
X8661991Y-15972279D01*
X8661991Y-15972279D02*
X8671515Y-15953231D01*
X8671515Y-15953231D02*
X8681039Y-15943708D01*
X8681039Y-15943708D02*
X8700086Y-15934184D01*
X8890563Y-15934184D02*
X8909610Y-15934184D01*
X8909610Y-15934184D02*
X8928658Y-15943708D01*
X8928658Y-15943708D02*
X8938182Y-15953231D01*
X8938182Y-15953231D02*
X8947705Y-15972279D01*
X8947705Y-15972279D02*
X8957229Y-16010374D01*
X8957229Y-16010374D02*
X8957229Y-16057993D01*
X8957229Y-16057993D02*
X8947705Y-16096088D01*
X8947705Y-16096088D02*
X8938182Y-16115136D01*
X8938182Y-16115136D02*
X8928658Y-16124660D01*
X8928658Y-16124660D02*
X8909610Y-16134184D01*
X8909610Y-16134184D02*
X8890563Y-16134184D01*
X8890563Y-16134184D02*
X8871515Y-16124660D01*
X8871515Y-16124660D02*
X8861991Y-16115136D01*
X8861991Y-16115136D02*
X8852467Y-16096088D01*
X8852467Y-16096088D02*
X8842944Y-16057993D01*
X8842944Y-16057993D02*
X8842944Y-16010374D01*
X8842944Y-16010374D02*
X8852467Y-15972279D01*
X8852467Y-15972279D02*
X8861991Y-15953231D01*
X8861991Y-15953231D02*
X8871515Y-15943708D01*
X8871515Y-15943708D02*
X8890563Y-15934184D01*
X9081039Y-15934184D02*
X9100086Y-15934184D01*
X9100086Y-15934184D02*
X9119134Y-15943708D01*
X9119134Y-15943708D02*
X9128658Y-15953231D01*
X9128658Y-15953231D02*
X9138182Y-15972279D01*
X9138182Y-15972279D02*
X9147705Y-16010374D01*
X9147705Y-16010374D02*
X9147705Y-16057993D01*
X9147705Y-16057993D02*
X9138182Y-16096088D01*
X9138182Y-16096088D02*
X9128658Y-16115136D01*
X9128658Y-16115136D02*
X9119134Y-16124660D01*
X9119134Y-16124660D02*
X9100086Y-16134184D01*
X9100086Y-16134184D02*
X9081039Y-16134184D01*
X9081039Y-16134184D02*
X9061991Y-16124660D01*
X9061991Y-16124660D02*
X9052467Y-16115136D01*
X9052467Y-16115136D02*
X9042944Y-16096088D01*
X9042944Y-16096088D02*
X9033420Y-16057993D01*
X9033420Y-16057993D02*
X9033420Y-16010374D01*
X9033420Y-16010374D02*
X9042944Y-15972279D01*
X9042944Y-15972279D02*
X9052467Y-15953231D01*
X9052467Y-15953231D02*
X9061991Y-15943708D01*
X9061991Y-15943708D02*
X9081039Y-15934184D01*
X9233420Y-16134184D02*
X9233420Y-16000850D01*
X9233420Y-16019898D02*
X9242944Y-16010374D01*
X9242944Y-16010374D02*
X9261991Y-16000850D01*
X9261991Y-16000850D02*
X9290563Y-16000850D01*
X9290563Y-16000850D02*
X9309610Y-16010374D01*
X9309610Y-16010374D02*
X9319134Y-16029422D01*
X9319134Y-16029422D02*
X9319134Y-16134184D01*
X9319134Y-16029422D02*
X9328658Y-16010374D01*
X9328658Y-16010374D02*
X9347705Y-16000850D01*
X9347705Y-16000850D02*
X9376277Y-16000850D01*
X9376277Y-16000850D02*
X9395325Y-16010374D01*
X9395325Y-16010374D02*
X9404848Y-16029422D01*
X9404848Y-16029422D02*
X9404848Y-16134184D01*
X9500086Y-16134184D02*
X9500086Y-16000850D01*
X9500086Y-16019898D02*
X9509610Y-16010374D01*
X9509610Y-16010374D02*
X9528658Y-16000850D01*
X9528658Y-16000850D02*
X9557229Y-16000850D01*
X9557229Y-16000850D02*
X9576277Y-16010374D01*
X9576277Y-16010374D02*
X9585801Y-16029422D01*
X9585801Y-16029422D02*
X9585801Y-16134184D01*
X9585801Y-16029422D02*
X9595325Y-16010374D01*
X9595325Y-16010374D02*
X9614372Y-16000850D01*
X9614372Y-16000850D02*
X9642944Y-16000850D01*
X9642944Y-16000850D02*
X9661991Y-16010374D01*
X9661991Y-16010374D02*
X9671515Y-16029422D01*
X9671515Y-16029422D02*
X9671515Y-16134184D01*
X10061991Y-15924660D02*
X9890563Y-16181803D01*
X10319134Y-15934184D02*
X10338182Y-15934184D01*
X10338182Y-15934184D02*
X10357229Y-15943708D01*
X10357229Y-15943708D02*
X10366753Y-15953231D01*
X10366753Y-15953231D02*
X10376277Y-15972279D01*
X10376277Y-15972279D02*
X10385801Y-16010374D01*
X10385801Y-16010374D02*
X10385801Y-16057993D01*
X10385801Y-16057993D02*
X10376277Y-16096088D01*
X10376277Y-16096088D02*
X10366753Y-16115136D01*
X10366753Y-16115136D02*
X10357229Y-16124660D01*
X10357229Y-16124660D02*
X10338182Y-16134184D01*
X10338182Y-16134184D02*
X10319134Y-16134184D01*
X10319134Y-16134184D02*
X10300087Y-16124660D01*
X10300087Y-16124660D02*
X10290563Y-16115136D01*
X10290563Y-16115136D02*
X10281039Y-16096088D01*
X10281039Y-16096088D02*
X10271515Y-16057993D01*
X10271515Y-16057993D02*
X10271515Y-16010374D01*
X10271515Y-16010374D02*
X10281039Y-15972279D01*
X10281039Y-15972279D02*
X10290563Y-15953231D01*
X10290563Y-15953231D02*
X10300087Y-15943708D01*
X10300087Y-15943708D02*
X10319134Y-15934184D01*
X10471515Y-16115136D02*
X10481039Y-16124660D01*
X10481039Y-16124660D02*
X10471515Y-16134184D01*
X10471515Y-16134184D02*
X10461991Y-16124660D01*
X10461991Y-16124660D02*
X10471515Y-16115136D01*
X10471515Y-16115136D02*
X10471515Y-16134184D01*
X10671515Y-16134184D02*
X10557229Y-16134184D01*
X10614372Y-16134184D02*
X10614372Y-15934184D01*
X10614372Y-15934184D02*
X10595325Y-15962755D01*
X10595325Y-15962755D02*
X10576277Y-15981803D01*
X10576277Y-15981803D02*
X10557229Y-15991327D01*
X10861991Y-16134184D02*
X10747706Y-16134184D01*
X10804848Y-16134184D02*
X10804848Y-15934184D01*
X10804848Y-15934184D02*
X10785801Y-15962755D01*
X10785801Y-15962755D02*
X10766753Y-15981803D01*
X10766753Y-15981803D02*
X10747706Y-15991327D01*
X10976277Y-16019898D02*
X10957229Y-16010374D01*
X10957229Y-16010374D02*
X10947706Y-16000850D01*
X10947706Y-16000850D02*
X10938182Y-15981803D01*
X10938182Y-15981803D02*
X10938182Y-15972279D01*
X10938182Y-15972279D02*
X10947706Y-15953231D01*
X10947706Y-15953231D02*
X10957229Y-15943708D01*
X10957229Y-15943708D02*
X10976277Y-15934184D01*
X10976277Y-15934184D02*
X11014372Y-15934184D01*
X11014372Y-15934184D02*
X11033420Y-15943708D01*
X11033420Y-15943708D02*
X11042944Y-15953231D01*
X11042944Y-15953231D02*
X11052468Y-15972279D01*
X11052468Y-15972279D02*
X11052468Y-15981803D01*
X11052468Y-15981803D02*
X11042944Y-16000850D01*
X11042944Y-16000850D02*
X11033420Y-16010374D01*
X11033420Y-16010374D02*
X11014372Y-16019898D01*
X11014372Y-16019898D02*
X10976277Y-16019898D01*
X10976277Y-16019898D02*
X10957229Y-16029422D01*
X10957229Y-16029422D02*
X10947706Y-16038946D01*
X10947706Y-16038946D02*
X10938182Y-16057993D01*
X10938182Y-16057993D02*
X10938182Y-16096088D01*
X10938182Y-16096088D02*
X10947706Y-16115136D01*
X10947706Y-16115136D02*
X10957229Y-16124660D01*
X10957229Y-16124660D02*
X10976277Y-16134184D01*
X10976277Y-16134184D02*
X11014372Y-16134184D01*
X11014372Y-16134184D02*
X11033420Y-16124660D01*
X11033420Y-16124660D02*
X11042944Y-16115136D01*
X11042944Y-16115136D02*
X11052468Y-16096088D01*
X11052468Y-16096088D02*
X11052468Y-16057993D01*
X11052468Y-16057993D02*
X11042944Y-16038946D01*
X11042944Y-16038946D02*
X11033420Y-16029422D01*
X11033420Y-16029422D02*
X11014372Y-16019898D01*
X11242944Y-16134184D02*
X11128658Y-16134184D01*
X11185801Y-16134184D02*
X11185801Y-15934184D01*
X11185801Y-15934184D02*
X11166753Y-15962755D01*
X11166753Y-15962755D02*
X11147706Y-15981803D01*
X11147706Y-15981803D02*
X11128658Y-15991327D01*
X11319134Y-15934184D02*
X11319134Y-15972279D01*
X11395325Y-15934184D02*
X11395325Y-15972279D01*
X11690563Y-16210374D02*
X11681039Y-16200850D01*
X11681039Y-16200850D02*
X11661991Y-16172279D01*
X11661991Y-16172279D02*
X11652468Y-16153231D01*
X11652468Y-16153231D02*
X11642944Y-16124660D01*
X11642944Y-16124660D02*
X11633420Y-16077041D01*
X11633420Y-16077041D02*
X11633420Y-16038946D01*
X11633420Y-16038946D02*
X11642944Y-15991327D01*
X11642944Y-15991327D02*
X11652468Y-15962755D01*
X11652468Y-15962755D02*
X11661991Y-15943708D01*
X11661991Y-15943708D02*
X11681039Y-15915136D01*
X11681039Y-15915136D02*
X11690563Y-15905612D01*
X11871515Y-16134184D02*
X11757229Y-16134184D01*
X11814372Y-16134184D02*
X11814372Y-15934184D01*
X11814372Y-15934184D02*
X11795325Y-15962755D01*
X11795325Y-15962755D02*
X11776277Y-15981803D01*
X11776277Y-15981803D02*
X11757229Y-15991327D01*
X12061991Y-16134184D02*
X11947706Y-16134184D01*
X12004848Y-16134184D02*
X12004848Y-15934184D01*
X12004848Y-15934184D02*
X11985801Y-15962755D01*
X11985801Y-15962755D02*
X11966753Y-15981803D01*
X11966753Y-15981803D02*
X11947706Y-15991327D01*
X12233420Y-15934184D02*
X12195325Y-15934184D01*
X12195325Y-15934184D02*
X12176277Y-15943708D01*
X12176277Y-15943708D02*
X12166753Y-15953231D01*
X12166753Y-15953231D02*
X12147706Y-15981803D01*
X12147706Y-15981803D02*
X12138182Y-16019898D01*
X12138182Y-16019898D02*
X12138182Y-16096088D01*
X12138182Y-16096088D02*
X12147706Y-16115136D01*
X12147706Y-16115136D02*
X12157229Y-16124660D01*
X12157229Y-16124660D02*
X12176277Y-16134184D01*
X12176277Y-16134184D02*
X12214372Y-16134184D01*
X12214372Y-16134184D02*
X12233420Y-16124660D01*
X12233420Y-16124660D02*
X12242944Y-16115136D01*
X12242944Y-16115136D02*
X12252468Y-16096088D01*
X12252468Y-16096088D02*
X12252468Y-16048469D01*
X12252468Y-16048469D02*
X12242944Y-16029422D01*
X12242944Y-16029422D02*
X12233420Y-16019898D01*
X12233420Y-16019898D02*
X12214372Y-16010374D01*
X12214372Y-16010374D02*
X12176277Y-16010374D01*
X12176277Y-16010374D02*
X12157229Y-16019898D01*
X12157229Y-16019898D02*
X12147706Y-16029422D01*
X12147706Y-16029422D02*
X12138182Y-16048469D01*
X12490563Y-16134184D02*
X12490563Y-15934184D01*
X12576277Y-16134184D02*
X12576277Y-16029422D01*
X12576277Y-16029422D02*
X12566753Y-16010374D01*
X12566753Y-16010374D02*
X12547706Y-16000850D01*
X12547706Y-16000850D02*
X12519134Y-16000850D01*
X12519134Y-16000850D02*
X12500087Y-16010374D01*
X12500087Y-16010374D02*
X12490563Y-16019898D01*
X12700087Y-16134184D02*
X12681039Y-16124660D01*
X12681039Y-16124660D02*
X12671515Y-16115136D01*
X12671515Y-16115136D02*
X12661991Y-16096088D01*
X12661991Y-16096088D02*
X12661991Y-16038946D01*
X12661991Y-16038946D02*
X12671515Y-16019898D01*
X12671515Y-16019898D02*
X12681039Y-16010374D01*
X12681039Y-16010374D02*
X12700087Y-16000850D01*
X12700087Y-16000850D02*
X12728658Y-16000850D01*
X12728658Y-16000850D02*
X12747706Y-16010374D01*
X12747706Y-16010374D02*
X12757230Y-16019898D01*
X12757230Y-16019898D02*
X12766753Y-16038946D01*
X12766753Y-16038946D02*
X12766753Y-16096088D01*
X12766753Y-16096088D02*
X12757230Y-16115136D01*
X12757230Y-16115136D02*
X12747706Y-16124660D01*
X12747706Y-16124660D02*
X12728658Y-16134184D01*
X12728658Y-16134184D02*
X12700087Y-16134184D01*
X12881039Y-16134184D02*
X12861991Y-16124660D01*
X12861991Y-16124660D02*
X12852468Y-16105612D01*
X12852468Y-16105612D02*
X12852468Y-15934184D01*
X13033420Y-16124660D02*
X13014372Y-16134184D01*
X13014372Y-16134184D02*
X12976277Y-16134184D01*
X12976277Y-16134184D02*
X12957230Y-16124660D01*
X12957230Y-16124660D02*
X12947706Y-16105612D01*
X12947706Y-16105612D02*
X12947706Y-16029422D01*
X12947706Y-16029422D02*
X12957230Y-16010374D01*
X12957230Y-16010374D02*
X12976277Y-16000850D01*
X12976277Y-16000850D02*
X13014372Y-16000850D01*
X13014372Y-16000850D02*
X13033420Y-16010374D01*
X13033420Y-16010374D02*
X13042944Y-16029422D01*
X13042944Y-16029422D02*
X13042944Y-16048469D01*
X13042944Y-16048469D02*
X12947706Y-16067517D01*
X13119134Y-16124660D02*
X13138182Y-16134184D01*
X13138182Y-16134184D02*
X13176277Y-16134184D01*
X13176277Y-16134184D02*
X13195325Y-16124660D01*
X13195325Y-16124660D02*
X13204849Y-16105612D01*
X13204849Y-16105612D02*
X13204849Y-16096088D01*
X13204849Y-16096088D02*
X13195325Y-16077041D01*
X13195325Y-16077041D02*
X13176277Y-16067517D01*
X13176277Y-16067517D02*
X13147706Y-16067517D01*
X13147706Y-16067517D02*
X13128658Y-16057993D01*
X13128658Y-16057993D02*
X13119134Y-16038946D01*
X13119134Y-16038946D02*
X13119134Y-16029422D01*
X13119134Y-16029422D02*
X13128658Y-16010374D01*
X13128658Y-16010374D02*
X13147706Y-16000850D01*
X13147706Y-16000850D02*
X13176277Y-16000850D01*
X13176277Y-16000850D02*
X13195325Y-16010374D01*
X13271515Y-16210374D02*
X13281039Y-16200850D01*
X13281039Y-16200850D02*
X13300087Y-16172279D01*
X13300087Y-16172279D02*
X13309611Y-16153231D01*
X13309611Y-16153231D02*
X13319134Y-16124660D01*
X13319134Y-16124660D02*
X13328658Y-16077041D01*
X13328658Y-16077041D02*
X13328658Y-16038946D01*
X13328658Y-16038946D02*
X13319134Y-15991327D01*
X13319134Y-15991327D02*
X13309611Y-15962755D01*
X13309611Y-15962755D02*
X13300087Y-15943708D01*
X13300087Y-15943708D02*
X13281039Y-15915136D01*
X13281039Y-15915136D02*
X13271515Y-15905612D01*
X13633420Y-16210374D02*
X13623896Y-16200850D01*
X13623896Y-16200850D02*
X13604849Y-16172279D01*
X13604849Y-16172279D02*
X13595325Y-16153231D01*
X13595325Y-16153231D02*
X13585801Y-16124660D01*
X13585801Y-16124660D02*
X13576277Y-16077041D01*
X13576277Y-16077041D02*
X13576277Y-16038946D01*
X13576277Y-16038946D02*
X13585801Y-15991327D01*
X13585801Y-15991327D02*
X13595325Y-15962755D01*
X13595325Y-15962755D02*
X13604849Y-15943708D01*
X13604849Y-15943708D02*
X13623896Y-15915136D01*
X13623896Y-15915136D02*
X13633420Y-15905612D01*
X13709611Y-16000850D02*
X13709611Y-16134184D01*
X13709611Y-16019898D02*
X13719134Y-16010374D01*
X13719134Y-16010374D02*
X13738182Y-16000850D01*
X13738182Y-16000850D02*
X13766753Y-16000850D01*
X13766753Y-16000850D02*
X13785801Y-16010374D01*
X13785801Y-16010374D02*
X13795325Y-16029422D01*
X13795325Y-16029422D02*
X13795325Y-16134184D01*
X13919134Y-16134184D02*
X13900087Y-16124660D01*
X13900087Y-16124660D02*
X13890563Y-16115136D01*
X13890563Y-16115136D02*
X13881039Y-16096088D01*
X13881039Y-16096088D02*
X13881039Y-16038946D01*
X13881039Y-16038946D02*
X13890563Y-16019898D01*
X13890563Y-16019898D02*
X13900087Y-16010374D01*
X13900087Y-16010374D02*
X13919134Y-16000850D01*
X13919134Y-16000850D02*
X13947706Y-16000850D01*
X13947706Y-16000850D02*
X13966753Y-16010374D01*
X13966753Y-16010374D02*
X13976277Y-16019898D01*
X13976277Y-16019898D02*
X13985801Y-16038946D01*
X13985801Y-16038946D02*
X13985801Y-16096088D01*
X13985801Y-16096088D02*
X13976277Y-16115136D01*
X13976277Y-16115136D02*
X13966753Y-16124660D01*
X13966753Y-16124660D02*
X13947706Y-16134184D01*
X13947706Y-16134184D02*
X13919134Y-16134184D01*
X14042944Y-16000850D02*
X14119134Y-16000850D01*
X14071515Y-15934184D02*
X14071515Y-16105612D01*
X14071515Y-16105612D02*
X14081039Y-16124660D01*
X14081039Y-16124660D02*
X14100087Y-16134184D01*
X14100087Y-16134184D02*
X14119134Y-16134184D01*
X14338182Y-16000850D02*
X14338182Y-16200850D01*
X14338182Y-16010374D02*
X14357230Y-16000850D01*
X14357230Y-16000850D02*
X14395325Y-16000850D01*
X14395325Y-16000850D02*
X14414373Y-16010374D01*
X14414373Y-16010374D02*
X14423896Y-16019898D01*
X14423896Y-16019898D02*
X14433420Y-16038946D01*
X14433420Y-16038946D02*
X14433420Y-16096088D01*
X14433420Y-16096088D02*
X14423896Y-16115136D01*
X14423896Y-16115136D02*
X14414373Y-16124660D01*
X14414373Y-16124660D02*
X14395325Y-16134184D01*
X14395325Y-16134184D02*
X14357230Y-16134184D01*
X14357230Y-16134184D02*
X14338182Y-16124660D01*
X14547706Y-16134184D02*
X14528658Y-16124660D01*
X14528658Y-16124660D02*
X14519134Y-16105612D01*
X14519134Y-16105612D02*
X14519134Y-15934184D01*
X14709611Y-16134184D02*
X14709611Y-16029422D01*
X14709611Y-16029422D02*
X14700087Y-16010374D01*
X14700087Y-16010374D02*
X14681039Y-16000850D01*
X14681039Y-16000850D02*
X14642944Y-16000850D01*
X14642944Y-16000850D02*
X14623896Y-16010374D01*
X14709611Y-16124660D02*
X14690563Y-16134184D01*
X14690563Y-16134184D02*
X14642944Y-16134184D01*
X14642944Y-16134184D02*
X14623896Y-16124660D01*
X14623896Y-16124660D02*
X14614373Y-16105612D01*
X14614373Y-16105612D02*
X14614373Y-16086565D01*
X14614373Y-16086565D02*
X14623896Y-16067517D01*
X14623896Y-16067517D02*
X14642944Y-16057993D01*
X14642944Y-16057993D02*
X14690563Y-16057993D01*
X14690563Y-16057993D02*
X14709611Y-16048469D01*
X14776277Y-16000850D02*
X14852468Y-16000850D01*
X14804849Y-15934184D02*
X14804849Y-16105612D01*
X14804849Y-16105612D02*
X14814373Y-16124660D01*
X14814373Y-16124660D02*
X14833420Y-16134184D01*
X14833420Y-16134184D02*
X14852468Y-16134184D01*
X14995325Y-16124660D02*
X14976277Y-16134184D01*
X14976277Y-16134184D02*
X14938182Y-16134184D01*
X14938182Y-16134184D02*
X14919134Y-16124660D01*
X14919134Y-16124660D02*
X14909611Y-16105612D01*
X14909611Y-16105612D02*
X14909611Y-16029422D01*
X14909611Y-16029422D02*
X14919134Y-16010374D01*
X14919134Y-16010374D02*
X14938182Y-16000850D01*
X14938182Y-16000850D02*
X14976277Y-16000850D01*
X14976277Y-16000850D02*
X14995325Y-16010374D01*
X14995325Y-16010374D02*
X15004849Y-16029422D01*
X15004849Y-16029422D02*
X15004849Y-16048469D01*
X15004849Y-16048469D02*
X14909611Y-16067517D01*
X15176277Y-16134184D02*
X15176277Y-15934184D01*
X15176277Y-16124660D02*
X15157230Y-16134184D01*
X15157230Y-16134184D02*
X15119134Y-16134184D01*
X15119134Y-16134184D02*
X15100087Y-16124660D01*
X15100087Y-16124660D02*
X15090563Y-16115136D01*
X15090563Y-16115136D02*
X15081039Y-16096088D01*
X15081039Y-16096088D02*
X15081039Y-16038946D01*
X15081039Y-16038946D02*
X15090563Y-16019898D01*
X15090563Y-16019898D02*
X15100087Y-16010374D01*
X15100087Y-16010374D02*
X15119134Y-16000850D01*
X15119134Y-16000850D02*
X15157230Y-16000850D01*
X15157230Y-16000850D02*
X15176277Y-16010374D01*
X15252468Y-16210374D02*
X15261992Y-16200850D01*
X15261992Y-16200850D02*
X15281039Y-16172279D01*
X15281039Y-16172279D02*
X15290563Y-16153231D01*
X15290563Y-16153231D02*
X15300087Y-16124660D01*
X15300087Y-16124660D02*
X15309611Y-16077041D01*
X15309611Y-16077041D02*
X15309611Y-16038946D01*
X15309611Y-16038946D02*
X15300087Y-15991327D01*
X15300087Y-15991327D02*
X15290563Y-15962755D01*
X15290563Y-15962755D02*
X15281039Y-15943708D01*
X15281039Y-15943708D02*
X15261992Y-15915136D01*
X15261992Y-15915136D02*
X15252468Y-15905612D01*
X8015500Y-16262700D02*
X8015500Y-16462700D01*
X7915500Y-16362700D02*
X8115500Y-16362700D01*
X8461991Y-16320850D02*
X8461991Y-16454184D01*
X8414372Y-16244660D02*
X8366753Y-16387517D01*
X8366753Y-16387517D02*
X8490563Y-16387517D01*
X8566753Y-16435136D02*
X8576277Y-16444660D01*
X8576277Y-16444660D02*
X8566753Y-16454184D01*
X8566753Y-16454184D02*
X8557229Y-16444660D01*
X8557229Y-16444660D02*
X8566753Y-16435136D01*
X8566753Y-16435136D02*
X8566753Y-16454184D01*
X8700086Y-16254184D02*
X8719134Y-16254184D01*
X8719134Y-16254184D02*
X8738182Y-16263708D01*
X8738182Y-16263708D02*
X8747705Y-16273231D01*
X8747705Y-16273231D02*
X8757229Y-16292279D01*
X8757229Y-16292279D02*
X8766753Y-16330374D01*
X8766753Y-16330374D02*
X8766753Y-16377993D01*
X8766753Y-16377993D02*
X8757229Y-16416088D01*
X8757229Y-16416088D02*
X8747705Y-16435136D01*
X8747705Y-16435136D02*
X8738182Y-16444660D01*
X8738182Y-16444660D02*
X8719134Y-16454184D01*
X8719134Y-16454184D02*
X8700086Y-16454184D01*
X8700086Y-16454184D02*
X8681039Y-16444660D01*
X8681039Y-16444660D02*
X8671515Y-16435136D01*
X8671515Y-16435136D02*
X8661991Y-16416088D01*
X8661991Y-16416088D02*
X8652467Y-16377993D01*
X8652467Y-16377993D02*
X8652467Y-16330374D01*
X8652467Y-16330374D02*
X8661991Y-16292279D01*
X8661991Y-16292279D02*
X8671515Y-16273231D01*
X8671515Y-16273231D02*
X8681039Y-16263708D01*
X8681039Y-16263708D02*
X8700086Y-16254184D01*
X8890563Y-16254184D02*
X8909610Y-16254184D01*
X8909610Y-16254184D02*
X8928658Y-16263708D01*
X8928658Y-16263708D02*
X8938182Y-16273231D01*
X8938182Y-16273231D02*
X8947705Y-16292279D01*
X8947705Y-16292279D02*
X8957229Y-16330374D01*
X8957229Y-16330374D02*
X8957229Y-16377993D01*
X8957229Y-16377993D02*
X8947705Y-16416088D01*
X8947705Y-16416088D02*
X8938182Y-16435136D01*
X8938182Y-16435136D02*
X8928658Y-16444660D01*
X8928658Y-16444660D02*
X8909610Y-16454184D01*
X8909610Y-16454184D02*
X8890563Y-16454184D01*
X8890563Y-16454184D02*
X8871515Y-16444660D01*
X8871515Y-16444660D02*
X8861991Y-16435136D01*
X8861991Y-16435136D02*
X8852467Y-16416088D01*
X8852467Y-16416088D02*
X8842944Y-16377993D01*
X8842944Y-16377993D02*
X8842944Y-16330374D01*
X8842944Y-16330374D02*
X8852467Y-16292279D01*
X8852467Y-16292279D02*
X8861991Y-16273231D01*
X8861991Y-16273231D02*
X8871515Y-16263708D01*
X8871515Y-16263708D02*
X8890563Y-16254184D01*
X9081039Y-16254184D02*
X9100086Y-16254184D01*
X9100086Y-16254184D02*
X9119134Y-16263708D01*
X9119134Y-16263708D02*
X9128658Y-16273231D01*
X9128658Y-16273231D02*
X9138182Y-16292279D01*
X9138182Y-16292279D02*
X9147705Y-16330374D01*
X9147705Y-16330374D02*
X9147705Y-16377993D01*
X9147705Y-16377993D02*
X9138182Y-16416088D01*
X9138182Y-16416088D02*
X9128658Y-16435136D01*
X9128658Y-16435136D02*
X9119134Y-16444660D01*
X9119134Y-16444660D02*
X9100086Y-16454184D01*
X9100086Y-16454184D02*
X9081039Y-16454184D01*
X9081039Y-16454184D02*
X9061991Y-16444660D01*
X9061991Y-16444660D02*
X9052467Y-16435136D01*
X9052467Y-16435136D02*
X9042944Y-16416088D01*
X9042944Y-16416088D02*
X9033420Y-16377993D01*
X9033420Y-16377993D02*
X9033420Y-16330374D01*
X9033420Y-16330374D02*
X9042944Y-16292279D01*
X9042944Y-16292279D02*
X9052467Y-16273231D01*
X9052467Y-16273231D02*
X9061991Y-16263708D01*
X9061991Y-16263708D02*
X9081039Y-16254184D01*
X9233420Y-16454184D02*
X9233420Y-16320850D01*
X9233420Y-16339898D02*
X9242944Y-16330374D01*
X9242944Y-16330374D02*
X9261991Y-16320850D01*
X9261991Y-16320850D02*
X9290563Y-16320850D01*
X9290563Y-16320850D02*
X9309610Y-16330374D01*
X9309610Y-16330374D02*
X9319134Y-16349422D01*
X9319134Y-16349422D02*
X9319134Y-16454184D01*
X9319134Y-16349422D02*
X9328658Y-16330374D01*
X9328658Y-16330374D02*
X9347705Y-16320850D01*
X9347705Y-16320850D02*
X9376277Y-16320850D01*
X9376277Y-16320850D02*
X9395325Y-16330374D01*
X9395325Y-16330374D02*
X9404848Y-16349422D01*
X9404848Y-16349422D02*
X9404848Y-16454184D01*
X9500086Y-16454184D02*
X9500086Y-16320850D01*
X9500086Y-16339898D02*
X9509610Y-16330374D01*
X9509610Y-16330374D02*
X9528658Y-16320850D01*
X9528658Y-16320850D02*
X9557229Y-16320850D01*
X9557229Y-16320850D02*
X9576277Y-16330374D01*
X9576277Y-16330374D02*
X9585801Y-16349422D01*
X9585801Y-16349422D02*
X9585801Y-16454184D01*
X9585801Y-16349422D02*
X9595325Y-16330374D01*
X9595325Y-16330374D02*
X9614372Y-16320850D01*
X9614372Y-16320850D02*
X9642944Y-16320850D01*
X9642944Y-16320850D02*
X9661991Y-16330374D01*
X9661991Y-16330374D02*
X9671515Y-16349422D01*
X9671515Y-16349422D02*
X9671515Y-16454184D01*
X10061991Y-16244660D02*
X9890563Y-16501803D01*
X10319134Y-16254184D02*
X10338182Y-16254184D01*
X10338182Y-16254184D02*
X10357229Y-16263708D01*
X10357229Y-16263708D02*
X10366753Y-16273231D01*
X10366753Y-16273231D02*
X10376277Y-16292279D01*
X10376277Y-16292279D02*
X10385801Y-16330374D01*
X10385801Y-16330374D02*
X10385801Y-16377993D01*
X10385801Y-16377993D02*
X10376277Y-16416088D01*
X10376277Y-16416088D02*
X10366753Y-16435136D01*
X10366753Y-16435136D02*
X10357229Y-16444660D01*
X10357229Y-16444660D02*
X10338182Y-16454184D01*
X10338182Y-16454184D02*
X10319134Y-16454184D01*
X10319134Y-16454184D02*
X10300087Y-16444660D01*
X10300087Y-16444660D02*
X10290563Y-16435136D01*
X10290563Y-16435136D02*
X10281039Y-16416088D01*
X10281039Y-16416088D02*
X10271515Y-16377993D01*
X10271515Y-16377993D02*
X10271515Y-16330374D01*
X10271515Y-16330374D02*
X10281039Y-16292279D01*
X10281039Y-16292279D02*
X10290563Y-16273231D01*
X10290563Y-16273231D02*
X10300087Y-16263708D01*
X10300087Y-16263708D02*
X10319134Y-16254184D01*
X10471515Y-16435136D02*
X10481039Y-16444660D01*
X10481039Y-16444660D02*
X10471515Y-16454184D01*
X10471515Y-16454184D02*
X10461991Y-16444660D01*
X10461991Y-16444660D02*
X10471515Y-16435136D01*
X10471515Y-16435136D02*
X10471515Y-16454184D01*
X10671515Y-16454184D02*
X10557229Y-16454184D01*
X10614372Y-16454184D02*
X10614372Y-16254184D01*
X10614372Y-16254184D02*
X10595325Y-16282755D01*
X10595325Y-16282755D02*
X10576277Y-16301803D01*
X10576277Y-16301803D02*
X10557229Y-16311327D01*
X10852468Y-16254184D02*
X10757229Y-16254184D01*
X10757229Y-16254184D02*
X10747706Y-16349422D01*
X10747706Y-16349422D02*
X10757229Y-16339898D01*
X10757229Y-16339898D02*
X10776277Y-16330374D01*
X10776277Y-16330374D02*
X10823896Y-16330374D01*
X10823896Y-16330374D02*
X10842944Y-16339898D01*
X10842944Y-16339898D02*
X10852468Y-16349422D01*
X10852468Y-16349422D02*
X10861991Y-16368469D01*
X10861991Y-16368469D02*
X10861991Y-16416088D01*
X10861991Y-16416088D02*
X10852468Y-16435136D01*
X10852468Y-16435136D02*
X10842944Y-16444660D01*
X10842944Y-16444660D02*
X10823896Y-16454184D01*
X10823896Y-16454184D02*
X10776277Y-16454184D01*
X10776277Y-16454184D02*
X10757229Y-16444660D01*
X10757229Y-16444660D02*
X10747706Y-16435136D01*
X10928658Y-16254184D02*
X11061991Y-16254184D01*
X11061991Y-16254184D02*
X10976277Y-16454184D01*
X11233420Y-16254184D02*
X11138182Y-16254184D01*
X11138182Y-16254184D02*
X11128658Y-16349422D01*
X11128658Y-16349422D02*
X11138182Y-16339898D01*
X11138182Y-16339898D02*
X11157229Y-16330374D01*
X11157229Y-16330374D02*
X11204848Y-16330374D01*
X11204848Y-16330374D02*
X11223896Y-16339898D01*
X11223896Y-16339898D02*
X11233420Y-16349422D01*
X11233420Y-16349422D02*
X11242944Y-16368469D01*
X11242944Y-16368469D02*
X11242944Y-16416088D01*
X11242944Y-16416088D02*
X11233420Y-16435136D01*
X11233420Y-16435136D02*
X11223896Y-16444660D01*
X11223896Y-16444660D02*
X11204848Y-16454184D01*
X11204848Y-16454184D02*
X11157229Y-16454184D01*
X11157229Y-16454184D02*
X11138182Y-16444660D01*
X11138182Y-16444660D02*
X11128658Y-16435136D01*
X11319134Y-16254184D02*
X11319134Y-16292279D01*
X11395325Y-16254184D02*
X11395325Y-16292279D01*
X11690563Y-16530374D02*
X11681039Y-16520850D01*
X11681039Y-16520850D02*
X11661991Y-16492279D01*
X11661991Y-16492279D02*
X11652468Y-16473231D01*
X11652468Y-16473231D02*
X11642944Y-16444660D01*
X11642944Y-16444660D02*
X11633420Y-16397041D01*
X11633420Y-16397041D02*
X11633420Y-16358946D01*
X11633420Y-16358946D02*
X11642944Y-16311327D01*
X11642944Y-16311327D02*
X11652468Y-16282755D01*
X11652468Y-16282755D02*
X11661991Y-16263708D01*
X11661991Y-16263708D02*
X11681039Y-16235136D01*
X11681039Y-16235136D02*
X11690563Y-16225612D01*
X11757229Y-16273231D02*
X11766753Y-16263708D01*
X11766753Y-16263708D02*
X11785801Y-16254184D01*
X11785801Y-16254184D02*
X11833420Y-16254184D01*
X11833420Y-16254184D02*
X11852468Y-16263708D01*
X11852468Y-16263708D02*
X11861991Y-16273231D01*
X11861991Y-16273231D02*
X11871515Y-16292279D01*
X11871515Y-16292279D02*
X11871515Y-16311327D01*
X11871515Y-16311327D02*
X11861991Y-16339898D01*
X11861991Y-16339898D02*
X11747706Y-16454184D01*
X11747706Y-16454184D02*
X11871515Y-16454184D01*
X11966753Y-16454184D02*
X12004848Y-16454184D01*
X12004848Y-16454184D02*
X12023896Y-16444660D01*
X12023896Y-16444660D02*
X12033420Y-16435136D01*
X12033420Y-16435136D02*
X12052468Y-16406565D01*
X12052468Y-16406565D02*
X12061991Y-16368469D01*
X12061991Y-16368469D02*
X12061991Y-16292279D01*
X12061991Y-16292279D02*
X12052468Y-16273231D01*
X12052468Y-16273231D02*
X12042944Y-16263708D01*
X12042944Y-16263708D02*
X12023896Y-16254184D01*
X12023896Y-16254184D02*
X11985801Y-16254184D01*
X11985801Y-16254184D02*
X11966753Y-16263708D01*
X11966753Y-16263708D02*
X11957229Y-16273231D01*
X11957229Y-16273231D02*
X11947706Y-16292279D01*
X11947706Y-16292279D02*
X11947706Y-16339898D01*
X11947706Y-16339898D02*
X11957229Y-16358946D01*
X11957229Y-16358946D02*
X11966753Y-16368469D01*
X11966753Y-16368469D02*
X11985801Y-16377993D01*
X11985801Y-16377993D02*
X12023896Y-16377993D01*
X12023896Y-16377993D02*
X12042944Y-16368469D01*
X12042944Y-16368469D02*
X12052468Y-16358946D01*
X12052468Y-16358946D02*
X12061991Y-16339898D01*
X12300087Y-16454184D02*
X12300087Y-16254184D01*
X12385801Y-16454184D02*
X12385801Y-16349422D01*
X12385801Y-16349422D02*
X12376277Y-16330374D01*
X12376277Y-16330374D02*
X12357230Y-16320850D01*
X12357230Y-16320850D02*
X12328658Y-16320850D01*
X12328658Y-16320850D02*
X12309610Y-16330374D01*
X12309610Y-16330374D02*
X12300087Y-16339898D01*
X12509610Y-16454184D02*
X12490563Y-16444660D01*
X12490563Y-16444660D02*
X12481039Y-16435136D01*
X12481039Y-16435136D02*
X12471515Y-16416088D01*
X12471515Y-16416088D02*
X12471515Y-16358946D01*
X12471515Y-16358946D02*
X12481039Y-16339898D01*
X12481039Y-16339898D02*
X12490563Y-16330374D01*
X12490563Y-16330374D02*
X12509610Y-16320850D01*
X12509610Y-16320850D02*
X12538182Y-16320850D01*
X12538182Y-16320850D02*
X12557230Y-16330374D01*
X12557230Y-16330374D02*
X12566753Y-16339898D01*
X12566753Y-16339898D02*
X12576277Y-16358946D01*
X12576277Y-16358946D02*
X12576277Y-16416088D01*
X12576277Y-16416088D02*
X12566753Y-16435136D01*
X12566753Y-16435136D02*
X12557230Y-16444660D01*
X12557230Y-16444660D02*
X12538182Y-16454184D01*
X12538182Y-16454184D02*
X12509610Y-16454184D01*
X12690563Y-16454184D02*
X12671515Y-16444660D01*
X12671515Y-16444660D02*
X12661991Y-16425612D01*
X12661991Y-16425612D02*
X12661991Y-16254184D01*
X12842944Y-16444660D02*
X12823896Y-16454184D01*
X12823896Y-16454184D02*
X12785801Y-16454184D01*
X12785801Y-16454184D02*
X12766753Y-16444660D01*
X12766753Y-16444660D02*
X12757230Y-16425612D01*
X12757230Y-16425612D02*
X12757230Y-16349422D01*
X12757230Y-16349422D02*
X12766753Y-16330374D01*
X12766753Y-16330374D02*
X12785801Y-16320850D01*
X12785801Y-16320850D02*
X12823896Y-16320850D01*
X12823896Y-16320850D02*
X12842944Y-16330374D01*
X12842944Y-16330374D02*
X12852468Y-16349422D01*
X12852468Y-16349422D02*
X12852468Y-16368469D01*
X12852468Y-16368469D02*
X12757230Y-16387517D01*
X12928658Y-16444660D02*
X12947706Y-16454184D01*
X12947706Y-16454184D02*
X12985801Y-16454184D01*
X12985801Y-16454184D02*
X13004849Y-16444660D01*
X13004849Y-16444660D02*
X13014372Y-16425612D01*
X13014372Y-16425612D02*
X13014372Y-16416088D01*
X13014372Y-16416088D02*
X13004849Y-16397041D01*
X13004849Y-16397041D02*
X12985801Y-16387517D01*
X12985801Y-16387517D02*
X12957230Y-16387517D01*
X12957230Y-16387517D02*
X12938182Y-16377993D01*
X12938182Y-16377993D02*
X12928658Y-16358946D01*
X12928658Y-16358946D02*
X12928658Y-16349422D01*
X12928658Y-16349422D02*
X12938182Y-16330374D01*
X12938182Y-16330374D02*
X12957230Y-16320850D01*
X12957230Y-16320850D02*
X12985801Y-16320850D01*
X12985801Y-16320850D02*
X13004849Y-16330374D01*
X13081039Y-16530374D02*
X13090563Y-16520850D01*
X13090563Y-16520850D02*
X13109611Y-16492279D01*
X13109611Y-16492279D02*
X13119134Y-16473231D01*
X13119134Y-16473231D02*
X13128658Y-16444660D01*
X13128658Y-16444660D02*
X13138182Y-16397041D01*
X13138182Y-16397041D02*
X13138182Y-16358946D01*
X13138182Y-16358946D02*
X13128658Y-16311327D01*
X13128658Y-16311327D02*
X13119134Y-16282755D01*
X13119134Y-16282755D02*
X13109611Y-16263708D01*
X13109611Y-16263708D02*
X13090563Y-16235136D01*
X13090563Y-16235136D02*
X13081039Y-16225612D01*
X13442944Y-16530374D02*
X13433420Y-16520850D01*
X13433420Y-16520850D02*
X13414372Y-16492279D01*
X13414372Y-16492279D02*
X13404849Y-16473231D01*
X13404849Y-16473231D02*
X13395325Y-16444660D01*
X13395325Y-16444660D02*
X13385801Y-16397041D01*
X13385801Y-16397041D02*
X13385801Y-16358946D01*
X13385801Y-16358946D02*
X13395325Y-16311327D01*
X13395325Y-16311327D02*
X13404849Y-16282755D01*
X13404849Y-16282755D02*
X13414372Y-16263708D01*
X13414372Y-16263708D02*
X13433420Y-16235136D01*
X13433420Y-16235136D02*
X13442944Y-16225612D01*
X13519134Y-16320850D02*
X13519134Y-16454184D01*
X13519134Y-16339898D02*
X13528658Y-16330374D01*
X13528658Y-16330374D02*
X13547706Y-16320850D01*
X13547706Y-16320850D02*
X13576277Y-16320850D01*
X13576277Y-16320850D02*
X13595325Y-16330374D01*
X13595325Y-16330374D02*
X13604849Y-16349422D01*
X13604849Y-16349422D02*
X13604849Y-16454184D01*
X13728658Y-16454184D02*
X13709611Y-16444660D01*
X13709611Y-16444660D02*
X13700087Y-16435136D01*
X13700087Y-16435136D02*
X13690563Y-16416088D01*
X13690563Y-16416088D02*
X13690563Y-16358946D01*
X13690563Y-16358946D02*
X13700087Y-16339898D01*
X13700087Y-16339898D02*
X13709611Y-16330374D01*
X13709611Y-16330374D02*
X13728658Y-16320850D01*
X13728658Y-16320850D02*
X13757230Y-16320850D01*
X13757230Y-16320850D02*
X13776277Y-16330374D01*
X13776277Y-16330374D02*
X13785801Y-16339898D01*
X13785801Y-16339898D02*
X13795325Y-16358946D01*
X13795325Y-16358946D02*
X13795325Y-16416088D01*
X13795325Y-16416088D02*
X13785801Y-16435136D01*
X13785801Y-16435136D02*
X13776277Y-16444660D01*
X13776277Y-16444660D02*
X13757230Y-16454184D01*
X13757230Y-16454184D02*
X13728658Y-16454184D01*
X13852468Y-16320850D02*
X13928658Y-16320850D01*
X13881039Y-16254184D02*
X13881039Y-16425612D01*
X13881039Y-16425612D02*
X13890563Y-16444660D01*
X13890563Y-16444660D02*
X13909611Y-16454184D01*
X13909611Y-16454184D02*
X13928658Y-16454184D01*
X14147706Y-16320850D02*
X14147706Y-16520850D01*
X14147706Y-16330374D02*
X14166753Y-16320850D01*
X14166753Y-16320850D02*
X14204849Y-16320850D01*
X14204849Y-16320850D02*
X14223896Y-16330374D01*
X14223896Y-16330374D02*
X14233420Y-16339898D01*
X14233420Y-16339898D02*
X14242944Y-16358946D01*
X14242944Y-16358946D02*
X14242944Y-16416088D01*
X14242944Y-16416088D02*
X14233420Y-16435136D01*
X14233420Y-16435136D02*
X14223896Y-16444660D01*
X14223896Y-16444660D02*
X14204849Y-16454184D01*
X14204849Y-16454184D02*
X14166753Y-16454184D01*
X14166753Y-16454184D02*
X14147706Y-16444660D01*
X14357230Y-16454184D02*
X14338182Y-16444660D01*
X14338182Y-16444660D02*
X14328658Y-16425612D01*
X14328658Y-16425612D02*
X14328658Y-16254184D01*
X14519134Y-16454184D02*
X14519134Y-16349422D01*
X14519134Y-16349422D02*
X14509611Y-16330374D01*
X14509611Y-16330374D02*
X14490563Y-16320850D01*
X14490563Y-16320850D02*
X14452468Y-16320850D01*
X14452468Y-16320850D02*
X14433420Y-16330374D01*
X14519134Y-16444660D02*
X14500087Y-16454184D01*
X14500087Y-16454184D02*
X14452468Y-16454184D01*
X14452468Y-16454184D02*
X14433420Y-16444660D01*
X14433420Y-16444660D02*
X14423896Y-16425612D01*
X14423896Y-16425612D02*
X14423896Y-16406565D01*
X14423896Y-16406565D02*
X14433420Y-16387517D01*
X14433420Y-16387517D02*
X14452468Y-16377993D01*
X14452468Y-16377993D02*
X14500087Y-16377993D01*
X14500087Y-16377993D02*
X14519134Y-16368469D01*
X14585801Y-16320850D02*
X14661992Y-16320850D01*
X14614373Y-16254184D02*
X14614373Y-16425612D01*
X14614373Y-16425612D02*
X14623896Y-16444660D01*
X14623896Y-16444660D02*
X14642944Y-16454184D01*
X14642944Y-16454184D02*
X14661992Y-16454184D01*
X14804849Y-16444660D02*
X14785801Y-16454184D01*
X14785801Y-16454184D02*
X14747706Y-16454184D01*
X14747706Y-16454184D02*
X14728658Y-16444660D01*
X14728658Y-16444660D02*
X14719134Y-16425612D01*
X14719134Y-16425612D02*
X14719134Y-16349422D01*
X14719134Y-16349422D02*
X14728658Y-16330374D01*
X14728658Y-16330374D02*
X14747706Y-16320850D01*
X14747706Y-16320850D02*
X14785801Y-16320850D01*
X14785801Y-16320850D02*
X14804849Y-16330374D01*
X14804849Y-16330374D02*
X14814373Y-16349422D01*
X14814373Y-16349422D02*
X14814373Y-16368469D01*
X14814373Y-16368469D02*
X14719134Y-16387517D01*
X14985801Y-16454184D02*
X14985801Y-16254184D01*
X14985801Y-16444660D02*
X14966754Y-16454184D01*
X14966754Y-16454184D02*
X14928658Y-16454184D01*
X14928658Y-16454184D02*
X14909611Y-16444660D01*
X14909611Y-16444660D02*
X14900087Y-16435136D01*
X14900087Y-16435136D02*
X14890563Y-16416088D01*
X14890563Y-16416088D02*
X14890563Y-16358946D01*
X14890563Y-16358946D02*
X14900087Y-16339898D01*
X14900087Y-16339898D02*
X14909611Y-16330374D01*
X14909611Y-16330374D02*
X14928658Y-16320850D01*
X14928658Y-16320850D02*
X14966754Y-16320850D01*
X14966754Y-16320850D02*
X14985801Y-16330374D01*
X15061992Y-16530374D02*
X15071515Y-16520850D01*
X15071515Y-16520850D02*
X15090563Y-16492279D01*
X15090563Y-16492279D02*
X15100087Y-16473231D01*
X15100087Y-16473231D02*
X15109611Y-16444660D01*
X15109611Y-16444660D02*
X15119134Y-16397041D01*
X15119134Y-16397041D02*
X15119134Y-16358946D01*
X15119134Y-16358946D02*
X15109611Y-16311327D01*
X15109611Y-16311327D02*
X15100087Y-16282755D01*
X15100087Y-16282755D02*
X15090563Y-16263708D01*
X15090563Y-16263708D02*
X15071515Y-16235136D01*
X15071515Y-16235136D02*
X15061992Y-16225612D01*
M02*
